SplineFontDB: 3.0
FontName: Umpush
FullName: Umpush
FamilyName: Umpush
Weight: Regular
Copyright: Copyright (c) 2003 NECTEC. All rights reserved.\nCopyright (c) 2007 Widhaya Trisarnwadhana. All rights reserved.\nModified under GNU General Public License by TLWG.
Version: 0.10.2
ItalicAngle: 0
UnderlinePosition: -170
UnderlineWidth: 20
Ascent: 1638
Descent: 410
LayerCount: 2
Layer: 0 0 "Back"  1
Layer: 1 0 "Fore"  0
FSType: 0
OS2Version: 0
OS2_WeightWidthSlopeOnly: 0
OS2_UseTypoMetrics: 0
CreationTime: 1153662374
ModificationTime: 1429777950
PfmFamily: 33
TTFWeight: 400
TTFWidth: 5
LineGap: 0
VLineGap: 0
Panose: 2 11 5 4 2 2 2 2 2 4
OS2TypoAscent: 0
OS2TypoAOffset: 1
OS2TypoDescent: 0
OS2TypoDOffset: 1
OS2TypoLinegap: 0
OS2WinAscent: 0
OS2WinAOffset: 1
OS2WinDescent: 0
OS2WinDOffset: 1
HheadAscent: 0
HheadAOffset: 1
HheadDescent: 0
HheadDOffset: 1
OS2Vendor: 'PfEd'
Lookup: 4 0 1 "'liga' Standard Ligatures lookup 0"  {"'liga' Standard Ligatures lookup 0"  } ['liga' ('latn' <'dflt' > ) ]
Lookup: 6 0 0 "'ccmp' Thai Conditional Descender Removal"  {"'ccmp' Thai Conditional Descender Removal"  } ['ccmp' ('DFLT' <'dflt' > 'thai' <'KUY ' 'THA ' 'dflt' > ) ]
Lookup: 1 0 0 "'ccmp' Pali-Sanskrit Descender Removal"  {"'ccmp' Pali-Sanskrit Descender Removal" ("descless" ) } ['ccmp' ('thai' <'PAL ' 'SAN ' > ) ]
Lookup: 6 0 0 "'ccmp' Thai General Composition"  {"'ccmp' Thai Below Vowel Tone Reordering"  "'ccmp' Thai General Composition"  } ['ccmp' ('DFLT' <'dflt' > 'thai' <'KUY ' 'PAL ' 'SAN ' 'THA ' 'dflt' > ) ]
Lookup: 1 0 0 "Thai Descender Removal Single Substitution"  {"Thai Descender Removal Single Substitution" ("descless" ) } []
Lookup: 2 0 0 "Thai Sara Am Decomposition"  {"Thai Sara Am Decomposition"  } []
Lookup: 2 0 0 "Thai Tone Nikhahit Attachment"  {"Thai Tone Nikhahit Attachment"  } []
Lookup: 1 0 0 "Thai Sara Am Lakkhang"  {"Thai Sara Am Lakkhang"  } []
Lookup: 1 0 0 "Thai Tone Low Variant"  {"Thai Tone Low Variant" ("low" ) } []

StartChar: .notdef
Encoding: 65536 -1 0
Width: 1536
Flags: W
HStem: 0 32<288 1248> 1248 32<288 1248>
VStem: 256 32<32 1248> 1248 32<32 1248>
LayerCount: 2
Fore
SplineSet
256 0 m 1
 256 1280 l 1
 1280 1280 l 1
 1280 0 l 1
 256 0 l 1
288 32 m 1
 1248 32 l 1
 1248 1248 l 1
 288 1248 l 1
 288 32 l 1
EndSplineSet
Validated: 1
EndChar

StartChar: uni0E4D.high
Encoding: 63262 63262 2
Width: 0
VWidth: 2558
Flags: W
HStem: 2056 72<-317.618 -186.931> 2284 74<-317.64 -184.467>
VStem: -400 69<2143.55 2269.61> -171 70<2144.38 2269.76>
AnchorPoint: "AboveMark" -249 2560 basemark 0
AnchorPoint: "AboveMark" -250 2070 mark 0
LayerCount: 2
Fore
SplineSet
-400 2205 m 0
 -400 2285 -337 2358 -249 2358 c 0
 -169 2358 -101 2293 -101 2205 c 0
 -101 2118 -174 2056 -249 2056 c 0
 -324 2056 -400 2115 -400 2205 c 0
-331 2205 m 0
 -331 2159 -289 2128 -251 2128 c 0
 -208 2128 -171 2168 -171 2205 c 0
 -171 2258 -215 2284 -250 2284 c 0
 -308 2284 -331 2237 -331 2205 c 0
EndSplineSet
Validated: 1
EndChar

StartChar: exclam
Encoding: 33 33 5
Width: 569
Flags: W
HStem: 0 194<198 378> 1430 20G<198 378>
VStem: 198 180<0 194 792.431 1450>
LayerCount: 2
Fore
SplineSet
198 999 m 1
 198 1450 l 1
 378 1450 l 1
 378 999 l 1
 334 365 l 1
 242 365 l 1
 198 999 l 1
198 194 m 1
 378 194 l 1
 378 0 l 1
 198 0 l 1
 198 194 l 1
EndSplineSet
Validated: 1
EndChar

StartChar: quotedbl
Encoding: 34 34 6
Width: 727
Flags: W
HStem: 947 503<156 241 487 572>
VStem: 106 180<1139.59 1450> 156 85<947 1024.41> 439 180<1136.36 1450> 487 85<947 1027.64>
LayerCount: 2
Fore
SplineSet
156 947 m 1xa0
 106 1217 l 1
 106 1450 l 1
 286 1450 l 1
 286 1217 l 1xc0
 241 947 l 1
 156 947 l 1xa0
487 947 m 1x88
 439 1217 l 1
 439 1450 l 1
 619 1450 l 1
 619 1217 l 1x90
 572 947 l 1
 487 947 l 1x88
EndSplineSet
Validated: 1
EndChar

StartChar: numbersign
Encoding: 35 35 7
Width: 1139
Flags: W
HStem: -10 21G<87 271.15 546 730.15> 390 170<21 170 386 629 845 1113> 900 170<21 276 492 735 951 1113> 1450 20G<390.85 575 849.85 1034>
DStem2: 87 -10 267 -10 0.203743 0.979024<36.6737 408.52 618.963 929.42 1139.86 1511.71> 546 -10 726 -10 0.203743 0.979024<36.6737 408.52 618.963 929.42 1139.86 1511.71>
LayerCount: 2
Back
SplineSet
21 390 m 5
 21 560 l 5
 1113 560 l 5
 1113 390 l 5
 21 390 l 5
21 900 m 5
 21 1070 l 5
 1113 1070 l 5
 1113 900 l 5
 21 900 l 5
726 -10 m 5
 546 -10 l 5
 854 1470 l 5
 1034 1470 l 5
 726 -10 l 5
267 -10 m 5
 87 -10 l 5
 395 1470 l 5
 575 1470 l 5
 267 -10 l 5
EndSplineSet
Fore
SplineSet
267 -10 m 1
 87 -10 l 1
 170 390 l 1
 21 390 l 1
 21 560 l 1
 206 560 l 1
 276 900 l 1
 21 900 l 1
 21 1070 l 1
 312 1070 l 1
 395 1470 l 1
 575 1470 l 1
 492 1070 l 1
 771 1070 l 1
 854 1470 l 1
 1034 1470 l 1
 951 1070 l 1
 1113 1070 l 1
 1113 900 l 1
 915 900 l 1
 845 560 l 1
 1113 560 l 1
 1113 390 l 1
 809 390 l 1
 726 -10 l 1
 546 -10 l 1
 629 390 l 1
 350 390 l 1
 267 -10 l 1
735 900 m 1
 456 900 l 1
 386 560 l 1
 665 560 l 1
 735 900 l 1
EndSplineSet
Validated: 1
EndChar

StartChar: dollar
Encoding: 36 36 8
Width: 1139
Flags: W
HStem: -5 175<380.981 473 653 751.94> 1062 21G<821.5 1008> 1249 174<374.187 473 653 737.766>
VStem: 76 180<307.329 429> 106 180<925.546 1169.88> 473 180<-106 1.41434 170 629 836 1246 1416.44 1500> 828 180<1062 1162.02> 862 180<269.148 530.847>
LayerCount: 2
Back
SplineSet
473 1500 m 5xe4
 653 1500 l 5
 653 -106 l 5
 473 -106 l 5
 473 1500 l 5xe4
562 -11 m 7
 291 -11 77 143 76 429 c 5
 256 429 l 5
 282 257 403 159 562 159 c 31
 712 159 862 246 862 398 c 7xf5
 862 578 706 625 562 648 c 4
 386 676 106 751 106 1043 c 7
 106 1302 329 1429 562 1429 c 31
 787 1429 996 1304 1008 1062 c 5
 828 1062 l 5xee
 811 1184 691 1259 562 1259 c 31
 428 1259 286 1194 286 1056 c 7
 286 887 432 837 562 816 c 4
 773 782 1042 710 1042 409 c 7xed
 1042 149 825 -11 562 -11 c 7
EndSplineSet
Fore
SplineSet
473 1500 m 1xec
 653 1500 l 1
 653 1422 l 1
 841 1393 998 1271 1008 1062 c 1
 828 1062 l 1xee
 815 1154 743 1220 653 1246 c 1
 653 799 l 1
 843 757 1042 668 1042 409 c 0
 1042 180 873 29 653 -4 c 1
 653 -106 l 1
 473 -106 l 1
 473 -5 l 1
 246 25 77 175 76 429 c 1
 256 429 l 1xf5
 277 291 359 200 473 170 c 1
 473 665 l 1
 305 705 106 797 106 1043 c 0
 106 1269 275 1394 473 1423 c 1
 473 1500 l 1xec
473 1249 m 1
 372 1226 286 1163 286 1056 c 0
 286 925 373 866 473 836 c 1
 473 1249 l 1
653 170 m 1
 767 198 862 277 862 398 c 0xe5
 862 540 765 599 653 629 c 1
 653 170 l 1
EndSplineSet
Validated: 1
EndChar

StartChar: percent
Encoding: 37 37 9
Width: 1821
Flags: W
HStem: -50 170<1299.02 1461.85> -10 21G<458 648.113> 554 170<1297.06 1468.14> 717 170<351.016 513.855> 1321 170<349.057 520.144>
VStem: 119 180<941.855 1273.81> 565 180<940.136 1273.81> 1067 180<174.239 506.222> 1513 180<172.531 506.222>
DStem2: 458 -10 638 -10 0.451252 0.892397<81.2253 1681.99>
LayerCount: 2
Fore
SplineSet
1067 336 m 3xaf80
 1067 553 1176 724 1380 724 c 3
 1584 724 1693 553 1693 336 c 3
 1693 119 1584 -50 1380 -50 c 3
 1176 -50 1067 119 1067 336 c 3xaf80
1380 554 m 3
 1287 554 1247 444 1247 336 c 3
 1247 228 1296 120 1380 120 c 3
 1468 120 1513 228 1513 336 c 3
 1513 444 1478 554 1380 554 c 3
119 1104 m 3
 119 1321 228 1491 432 1491 c 3
 636 1491 745 1321 745 1104 c 3
 745 887 636 717 432 717 c 3x1f80
 228 717 119 887 119 1104 c 3
432 1321 m 3
 339 1321 299 1212 299 1104 c 3
 299 996 348 887 432 887 c 3
 520 887 565 996 565 1104 c 3
 565 1212 530 1321 432 1321 c 3
1217 1491 m 1
 1397 1491 l 1
 638 -10 l 1
 458 -10 l 1x4f80
 1217 1491 l 1
EndSplineSet
Validated: 1
EndChar

StartChar: ampersand
Encoding: 38 38 10
Width: 1366
Flags: W
HStem: -11 170<398.647 716.842> 1312 170<509.924 741.595>
VStem: 88 180<285.593 552.697> 272 180<1069.07 1257.44> 797 180<1040.29 1256.47> 1032 189<544.402 652.11>
DStem2: 700 821 530 725 0.631938 -0.775019<-418.68 -183.107 0 421.181>
LayerCount: 2
Fore
SplineSet
973 179 m 1
 856 55 720 -11 553 -11 c 3
 284 -11 88 178 88 410 c 3
 88 586 204 733 436 842 c 1
 359 941 272 1032 272 1159 c 3
 272 1344 440 1482 637 1482 c 3
 832 1482 977 1340 977 1174 c 3
 977 1039 885 920 700 821 c 1
 963 492 l 1
 993 549 1016 611 1032 690 c 1
 1221 649 l 1
 1188 522 1144 424 1090 341 c 1
 1157 261 1233 186 1319 123 c 1
 1198 -21 l 1
 1126 27 1051 96 973 179 c 1
606 938 m 1
 726 1012 797 1048 797 1154 c 3
 797 1238 716 1312 627 1312 c 3
 531 1312 452 1238 452 1162 c 3
 452 1100 555 998 606 938 c 1
530 725 m 1
 370 633 268 548 268 423 c 3
 268 314 365 159 555 159 c 3
 688 159 797 246 860 322 c 1
 530 725 l 1
EndSplineSet
Validated: 1
EndChar

StartChar: quotesingle
Encoding: 39 39 11
Width: 391
Flags: W
HStem: 947 519<136 247>
VStem: 90 205<1139.17 1466> 136 111<947 1028.83>
LayerCount: 2
Fore
SplineSet
136 947 m 1xa0
 90 1221 l 1
 90 1466 l 1
 295 1466 l 1
 295 1221 l 1xc0
 247 947 l 1
 136 947 l 1xa0
EndSplineSet
Validated: 1
EndChar

StartChar: parenleft
Encoding: 40 40 12
Width: 682
Flags: W
VStem: 124 180<190.178 888.505>
LayerCount: 2
Fore
SplineSet
479 -431 m 1
 279 -172 124 160 124 531 c 3
 124 945 281 1239 479 1491 c 1
 608 1491 l 1
 412 1155 304 960 304 530 c 3
 304 210 409 -111 608 -431 c 1
 479 -431 l 1
EndSplineSet
Validated: 1
EndChar

StartChar: parenright
Encoding: 41 41 13
Width: 682
Flags: W
VStem: 378 180<190.178 888.505>
LayerCount: 2
Fore
SplineSet
203 -431 m 1
 74 -431 l 1
 273 -111 378 210 378 530 c 3
 378 960 270 1155 74 1491 c 1
 203 1491 l 1
 401 1239 558 945 558 531 c 3
 558 160 403 -172 203 -431 c 1
EndSplineSet
Validated: 1
EndChar

StartChar: asterisk
Encoding: 42 42 14
Width: 797
Flags: W
HStem: 867 624
VStem: 321 145<1247.64 1491>
LayerCount: 2
Fore
SplineSet
64 1197 m 1
 110 1339 l 1
 216 1302 293 1269 341 1242 c 1
 328 1363 322 1446 321 1491 c 1
 466 1491 l 1
 464 1425 456 1342 443 1243 c 1
 512 1278 590 1310 679 1339 c 1
 725 1197 l 1
 640 1169 557 1150 476 1141 c 1
 517 1106 574 1043 648 952 c 1
 528 867 l 1
 489 920 444 991 391 1082 c 1
 342 988 298 916 261 867 c 1
 143 952 l 1
 220 1047 276 1110 309 1141 c 1
 223 1158 141 1176 64 1197 c 1
EndSplineSet
Validated: 1
EndChar

StartChar: plus
Encoding: 43 43 15
Width: 1196
Flags: W
HStem: 638 170<114 508 688 1082>
VStem: 508 180<237 638 808 1206>
LayerCount: 2
Fore
SplineSet
508 237 m 1
 508 638 l 1
 114 638 l 1
 114 808 l 1
 508 808 l 1
 508 1206 l 1
 688 1206 l 1
 688 808 l 1
 1082 808 l 1
 1082 638 l 1
 688 638 l 1
 688 237 l 1
 508 237 l 1
EndSplineSet
Validated: 1
EndChar

StartChar: comma
Encoding: 44 44 16
Width: 569
Flags: W
HStem: 0 205<182 284>
VStem: 182 205<0 205> 284 103<-157.748 0>
LayerCount: 2
Fore
SplineSet
182 0 m 1xc0
 182 205 l 1
 387 205 l 1
 387 0 l 1xc0
 386 -157 332 -241 220 -290 c 1
 170 -213 l 1
 251 -176 280 -117 284 0 c 1xa0
 182 0 l 1xc0
EndSplineSet
Validated: 1
EndChar

StartChar: hyphen
Encoding: 45 45 17
Width: 682
Flags: W
HStem: 446 170<65 618>
VStem: 65 553<446 616>
LayerCount: 2
Fore
SplineSet
65 446 m 1
 65 616 l 1
 618 616 l 1
 618 446 l 1
 65 446 l 1
EndSplineSet
Validated: 1
EndChar

StartChar: period
Encoding: 46 46 18
Width: 569
Flags: W
HStem: 0 205<186 391>
VStem: 186 205<0 205>
LayerCount: 2
Fore
SplineSet
186 0 m 1
 186 205 l 1
 391 205 l 1
 391 0 l 1
 186 0 l 1
EndSplineSet
Validated: 1
EndChar

StartChar: slash
Encoding: 47 47 19
Width: 595
Flags: W
HStem: -10 21G<-81 109.919> 1450 20G<498.068 688>
DStem2: -81 -10 102 -10 0.368682 0.929556<67.4688 1592.16>
LayerCount: 2
Fore
SplineSet
-81 -10 m 1
 506 1470 l 1
 688 1470 l 1
 102 -10 l 1
 -81 -10 l 1
EndSplineSet
Validated: 1
EndChar

StartChar: zero
Encoding: 48 48 20
Width: 1139
Flags: W
HStem: -10 170<425.476 699.206> 1289 170<435.88 699.081>
VStem: 86 180<384.139 1040.68> 860 180<388.262 1063.23>
LayerCount: 2
Fore
SplineSet
86 723 m 3
 86 1160 196 1459 563 1459 c 3
 881 1459 1040 1214 1040 723 c 3
 1040 288 920 -10 563 -10 c 3
 208 -10 86 300 86 723 c 3
266 723 m 3
 266 414 344 160 563 160 c 3
 758 160 860 358 860 723 c 3
 860 1092 758 1289 561 1289 c 3
 316 1289 266 910 266 723 c 3
EndSplineSet
Validated: 1
EndChar

StartChar: one
Encoding: 49 49 21
Width: 1139
Flags: W
HStem: 0 21G<583 763> 1452 20G<557 763>
VStem: 583 180<0 1135 1376.16 1472>
LayerCount: 2
Fore
SplineSet
763 0 m 1
 583 0 l 1
 583 1135 l 1
 520 1033 368 937 223 907 c 1
 223 1104 l 1
 377 1175 531 1308 583 1472 c 1
 763 1472 l 1
 763 0 l 1
EndSplineSet
Validated: 1
EndChar

StartChar: two
Encoding: 50 50 22
Width: 1139
Flags: W
HStem: 0 170<309 1031> 1312 170<393.032 741.849>
VStem: 96 180<1039 1199.46> 849 180<911.279 1209.67>
LayerCount: 2
Fore
SplineSet
1031 170 m 1
 1031 0 l 1
 62 0 l 1
 62 174 225 365 437 542 c 0
 655 724 849 855 849 1079 c 3
 849 1228 723 1312 568 1312 c 3
 395 1312 278 1220 276 1039 c 1
 96 1039 l 1
 96 1304 295 1482 572 1482 c 3
 831 1482 1029 1326 1029 1075 c 3
 1029 785 800 630 596 455 c 0
 493 366 381 295 309 170 c 1
 1031 170 l 1
EndSplineSet
Validated: 1
EndChar

StartChar: three
Encoding: 51 51 23
Width: 1139
Flags: W
HStem: -11 170<388.554 722.802> 707 149<443.202 661.398> 1070 21G<104 295.5> 1312 170<391.573 710.566>
VStem: 86 180<280.678 427> 104 180<1070 1193.8> 794 180<974.064 1231.07> 866 180<296.456 596.991>
LayerCount: 2
Fore
SplineSet
86 427 m 1xf9
 266 427 l 1
 267 263 392 159 553 159 c 3
 724 159 866 274 866 445 c 3xf9
 866 612 744 707 576 707 c 3
 533 707 488 701 441 688 c 1
 441 858 l 1
 455 857 469 856 483 856 c 3
 651 856 794 953 794 1105 c 3
 794 1237 690 1312 549 1312 c 3
 396 1312 307 1228 284 1070 c 1
 104 1070 l 1
 110 1301 300 1482 545 1482 c 3
 776 1482 974 1328 974 1101 c 3xf6
 974 964 883 844 772 794 c 1
 949 749 1046 640 1046 449 c 3
 1046 181 832 -11 552 -11 c 3
 292 -11 89 170 86 427 c 1xf9
EndSplineSet
Validated: 1
EndChar

StartChar: four
Encoding: 52 52 24
Width: 1139
Flags: W
HStem: 0 21G<662 842> 352 170<251 662 842 1040> 1452 20G<648.611 842>
VStem: 662 180<0 352 522 1117>
DStem2: 26 522 251 522 0.556314 0.830972<125.171 848.244>
LayerCount: 2
Fore
SplineSet
662 0 m 1
 662 352 l 1
 26 352 l 1
 26 522 l 1
 662 1472 l 1
 842 1472 l 1
 842 522 l 1
 1040 522 l 1
 1040 352 l 1
 842 352 l 1
 842 0 l 1
 662 0 l 1
662 522 m 1
 662 1117 l 1
 251 522 l 1
 662 522 l 1
EndSplineSet
Validated: 1
EndChar

StartChar: five
Encoding: 53 53 25
Width: 1139
Flags: W
HStem: -11 170<390.461 723.732> 816 170<397.312 731.012> 1280 170<419 988>
VStem: 85 189<289.773 414> 877 180<317.039 671.634>
DStem2: 117 707 344 919 0.181331 0.983422<12.6362 74.708 249.648 618.263>
LayerCount: 2
Fore
SplineSet
85 414 m 1
 274 414 l 1
 303 248 388 159 556 159 c 3
 745 159 877 295 877 495 c 3
 877 695 752 816 553 816 c 3
 454 816 372 772 306 685 c 1
 117 707 l 1
 254 1450 l 1
 988 1450 l 1
 988 1280 l 1
 419 1280 l 1
 344 919 l 1
 397 963 484 986 591 986 c 3
 868 986 1057 795 1057 511 c 3
 1057 223 858 -11 556 -11 c 3
 280 -11 109 157 85 414 c 1
EndSplineSet
Validated: 1
EndChar

StartChar: six
Encoding: 54 54 26
Width: 1139
Flags: W
HStem: -11 170<438.181 734.024> 807 170<428.303 731.805> 1312 170<436.085 742.63>
VStem: 77 194<842 1087.93> 839 180<1103 1209.97> 865 180<294.771 663.193>
LayerCount: 2
Fore
SplineSet
1019 1103 m 1xf8
 839 1103 l 1xf8
 807 1235 736 1312 592 1312 c 3
 383 1312 276 1151 271 842 c 1
 346 934 443 977 594 977 c 3
 852 977 1045 766 1045 491 c 3xf4
 1045 216 865 -11 586 -11 c 3
 208 -11 77 292 77 701 c 3
 77 1168 216 1482 603 1482 c 3
 826 1482 1019 1327 1019 1103 c 1xf8
306 490 m 3
 306 308 407 159 585 159 c 3
 766 159 865 300 865 480 c 3xf4
 865 667 762 807 578 807 c 3
 406 807 306 670 306 490 c 3
EndSplineSet
Validated: 1
EndChar

StartChar: seven
Encoding: 55 55 27
Width: 1139
Flags: W
HStem: 0 21G<331 511> 1280 170<97 833>
VStem: 331 180<0 333.32>
LayerCount: 2
Fore
SplineSet
1046 1280 m 1
 793 977 511 491 511 0 c 1
 331 0 l 1
 331 462 606 1002 833 1280 c 1
 97 1280 l 1
 97 1450 l 1
 1046 1450 l 1
 1046 1280 l 1
EndSplineSet
Validated: 1
EndChar

StartChar: eight
Encoding: 56 56 28
Width: 1139
Flags: W
HStem: -11 170<396.907 744.408> 699 181<417.108 717.823> 1312 170<404.649 722.597>
VStem: 83 180<285.345 584.794> 142 180<971.271 1237.11> 809 180<967.774 1230.55> 869 180<276.359 586.618>
LayerCount: 2
Fore
SplineSet
362 805 m 1xf2
 215 859 142 959 142 1104 c 3
 142 1340 328 1482 563 1482 c 3
 804 1482 989 1332 989 1099 c 3xec
 989 958 908 856 773 805 c 1
 948 743 1049 632 1049 434 c 3
 1049 152 854 -11 566 -11 c 3
 292 -11 83 164 83 439 c 3
 83 644 193 763 362 805 c 1xf2
322 1110 m 3
 322 972 424 880 567 880 c 3
 704 880 809 967 809 1100 c 3
 809 1236 708 1312 565 1312 c 3
 431 1312 322 1248 322 1110 c 3
263 438 m 3xf2
 263 268 398 159 568 159 c 3
 748 159 869 260 869 432 c 3
 869 612 740 699 562 699 c 3
 389 699 263 609 263 438 c 3xf2
EndSplineSet
Validated: 1
EndChar

StartChar: nine
Encoding: 57 57 29
Width: 1139
Flags: W
HStem: -11 170<415.105 724.684> 495 170<429.021 734.346> 1312 170<422.427 718.386>
VStem: 113 180<808.187 1175.99> 138 180<261.803 369> 887 194<395.1 630>
LayerCount: 2
Fore
SplineSet
138 369 m 1xec
 318 369 l 1xec
 350 237 422 159 566 159 c 3
 780 159 882 321 887 630 c 1
 812 538 715 495 564 495 c 3
 316 495 113 704 113 981 c 3xf4
 113 1260 294 1482 572 1482 c 3
 936 1482 1081 1188 1081 771 c 3
 1081 332 952 -11 555 -11 c 3
 332 -11 138 145 138 369 c 1xec
852 982 m 3
 852 1167 753 1312 575 1312 c 3
 396 1312 293 1178 293 992 c 3xf4
 293 804 399 665 582 665 c 3
 760 665 852 802 852 982 c 3
EndSplineSet
Validated: 1
EndChar

StartChar: colon
Encoding: 58 58 30
Width: 569
Flags: W
HStem: 0 205<185 390> 857 205<185 390>
VStem: 185 205<0 205 857 1062>
LayerCount: 2
Fore
SplineSet
185 857 m 1
 185 1062 l 1
 390 1062 l 1
 390 857 l 1
 185 857 l 1
185 0 m 1
 185 205 l 1
 390 205 l 1
 390 0 l 1
 185 0 l 1
EndSplineSet
Validated: 1
EndChar

StartChar: semicolon
Encoding: 59 59 31
Width: 569
Flags: W
HStem: 0 205<182 284> 857 205<182 387>
VStem: 182 205<0 205 857 1062> 284 103<-159.229 0>
LayerCount: 2
Fore
SplineSet
182 857 m 1xe0
 182 1062 l 1
 387 1062 l 1
 387 857 l 1
 182 857 l 1xe0
182 0 m 1
 182 205 l 1
 387 205 l 1
 387 0 l 2xe0
 387 -150 328 -245 220 -290 c 1
 170 -213 l 1
 250 -178 281 -110 284 0 c 1xd0
 182 0 l 1
EndSplineSet
Validated: 1
EndChar

StartChar: less
Encoding: 60 60 32
Width: 1196
Flags: W
DStem2: 112 809 313 724 0.921242 0.38899<152.105 984.383> 313 724 112 641 0.919536 -0.393005<0 833.412>
LayerCount: 2
Fore
SplineSet
112 641 m 1
 112 809 l 1
 1083 1219 l 1
 1083 1040 l 1
 313 724 l 1
 1083 405 l 1
 1083 226 l 1
 112 641 l 1
EndSplineSet
Validated: 1
EndChar

StartChar: equal
Encoding: 61 61 33
Width: 1196
Flags: W
HStem: 416 170<114 1082> 861 170<114 1082>
LayerCount: 2
Fore
SplineSet
1082 861 m 1
 114 861 l 1
 114 1031 l 1
 1082 1031 l 1
 1082 861 l 1
1082 416 m 1
 114 416 l 1
 114 586 l 1
 1082 586 l 1
 1082 416 l 1
EndSplineSet
Validated: 1
EndChar

StartChar: greater
Encoding: 62 62 34
Width: 1196
Flags: W
DStem2: 112 1219 112 1040 0.921242 -0.38899<69.6292 900.985> 112 405 112 226 0.919536 0.393005<0 832.492>
LayerCount: 2
Fore
SplineSet
1083 641 m 1
 112 226 l 1
 112 405 l 1
 881 724 l 1
 112 1040 l 1
 112 1219 l 1
 1083 809 l 1
 1083 641 l 1
EndSplineSet
Validated: 1
EndChar

StartChar: question
Encoding: 63 63 35
Width: 1139
Flags: W
HStem: 0 205<461 666> 1334 170<404.815 735.651>
VStem: 90 185<1046 1183.33> 461 205<0 205 361 581.476> 860 180<949.481 1218.38>
LayerCount: 2
Fore
SplineSet
90 1046 m 1
 104 1302 280 1504 565 1504 c 3
 834 1504 1040 1330 1040 1105 c 3
 1040 745 652 758 652 361 c 1
 472 361 l 1
 474 436 l 2
 483 793 860 822 860 1088 c 3
 860 1202 763 1334 568 1334 c 3
 391 1334 301 1222 275 1046 c 1
 90 1046 l 1
461 0 m 1
 461 205 l 1
 666 205 l 1
 666 0 l 1
 461 0 l 1
EndSplineSet
Validated: 1
EndChar

StartChar: at
Encoding: 64 64 36
Width: 2079
Flags: W
HStem: -431 148<798.113 1442.15> -11 148<778.335 1029.86 1277 1535.96> 947 148<886.852 1146.72> 1042 20G<1341.52 1526> 1345 148<814.927 1361.97>
VStem: 111 180<190.423 785.026> 502 180<252.341 678.906> 1776 180<487.505 953.253>
LayerCount: 2
Fore
SplineSet
1354 -11 m 0xdf
 1200 -11 1168 47 1161 121 c 1
 1090 38 987 -11 854 -11 c 3
 643 -11 502 199 502 461 c 3
 502 805 763 1095 1011 1095 c 3xef
 1153 1095 1254 1035 1313 938 c 1
 1347 1062 l 1
 1526 1062 l 1
 1380 379 l 2
 1367 315 1358 265 1352 229 c 1
 1355 173 1400 137 1422 137 c 3
 1605 137 1776 482 1776 716 c 3
 1776 1102 1481 1345 1093 1345 c 3
 599 1345 291 975 291 485 c 3
 291 -11 594 -283 1120 -283 c 3
 1555 -283 1751 -87 1824 19 c 1
 2005 19 l 1
 1873 -253 1544 -431 1123 -431 c 3
 527 -431 111 -124 111 469 c 3
 111 1061 507 1493 1102 1493 c 3
 1586 1493 1956 1181 1956 713 c 3
 1956 365 1687 -11 1354 -11 c 0xdf
682 453 m 3
 682 271 766 137 891 137 c 3
 1107 137 1243 421 1243 649 c 3
 1243 882 1112 947 1024 947 c 3
 795 947 682 640 682 453 c 3
EndSplineSet
Validated: 1
EndChar

StartChar: A
Encoding: 65 65 37
Width: 1366
Flags: W
HStem: 0 21G<1 213.966 1151.03 1364> 477 170<464 901> 1430 20G<572.014 792.986>
DStem2: 1 0 206 0 0.370838 0.928697<76.0219 589.47 772.565 1360.48> 785 1450 682 1193 0.370838 -0.928697<200.479 788.761 971.857 1485.3>
LayerCount: 2
Fore
SplineSet
1364 0 m 1
 1159 0 l 1
 969 477 l 1
 396 477 l 1
 206 0 l 1
 1 0 l 1
 580 1450 l 1
 785 1450 l 1
 1364 0 l 1
682 1193 m 1
 464 647 l 1
 901 647 l 1
 682 1193 l 1
EndSplineSet
Validated: 1
EndChar

StartChar: B
Encoding: 66 66 38
Width: 1366
Flags: W
HStem: 0 170<344 953.151> 671 170<344 911.533> 1280 170<344 913.817>
VStem: 164 180<170 671 841 1280> 1006 180<924.311 1195.01> 1077 180<273.931 563.313>
LayerCount: 2
Fore
SplineSet
981 772 m 1xf8
 1189 711 1257 561 1257 417 c 3xf4
 1257 136 1055 0 709 0 c 2
 164 0 l 1
 164 1450 l 1
 709 1450 l 2
 995 1450 1186 1319 1186 1083 c 3
 1186 1004 1153 857 981 772 c 1xf8
344 841 m 1
 683 841 l 2
 890 841 1006 899 1006 1060 c 3xf8
 1006 1249 845 1280 709 1280 c 2
 344 1280 l 1
 344 841 l 1
344 170 m 1
 709 170 l 2
 1010 170 1077 291 1077 417 c 3xf4
 1077 601 940 671 683 671 c 2
 344 671 l 1
 344 170 l 1
EndSplineSet
Validated: 1
EndChar

StartChar: C
Encoding: 67 67 39
Width: 1479
Flags: W
HStem: -11 170<579.415 995.563> 1312 170<578.108 997.452>
VStem: 102 180<497.648 997.016> 1185 188<1055 1145.26> 1210 188<353.725 479>
LayerCount: 2
Fore
SplineSet
788 159 m 3xf0
 1024 159 1193 299 1210 479 c 1
 1398 479 l 1xe8
 1306 116 1054 -11 791 -11 c 3
 384 -11 102 258 102 747 c 3
 102 1193 389 1482 794 1482 c 3
 1141 1482 1311 1271 1373 1055 c 1
 1185 1055 l 1
 1123 1257 935 1312 790 1312 c 3
 472 1312 282 1067 282 748 c 3
 282 524 397 159 788 159 c 3xf0
EndSplineSet
Validated: 1
EndChar

StartChar: D
Encoding: 68 68 40
Width: 1479
Flags: W
HStem: 0 170<348 920.634> 1280 170<348 908.268>
VStem: 168 180<170 1280> 1200 180<464.523 995.687>
LayerCount: 2
Fore
SplineSet
1380 733 m 3
 1380 147 1054 0 697 0 c 2
 168 0 l 1
 168 1450 l 1
 673 1450 l 2
 1239 1450 1380 1142 1380 733 c 3
1200 736 m 3
 1200 1169 936 1280 670 1280 c 2
 348 1280 l 1
 348 170 l 1
 675 170 l 2
 980 170 1200 325 1200 736 c 3
EndSplineSet
Validated: 1
EndChar

StartChar: E
Encoding: 69 69 41
Width: 1322
Flags: W
HStem: 0 170<348 1228> 651 170<348 1027> 1280 170<348 1228>
VStem: 168 180<170 651 821 1280>
LayerCount: 2
Fore
SplineSet
168 0 m 1
 168 1450 l 1
 1228 1450 l 1
 1228 1280 l 1
 348 1280 l 1
 348 821 l 1
 1027 821 l 1
 1027 651 l 1
 348 651 l 1
 348 170 l 1
 1228 170 l 1
 1228 0 l 1
 168 0 l 1
EndSplineSet
Validated: 1
EndChar

StartChar: F
Encoding: 70 70 42
Width: 1251
Flags: W
HStem: 0 21G<168 348> 651 170<348 1009> 1280 170<348 1157>
VStem: 168 180<0 651 821 1280>
LayerCount: 2
Fore
SplineSet
168 0 m 1
 168 1450 l 1
 1157 1450 l 1
 1157 1280 l 1
 348 1280 l 1
 348 821 l 1
 1009 821 l 1
 1009 651 l 1
 348 651 l 1
 348 0 l 1
 168 0 l 1
EndSplineSet
Validated: 1
EndChar

StartChar: G
Encoding: 71 71 43
Width: 1479
Flags: W
HStem: -11 170<580.254 976.456> 514 170<905 1212> 1312 170<577.179 1000.06>
VStem: 102 180<499.218 997.67> 1185 188<1055 1145.26> 1212 192<367.844 514>
LayerCount: 2
Fore
SplineSet
282 748 m 3xf8
 282 523 396 159 788 159 c 3
 982 159 1212 297 1212 514 c 1
 905 514 l 1
 905 684 l 1
 1404 684 l 1xf4
 1404 192 1212 -11 791 -11 c 3
 432 -11 102 214 102 747 c 3
 102 1193 384 1482 794 1482 c 3
 1141 1482 1311 1271 1373 1055 c 1
 1185 1055 l 1
 1145 1189 1031 1312 790 1312 c 3
 472 1312 282 1070 282 748 c 3xf8
EndSplineSet
Validated: 1
EndChar

StartChar: H
Encoding: 72 72 44
Width: 1479
Flags: W
HStem: 0 21G<164 344 1134 1314> 673 170<344 1134> 1430 20G<164 344 1134 1314>
VStem: 164 180<0 673 843 1450> 1134 180<0 673 843 1450>
LayerCount: 2
Fore
SplineSet
164 0 m 1
 164 1450 l 1
 344 1450 l 1
 344 843 l 1
 1134 843 l 1
 1134 1450 l 1
 1314 1450 l 1
 1314 0 l 1
 1134 0 l 1
 1134 673 l 1
 344 673 l 1
 344 0 l 1
 164 0 l 1
EndSplineSet
Validated: 1
EndChar

StartChar: I
Encoding: 73 73 45
Width: 650
Flags: W
HStem: 0 170<25 235 415 625> 1280 170<25 235 415 625>
VStem: 235 180<170 1280>
LayerCount: 2
Fore
SplineSet
625 170 m 1
 625 0 l 1
 25 0 l 1
 25 170 l 1
 235 170 l 1
 235 1280 l 1
 25 1280 l 1
 25 1450 l 1
 625 1450 l 1
 625 1280 l 1
 415 1280 l 1
 415 170 l 1
 625 170 l 1
EndSplineSet
Validated: 1
EndChar

StartChar: J
Encoding: 74 74 46
Width: 1024
Flags: W
HStem: -11 170<331.137 605.525> 1280 170<408 685>
VStem: 64 180<251.534 454> 685 180<246.773 1280>
LayerCount: 2
Fore
SplineSet
865 1450 m 1
 865 455 l 2
 865 107 712 -11 463 -11 c 3
 126 -11 64 215 64 454 c 1
 244 454 l 1
 244 243 328 159 462 159 c 3
 616 159 685 255 685 407 c 2
 685 1280 l 1
 408 1280 l 1
 408 1450 l 1
 865 1450 l 1
EndSplineSet
Validated: 1
EndChar

StartChar: K
Encoding: 75 75 47
Width: 1366
Flags: W
HStem: 0 21G<150 330 1094.07 1346> 1430 20G<150 330 1049.68 1316>
VStem: 150 180<0 539 785 1450>
DStem2: 330 785 479 670 0.734489 0.67862<0 31.3976 219.908 996.273>
LayerCount: 2
Fore
SplineSet
150 0 m 1
 150 1450 l 1
 330 1450 l 1
 330 785 l 1
 1072 1450 l 1
 1316 1450 l 1
 610 806 l 1
 1346 0 l 1
 1113 0 l 1
 479 670 l 1
 330 539 l 1
 330 0 l 1
 150 0 l 1
EndSplineSet
Validated: 1
EndChar

StartChar: L
Encoding: 76 76 48
Width: 1139
Flags: W
HStem: 0 170<330 1060> 1430 20G<150 330>
VStem: 150 180<170 1450>
LayerCount: 2
Fore
SplineSet
150 0 m 1
 150 1450 l 1
 330 1450 l 1
 330 170 l 1
 1060 170 l 1
 1060 0 l 1
 150 0 l 1
EndSplineSet
Validated: 1
EndChar

StartChar: M
Encoding: 77 77 49
Width: 1706
Flags: W
HStem: 0 21G<152 332 698.241 1003.76 1370 1550> 1430 20G<152 339.882 1362.12 1550>
VStem: 152 180<0 964> 1370 180<0 964>
DStem2: 332 1450 332 964 0.366636 -0.930365<452.157 1415.57> 851 133 996 0 0.366636 0.930365<0 963.417>
LayerCount: 2
Fore
SplineSet
152 0 m 1
 152 1450 l 1
 332 1450 l 1
 851 133 l 1
 1370 1450 l 1
 1550 1450 l 1
 1550 0 l 1
 1370 0 l 1
 1370 964 l 1
 996 0 l 1
 706 0 l 1
 332 964 l 1
 332 0 l 1
 152 0 l 1
EndSplineSet
Validated: 1
EndChar

StartChar: N
Encoding: 78 78 50
Width: 1479
Flags: W
HStem: 0 21G<156 336 1117 1311> 1430 20G<156 350.009 1131 1311>
VStem: 156 180<0 1136> 1131 180<315 1450>
DStem2: 336 1450 336 1136 0.573366 -0.8193<257.26 1385.73>
LayerCount: 2
Fore
SplineSet
156 0 m 1
 156 1450 l 1
 336 1450 l 1
 1131 315 l 1
 1131 1450 l 1
 1311 1450 l 1
 1311 0 l 1
 1131 0 l 1
 336 1136 l 1
 336 0 l 1
 156 0 l 1
EndSplineSet
Validated: 1
EndChar

StartChar: O
Encoding: 79 79 51
Width: 1593
Flags: W
HStem: -11 170<580.446 1016.63> 1312 170<576.735 1021.93>
VStem: 104 180<477.07 986.608> 1316 180<473.723 988.648>
LayerCount: 2
Fore
SplineSet
800 -11 m 3
 370 -11 104 307 104 715 c 3
 104 1189 364 1482 801 1482 c 3
 1230 1482 1496 1177 1496 732 c 3
 1496 278 1212 -11 800 -11 c 3
802 1312 m 3
 404 1312 284 1003 284 712 c 3
 284 384 482 159 799 159 c 3
 1122 159 1316 385 1316 733 c 3
 1316 1073 1127 1312 802 1312 c 3
EndSplineSet
Validated: 1
EndChar

StartChar: P
Encoding: 80 80 52
Width: 1366
Flags: W
HStem: 0 21G<158 338> 580 170<338 959.72> 1280 170<338 970.26>
VStem: 158 180<0 580 750 1280> 1097 180<865.907 1171.6>
LayerCount: 2
Fore
SplineSet
158 0 m 1
 158 1450 l 1
 711 1450 l 2
 1185 1450 1277 1255 1277 1026 c 3
 1277 735 1105 580 728 580 c 2
 338 580 l 1
 338 0 l 1
 158 0 l 1
731 750 m 2
 925 750 1097 803 1097 1017 c 3
 1097 1172 1020 1280 727 1280 c 2
 338 1280 l 1
 338 750 l 1
 731 750 l 2
EndSplineSet
Validated: 1
EndChar

StartChar: Q
Encoding: 81 81 53
Width: 1659
Flags: W
HStem: -11 170<738.548 1026.97 1319.18 1522.09> 289 170<789.732 1022.03> 1312 170<577.477 1021.93>
VStem: 104 180<469.746 985.788> 1316 180<497.248 989.542>
LayerCount: 2
Fore
SplineSet
895 459 m 3
 1075 459 1174 367 1194 346 c 1
 1284 458 1316 643 1316 732 c 3
 1316 1080 1127 1312 802 1312 c 3
 404 1312 284 1002 284 711 c 3
 284 480 388 310 543 222 c 1
 586 386 751 459 895 459 c 3
1496 731 m 3
 1496 396 1390 241 1317 184 c 1
 1334 165 1358 159 1390 159 c 3
 1429 159 1488 176 1533 212 c 1
 1659 93 l 1
 1585 24 1498 -11 1399 -11 c 3
 1313 -11 1215 15 1156 87 c 1
 1052 21 962 -11 820 -11 c 3
 373 -11 104 284 104 714 c 3
 104 1188 368 1482 801 1482 c 3
 1230 1482 1496 1176 1496 731 c 3
1050 218 m 1
 1010 265 963 289 908 289 c 3
 770 289 738 166 738 166 c 1
 755 161 776 159 803 159 c 3
 923 159 1015 189 1050 218 c 1
EndSplineSet
Validated: 1
EndChar

StartChar: R
Encoding: 82 82 54
Width: 1400
Flags: W
HStem: 0 21G<158 338 1092.9 1387> 580 170<338 698> 1280 170<338 966.255>
VStem: 158 180<0 580 750 1280> 1097 180<868.171 1171.79>
LayerCount: 2
Fore
SplineSet
698 580 m 1
 338 580 l 1
 338 0 l 1
 158 0 l 1
 158 1450 l 1
 711 1450 l 2
 1175 1450 1277 1260 1277 1026 c 3
 1277 799 1151 630 924 596 c 1
 1387 0 l 1
 1107 0 l 1
 698 580 l 1
731 750 m 2
 925 750 1097 806 1097 1020 c 3
 1097 1155 1035 1280 727 1280 c 2
 338 1280 l 1
 338 750 l 1
 731 750 l 2
EndSplineSet
Validated: 1
EndChar

StartChar: S
Encoding: 83 83 55
Width: 1366
Flags: W
HStem: -11 170<483.435 928.655> 1312 170<447.473 862.804>
VStem: 92 183<359.099 502> 148 180<976.495 1204.83> 1029 186<1024 1154.16> 1079 180<284.955 532.685>
LayerCount: 2
Fore
SplineSet
1259 429 m 3xd4
 1259 157 1014 -11 717 -11 c 3
 203 -11 97 291 92 502 c 1
 275 502 l 1
 303 271 466 159 708 159 c 3
 897 159 1079 239 1079 413 c 3xe4
 1079 617 816 623 639 666 c 0
 384 728 148 805 148 1072 c 3
 148 1328 372 1482 664 1482 c 3
 964 1482 1192 1324 1215 1024 c 1
 1029 1024 l 1xd8
 1009 1196 880 1312 672 1312 c 3
 391 1312 328 1173 328 1085 c 3
 328 909 560 877 692 846 c 0
 884 802 1259 780 1259 429 c 3xd4
EndSplineSet
Validated: 1
EndChar

StartChar: T
Encoding: 84 84 56
Width: 1251
Flags: W
HStem: 0 21G<538 718> 1280 170<48 538 718 1210>
VStem: 538 180<0 1280>
LayerCount: 2
Fore
SplineSet
538 0 m 1
 538 1280 l 1
 48 1280 l 1
 48 1450 l 1
 1210 1450 l 1
 1210 1280 l 1
 718 1280 l 1
 718 0 l 1
 538 0 l 1
EndSplineSet
Validated: 1
EndChar

StartChar: U
Encoding: 85 85 57
Width: 1479
Flags: W
HStem: -11 170<514.014 961.818> 1430 20G<161 341 1134 1314>
VStem: 161 180<341.039 1450> 1134 180<341.039 1450>
LayerCount: 2
Fore
SplineSet
738 159 m 3
 1056 159 1134 336 1134 567 c 2
 1134 1450 l 1
 1314 1450 l 1
 1314 566 l 2
 1314 181 1120 -11 738 -11 c 3
 356 -11 161 181 161 566 c 2
 161 1450 l 1
 341 1450 l 1
 341 567 l 2
 341 336 420 159 738 159 c 3
EndSplineSet
Validated: 1
EndChar

StartChar: V
Encoding: 86 86 58
Width: 1366
Flags: W
HStem: 0 21G<569.166 783.917> 1430 20G<9 226.822 1143.89 1350>
DStem2: 219 1450 9 1450 0.364738 -0.93111<0 1257.38> 677 279 776 0 0.368072 0.929797<0 1263.63>
LayerCount: 2
Fore
SplineSet
577 0 m 1
 9 1450 l 1
 219 1450 l 1
 677 279 l 1
 1152 1450 l 1
 1350 1450 l 1
 776 0 l 1
 577 0 l 1
EndSplineSet
Validated: 1
EndChar

StartChar: W
Encoding: 87 87 59
Width: 1933
Flags: W
HStem: 0 21G<408.634 617.966 1304.03 1513.37> 1430 20G<25 229.453 827.943 1094.06 1692.55 1897>
DStem2: 224 1450 25 1450 0.259113 -0.965847<0 1098.68> 513 390 612 0 0.285845 0.958276<0 875.514> 1088 1450 961 1170 0.285845 -0.958276<232.015 1107.53> 1409 390 1508 0 0.259113 0.965847<0 1098.68>
LayerCount: 2
Fore
SplineSet
414 0 m 1
 25 1450 l 1
 224 1450 l 1
 513 390 l 1
 834 1450 l 1
 1088 1450 l 1
 1409 390 l 1
 1698 1450 l 1
 1897 1450 l 1
 1508 0 l 1
 1310 0 l 1
 961 1170 l 1
 612 0 l 1
 414 0 l 1
EndSplineSet
Validated: 1
EndChar

StartChar: X
Encoding: 88 88 60
Width: 1366
Flags: W
HStem: 0 21G<9 253.421 1108.58 1353> 1430 20G<76 319.686 1068.33 1313>
DStem2: 9 0 239 0 0.595201 0.803577<136.896 892.568 1124.8 1804.43> 306 1450 76 1450 0.585409 -0.810738<0 663.813 898.116 1653.85>
LayerCount: 2
Fore
SplineSet
9 0 m 1
 564 756 l 1
 76 1450 l 1
 306 1450 l 1
 681 902 l 1
 1083 1450 l 1
 1313 1450 l 1
 798 756 l 1
 1353 0 l 1
 1123 0 l 1
 681 613 l 1
 239 0 l 1
 9 0 l 1
EndSplineSet
Validated: 1
EndChar

StartChar: Y
Encoding: 89 89 61
Width: 1366
Flags: W
HStem: 0 21G<585 765> 1431 20G<6 249.962 1106.16 1350>
VStem: 585 180<0 621>
DStem2: 236 1451 6 1451 0.572135 -0.820159<0 775.649> 680 815 765 621 0.576103 0.817377<0 773.337>
LayerCount: 2
Fore
SplineSet
585 0 m 1
 585 621 l 1
 6 1451 l 1
 236 1451 l 1
 680 815 l 1
 1120 1451 l 1
 1350 1451 l 1
 765 621 l 1
 765 0 l 1
 585 0 l 1
EndSplineSet
Validated: 1
EndChar

StartChar: Z
Encoding: 90 90 62
Width: 1251
Flags: W
HStem: 0 170<325 1200> 1280 170<45 945>
LayerCount: 2
Fore
SplineSet
41 0 m 1
 41 177 l 1
 945 1280 l 1
 45 1280 l 1
 45 1450 l 1
 1213 1450 l 1
 1213 1280 l 1
 325 170 l 1
 1200 170 l 1
 1200 0 l 1
 41 0 l 1
EndSplineSet
Validated: 1
EndChar

StartChar: bracketleft
Encoding: 91 91 63
Width: 569
Flags: W
HStem: -407 148<319 536> 1318 148<319 536>
VStem: 139 397<-407 -259 1318 1466> 139 180<-259 1318>
LayerCount: 2
Fore
SplineSet
139 -407 m 1xe0
 139 1466 l 1
 536 1466 l 1
 536 1318 l 1xe0
 319 1318 l 1
 319 -259 l 1xd0
 536 -259 l 1
 536 -407 l 1
 139 -407 l 1xe0
EndSplineSet
Validated: 1
EndChar

StartChar: backslash
Encoding: 92 92 64
Width: 569
Flags: W
VStem: 0 569
DStem2: 145 1491 0 1491 0.269936 -0.962878<0 1535.31>
LayerCount: 2
Fore
SplineSet
425 -25 m 1
 0 1491 l 1
 145 1491 l 1
 569 -25 l 1
 425 -25 l 1
EndSplineSet
Validated: 1
EndChar

StartChar: bracketright
Encoding: 93 93 65
Width: 569
Flags: W
HStem: -407 148<39 256> 1318 148<39 256>
VStem: 39 397<-407 -259 1318 1466> 256 180<-259 1318>
LayerCount: 2
Fore
SplineSet
436 -407 m 1xe0
 39 -407 l 1
 39 -259 l 1xe0
 256 -259 l 1
 256 1318 l 1xd0
 39 1318 l 1
 39 1466 l 1
 436 1466 l 1
 436 -407 l 1xe0
EndSplineSet
Validated: 1
EndChar

StartChar: asciicircum
Encoding: 94 94 66
Width: 961
Flags: W
DStem2: 54 690 239 690 0.403275 0.915079<74.6058 672.855> 552 1491 479 1238 0.405185 -0.914235<201.723 802.804>
LayerCount: 2
Fore
SplineSet
239 690 m 1
 54 690 l 1
 407 1491 l 1
 552 1491 l 1
 907 690 l 1
 726 690 l 1
 479 1238 l 1
 239 690 l 1
EndSplineSet
Validated: 1
EndChar

StartChar: underscore
Encoding: 95 95 67
Width: 1139
Flags: W
HStem: -407 148<-31 1162>
LayerCount: 2
Fore
SplineSet
-31 -407 m 1
 -31 -259 l 1
 1162 -259 l 1
 1162 -407 l 1
 -31 -407 l 1
EndSplineSet
Validated: 1
EndChar

StartChar: grave
Encoding: 96 96 68
Width: 682
Flags: W
HStem: 1194 280<320 330>
VStem: 89 376
LayerCount: 2
Fore
SplineSet
465 1194 m 1
 320 1194 l 1
 89 1474 l 1
 330 1474 l 1
 465 1194 l 1
EndSplineSet
Validated: 1
EndChar

StartChar: a
Encoding: 97 97 69
Width: 1139
Flags: W
HStem: -11 148<316.733 658.43> 539 148<666.883 815> 947 148<374.182 730.104>
VStem: 74 180<199.274 391.245> 105 176<766.045 848.373> 815 180<281.098 539 673.298 867.647>
LayerCount: 2
Fore
SplineSet
995 458 m 2xec
 995 166 1000 93 1052 0 c 1
 866 0 l 1
 847 37 835 81 830 131 c 1
 734 62 616 -11 437 -11 c 3
 149 -11 74 168 74 293 c 3xf4
 74 415 146 548 332 598 c 0
 451 629 661 634 815 687 c 1
 815 828 785 947 558 947 c 3
 389 947 318 892 281 744 c 1
 105 768 l 1
 146 999 321 1095 584 1095 c 3
 969 1095 995 915 995 694 c 2
 995 458 l 2xec
254 293 m 3
 254 243 301 137 474 137 c 3
 695 137 815 254 815 463 c 2
 815 539 l 1
 584 443 254 491 254 293 c 3
EndSplineSet
Validated: 1
EndChar

StartChar: b
Encoding: 98 98 70
Width: 1139
Flags: W
HStem: -11 148<454.475 727.439> 947 148<463.363 729.99> 1446 20G<134 314>
VStem: 134 180<0 119 302.818 765.164 951 1466> 875 180<310.284 777.634>
LayerCount: 2
Fore
SplineSet
596 -11 m 3
 419 -11 330 82 301 119 c 1
 301 0 l 1
 134 0 l 1
 134 1466 l 1
 314 1466 l 1
 314 951 l 1
 390 1046 487 1095 605 1095 c 3
 887 1095 1055 863 1055 551 c 3
 1055 232 893 -11 596 -11 c 3
589 947 m 3
 426 947 312 756 312 546 c 3
 312 231 473 137 581 137 c 3
 777 137 875 313 875 539 c 3
 875 859 707 947 589 947 c 3
EndSplineSet
Validated: 1
EndChar

StartChar: c
Encoding: 99 99 71
Width: 1024
Flags: W
HStem: -11 148<422.071 715.546> 947 148<411.862 709.463>
VStem: 80 180<313.176 776.512> 828 177<246.257 402 705 824.422>
LayerCount: 2
Fore
SplineSet
561 137 m 3
 683 137 823 202 828 402 c 1
 1005 402 l 1
 997 136 829 -11 563 -11 c 3
 310 -11 80 178 80 531 c 3
 80 871 252 1095 564 1095 c 3
 947 1095 1003 816 1003 705 c 1
 828 705 l 1
 816 825 714 947 571 947 c 3
 366 947 260 790 260 536 c 3
 260 229 442 137 561 137 c 3
EndSplineSet
Validated: 1
EndChar

StartChar: d
Encoding: 100 100 72
Width: 1139
Flags: W
HStem: -11 148<397.243 653.989> 947 148<388.572 668.335> 1446 20G<806 991>
VStem: 70 180<305.841 780.713> 811 180<0 122 321.051 766.225 966 1466>
LayerCount: 2
Fore
SplineSet
514 1095 m 3
 690 1095 763 1022 806 966 c 1
 806 1466 l 1
 991 1466 l 1
 991 0 l 1
 818 0 l 1
 818 122 l 1
 758 34 660 -11 522 -11 c 3
 239 -11 70 223 70 534 c 3
 70 852 223 1095 514 1095 c 3
539 947 m 3
 308 947 250 720 250 542 c 3
 250 222 423 137 539 137 c 3
 653 137 811 285 811 527 c 3
 811 788 691 947 539 947 c 3
EndSplineSet
Validated: 1
EndChar

StartChar: e
Encoding: 101 101 73
Width: 1139
Flags: W
HStem: -11 148<413.897 748.439> 490 148<271 862> 947 148<421.526 732.184>
VStem: 75 192<299.922 490 638 783.409> 862 186<249.388 333>
LayerCount: 2
Fore
SplineSet
267 490 m 1
 273 218 435 137 582 137 c 3
 732 137 825 214 862 333 c 1
 1048 333 l 1
 1008 124 836 -11 581 -11 c 3
 259 -11 75 188 75 527 c 0
 75 864 253 1095 571 1095 c 3
 880 1095 1053 887 1053 490 c 1
 267 490 l 1
862 638 m 1
 852 760 804 947 573 947 c 3
 403 947 281 806 271 638 c 1
 862 638 l 1
EndSplineSet
Validated: 1
EndChar

StartChar: f
Encoding: 102 102 74
Width: 569
Flags: W
HStem: 0 21G<177 357> 914 148<19 177 357 536> 1367 148<400.399 637.405>
VStem: 177 180<0 914 1062 1325.02>
LayerCount: 2
Fore
SplineSet
493 1367 m 3
 415 1367 357 1308 357 1160 c 2
 357 1062 l 1
 536 1062 l 1
 536 914 l 1
 357 914 l 1
 357 0 l 1
 177 0 l 1
 177 914 l 1
 19 914 l 1
 19 1062 l 1
 177 1062 l 1
 177 1175 l 2
 177 1447 355 1515 487 1515 c 3
 538 1515 589 1506 640 1488 c 1
 640 1340 l 1
 580 1360 539 1367 493 1367 c 3
EndSplineSet
Validated: 1
EndChar

StartChar: g
Encoding: 103 103 75
Width: 1139
Flags: W
HStem: -428 148<362.163 690.753> -11 148<386.344 687.625> 947 148<394.774 674.607> 1042 20G<822 1002>
VStem: 66 180<303.078 769.362> 97 180<-199.292 -74> 822 180<-130.521 128 296.513 775.751 974 1062>
LayerCount: 2
Fore
SplineSet
1002 133 m 2xda
 1002 -296 859 -428 522 -428 c 3
 277 -428 97 -309 97 -74 c 1
 277 -74 l 1xd6
 277 -220 400 -280 521 -280 c 3
 760 -280 822 -113 822 128 c 1
 743 35 642 -11 525 -11 c 3
 239 -11 66 222 66 536 c 3
 66 853 235 1095 526 1095 c 3xea
 667 1095 770 1049 822 974 c 1
 822 1062 l 1
 1002 1062 l 1
 1002 133 l 2xda
536 947 m 3xea
 346 947 246 765 246 546 c 3
 246 318 330 137 539 137 c 3
 726 137 822 294 822 540 c 3
 822 859 649 947 536 947 c 3xea
EndSplineSet
Validated: 1
EndChar

StartChar: h
Encoding: 104 104 76
Width: 1139
Flags: W
HStem: 0 21G<135 315 820 1000> 947 148<434.207 736.96> 1446 20G<135 315>
VStem: 135 180<0 812.97 970 1466> 820 180<0 860.362>
LayerCount: 2
Fore
SplineSet
596 947 m 3
 406 947 315 821 315 597 c 2
 315 0 l 1
 135 0 l 1
 135 1466 l 1
 315 1466 l 1
 315 970 l 1
 381 1057 495 1095 600 1095 c 3
 920 1095 1000 855 1000 673 c 2
 1000 0 l 1
 820 0 l 1
 820 689 l 2
 820 861 745 947 596 947 c 3
EndSplineSet
Validated: 1
EndChar

StartChar: i
Encoding: 105 105 77
Width: 455
Flags: W
HStem: 0 21G<136 316> 1042 20G<136 316> 1259 207<136 316>
VStem: 136 180<0 1062 1259 1466>
LayerCount: 2
Fore
SplineSet
136 1259 m 1
 136 1466 l 1
 316 1466 l 1
 316 1259 l 1
 136 1259 l 1
136 0 m 1
 136 1062 l 1
 316 1062 l 1
 316 0 l 1
 136 0 l 1
EndSplineSet
Validated: 1
EndChar

StartChar: j
Encoding: 106 106 78
Width: 455
Flags: W
HStem: -428 148<-92.0353 93.2457> 1042 20G<134 314> 1257 209<134 314>
VStem: 134 180<-241.922 1062 1257 1466>
LayerCount: 2
Fore
SplineSet
134 1257 m 1
 134 1466 l 1
 314 1466 l 1
 314 1257 l 1
 134 1257 l 1
314 -58 m 2
 314 -336 204 -428 39 -428 c 3
 -1 -428 -45 -423 -94 -412 c 1
 -94 -272 l 1
 -59 -277 -30 -280 -7 -280 c 3
 90 -280 134 -223 134 -54 c 2
 134 1062 l 1
 314 1062 l 1
 314 -58 l 2
EndSplineSet
Validated: 1
EndChar

StartChar: k
Encoding: 107 107 79
Width: 1024
Flags: W
HStem: 0 21G<136 316 781.072 1016> 1042 20G<722.278 975> 1446 20G<136 316>
VStem: 136 180<0 421 630 1466>
DStem2: 316 630 443 543 0.716829 0.697249<0 30.3766 207.853 606.581> 569 668 443 543 0.556135 -0.831092<33.8135 680.3>
LayerCount: 2
Fore
SplineSet
136 0 m 1
 136 1466 l 1
 316 1466 l 1
 316 630 l 1
 742 1062 l 1
 975 1062 l 1
 569 668 l 1
 1016 0 l 1
 794 0 l 1
 443 543 l 1
 316 421 l 1
 316 0 l 1
 136 0 l 1
EndSplineSet
Validated: 1
EndChar

StartChar: l
Encoding: 108 108 80
Width: 455
Flags: W
HStem: 0 21G<131 311> 1446 20G<131 311>
VStem: 131 180<0 1466>
LayerCount: 2
Fore
SplineSet
131 0 m 1
 131 1466 l 1
 311 1466 l 1
 311 0 l 1
 131 0 l 1
EndSplineSet
Validated: 1
EndChar

StartChar: m
Encoding: 109 109 81
Width: 1706
Flags: W
HStem: 0 21G<135 315 764 944 1393 1573> 947 148<439.879 707.227 1066.65 1333.26> 1042 20G<135 315>
VStem: 135 180<0 814.762 939 1062> 764 180<0 828.895> 1393 180<0 882.96>
CounterMasks: 1 1c
LayerCount: 2
Fore
SplineSet
764 707 m 2xdc
 764 891 691 947 578 947 c 3xdc
 377 947 315 791 315 568 c 2
 315 0 l 1
 135 0 l 1
 135 1062 l 1
 315 1062 l 1xbc
 315 939 l 1
 346 972 425 1095 618 1095 c 3
 793 1095 879 1013 916 909 c 1
 1000 1033 1110 1095 1245 1095 c 3
 1442 1095 1573 993 1573 736 c 2
 1573 0 l 1
 1393 0 l 1
 1393 686 l 2
 1393 872 1340 947 1205 947 c 3
 1115 947 944 910 944 634 c 2
 944 0 l 1
 764 0 l 1
 764 707 l 2xdc
EndSplineSet
Validated: 1
EndChar

StartChar: n
Encoding: 110 110 82
Width: 1139
Flags: W
HStem: 0 21G<135 315 820 1000> 947 148<434.207 736.96> 1044 20G<135 315>
VStem: 135 180<0 812.97 970 1064> 820 180<0 860.362>
LayerCount: 2
Fore
SplineSet
596 947 m 3xd8
 406 947 315 821 315 597 c 2
 315 0 l 1
 135 0 l 1
 135 1064 l 1
 315 1064 l 1xb8
 315 970 l 1
 381 1057 495 1095 600 1095 c 3
 920 1095 1000 855 1000 673 c 2
 1000 0 l 1
 820 0 l 1
 820 689 l 2
 820 861 745 947 596 947 c 3xd8
EndSplineSet
Validated: 1
EndChar

StartChar: o
Encoding: 111 111 83
Width: 1139
Flags: W
HStem: -11 148<402.579 730.407> 947 148<410.018 717.572>
VStem: 68 180<306.376 764.63> 883 180<312.285 765.53>
LayerCount: 2
Fore
SplineSet
566 -11 m 3
 246 -11 68 195 68 536 c 3
 68 872 244 1095 566 1095 c 3
 874 1095 1063 879 1063 551 c 3
 1063 121 820 -11 566 -11 c 3
566 947 m 3
 358 947 248 778 248 536 c 3
 248 206 441 137 566 137 c 3
 775 137 883 298 883 542 c 3
 883 863 691 947 566 947 c 3
EndSplineSet
Validated: 1
EndChar

StartChar: p
Encoding: 112 112 84
Width: 1139
Flags: W
HStem: -11 148<447.364 716.964> 947 148<440.457 715.104> 1042 20G<122 302>
VStem: 122 180<-390 133 320.154 781.182 972 1062> 863 180<312.686 772.025>
LayerCount: 2
Fore
SplineSet
1043 533 m 3xd8
 1043 222 875 -11 593 -11 c 3
 475 -11 378 38 302 133 c 1
 302 -390 l 1
 122 -390 l 1
 122 1062 l 1
 302 1062 l 1xb8
 302 972 l 1
 331 999 407 1095 584 1095 c 3
 881 1095 1043 856 1043 533 c 3xd8
566 947 m 3xd8
 458 947 302 853 302 538 c 3
 302 331 408 137 574 137 c 3
 692 137 863 225 863 545 c 3
 863 741 781 947 566 947 c 3xd8
EndSplineSet
Validated: 1
EndChar

StartChar: q
Encoding: 113 113 85
Width: 1139
Flags: W
HStem: -11 148<413.036 679.655> 947 148<415.332 689.543> 1042 20G<828 1008>
VStem: 87 180<312.475 772.025> 828 180<-390 133 318.836 781.182 972 1062>
LayerCount: 2
Fore
SplineSet
546 1095 m 3xd8
 723 1095 799 999 828 972 c 1
 828 1062 l 1
 1008 1062 l 1xb8
 1008 -390 l 1
 828 -390 l 1
 828 133 l 1
 752 38 655 -11 537 -11 c 3
 255 -11 87 221 87 533 c 3
 87 852 249 1095 546 1095 c 3xd8
556 137 m 3
 719 137 828 328 828 538 c 3
 828 853 672 947 564 947 c 3xd8
 351 947 267 745 267 545 c 3
 267 225 438 137 556 137 c 3
EndSplineSet
Validated: 1
EndChar

StartChar: r
Encoding: 114 114 86
Width: 682
Flags: W
HStem: 0 21G<133 313> 947 148<408.002 665.328> 1042 20G<133 313>
VStem: 133 180<0 828.466 972 1062>
LayerCount: 2
Fore
SplineSet
518 947 m 3xd0
 395 947 313 821 313 575 c 2
 313 0 l 1
 133 0 l 1
 133 1062 l 1
 313 1062 l 1xb0
 313 972 l 1
 344 1008 416 1095 533 1095 c 3
 598 1095 657 1079 710 1046 c 1
 648 908 l 1
 604 934 561 947 518 947 c 3xd0
EndSplineSet
Validated: 1
EndChar

StartChar: s
Encoding: 115 115 87
Width: 1024
Flags: W
HStem: -11 148<343.393 680.567> 947 148<340.672 654.558>
VStem: 63 178<244.532 358> 93 180<702.811 883.151> 729 176<769 876.695> 765 180<211.267 397.956>
LayerCount: 2
Fore
SplineSet
945 325 m 3xd4
 945 123 764 -11 517 -11 c 3
 247 -11 79 119 63 358 c 1
 241 358 l 1
 260 219 352 137 516 137 c 3
 652 137 765 213 765 306 c 3xe4
 765 414 651 444 517 470 c 0
 293 513 93 548 93 785 c 3
 93 992 271 1095 484 1095 c 3
 835 1095 905 872 905 769 c 1
 729 769 l 1xd8
 714 878 645 947 499 947 c 3
 375 947 273 887 273 783 c 3
 273 692 365 668 517 639 c 0
 728 599 945 568 945 325 c 3xd4
EndSplineSet
Validated: 1
EndChar

StartChar: t
Encoding: 116 116 88
Width: 569
Flags: W
HStem: -11 148<363.667 531.161> 914 148<18 167 347 497>
VStem: 167 180<151.382 914 1062 1433>
LayerCount: 2
Fore
SplineSet
347 295 m 2
 347 201 353 137 449 137 c 3
 466 137 492 140 528 145 c 1
 554 4 l 1
 506 -6 458 -11 411 -11 c 3
 203 -11 167 102 167 313 c 2
 167 914 l 1
 18 914 l 1
 18 1062 l 1
 167 1062 l 1
 167 1433 l 1
 347 1433 l 1
 347 1062 l 1
 497 1062 l 1
 497 914 l 1
 347 914 l 1
 347 295 l 2
EndSplineSet
Validated: 1
EndChar

StartChar: u
Encoding: 117 117 89
Width: 1139
Flags: W
HStem: -11 148<379.908 700.51> 1042 20G<104 284 789 969>
VStem: 104 180<233.576 1062> 789 180<0 63 226.897 1062>
LayerCount: 2
Fore
SplineSet
284 397 m 2
 284 189 422 137 534 137 c 3
 704 137 789 222 789 392 c 2
 789 1062 l 1
 969 1062 l 1
 969 0 l 1
 789 0 l 1
 789 63 l 1
 746 15 662 -11 541 -11 c 3
 255 -11 104 163 104 411 c 2
 104 1062 l 1
 284 1062 l 1
 284 397 l 2
EndSplineSet
Validated: 1
EndChar

StartChar: v
Encoding: 118 118 90
Width: 1024
Flags: W
HStem: 0 21G<421.411 606.552> 1042 20G<26 223.667 802.686 1000>
DStem2: 216 1062 26 1062 0.354787 -0.934947<0 849.268> 520 269 599 0 0.353246 0.93553<0 844.317>
LayerCount: 2
Fore
SplineSet
429 0 m 1
 26 1062 l 1
 216 1062 l 1
 520 269 l 1
 810 1062 l 1
 1000 1062 l 1
 599 0 l 1
 429 0 l 1
EndSplineSet
Validated: 1
EndChar

StartChar: w
Encoding: 119 119 91
Width: 1479
Flags: W
HStem: 0 21G<324.879 524.41 969.415 1168.65> 1042 20G<6 197.686 642.51 837.809 1282.63 1463>
DStem2: 192 1062 6 1062 0.29263 -0.956226<0 848.17> 424 246 519 0 0.261117 0.965307<0 633.703> 832 1062 740 817 0.27643 -0.961034<210.022 849.718> 1069 246 1163 0 0.271848 0.96234<0 844.804>
LayerCount: 2
Fore
SplineSet
331 0 m 1
 6 1062 l 1
 192 1062 l 1
 424 246 l 1
 648 1062 l 1
 832 1062 l 1
 1069 246 l 1
 1288 1062 l 1
 1463 1062 l 1
 1163 0 l 1
 975 0 l 1
 901 265 l 1
 798 623 744 807 740 817 c 1
 519 0 l 1
 331 0 l 1
EndSplineSet
Validated: 1
EndChar

StartChar: x
Encoding: 120 120 92
Width: 1024
Flags: W
HStem: 0 21G<15 245.983 774.492 1009> 1042 20G<44 281.5 751.489 981>
DStem2: 15 0 233 0 0.577377 0.816478<125.868 125.868 846.086 1300.71> 607 562 505 419 0.573773 -0.819014<58.5942 564.139>
LayerCount: 2
Fore
SplineSet
15 0 m 1
 396 552 l 1
 44 1062 l 1
 269 1062 l 1
 499 694 l 1
 766 1062 l 1
 981 1062 l 1
 607 562 l 1
 1009 0 l 1
 788 0 l 1
 505 419 l 1
 233 0 l 1
 15 0 l 1
EndSplineSet
Validated: 1
EndChar

StartChar: y
Encoding: 121 121 93
Width: 1024
Flags: W
HStem: -428 148<127 350.528> 1042 20G<33 233.922 819.008 1006>
DStem2: 227 1062 33 1062 0.354204 -0.935168<0 910.733> 525 201 602 -1 0.355264 0.934766<0 911.768>
LayerCount: 2
Fore
SplineSet
127 -415 m 1
 107 -266 l 1
 141 -275 177 -280 214 -280 c 3
 412 -280 431 -111 436 -2 c 1
 33 1062 l 1
 227 1062 l 1
 525 201 l 1
 826 1062 l 1
 1006 1062 l 1
 602 -1 l 1
 583 -181 532 -428 239 -428 c 3
 197 -428 157 -427 127 -415 c 1
EndSplineSet
Validated: 1
EndChar

StartChar: z
Encoding: 122 122 94
Width: 1024
Flags: W
HStem: 0 148<262 980> 914 148<60 716>
DStem2: 40 148 262 148 0.667136 0.744936<148.104 1021.6>
LayerCount: 2
Fore
SplineSet
40 0 m 1
 40 148 l 1
 716 914 l 1
 60 914 l 1
 60 1062 l 1
 948 1062 l 1
 948 914 l 1
 262 148 l 1
 980 148 l 1
 980 0 l 1
 40 0 l 1
EndSplineSet
Validated: 1
EndChar

StartChar: braceleft
Encoding: 123 123 95
Width: 684
Flags: W
HStem: -431 148<480.289 636> 456 148<57 179.009> 1343 148<480.289 636>
VStem: 264 180<-248.841 368.868 696.115 1311.56>
CounterMasks: 1 e0
LayerCount: 2
Fore
SplineSet
57 604 m 1
 251 626 264 757 264 998 c 3
 264 1335 280 1491 580 1491 c 2
 636 1491 l 1
 636 1343 l 1
 605 1343 l 2
 461 1343 441 1330 441 975 c 3
 441 685 395 620 235 530 c 1
 402 454 444 344 444 80 c 3
 444 -248 461 -283 605 -283 c 2
 636 -283 l 1
 636 -431 l 1
 580 -431 l 2
 280 -431 264 -262 264 49 c 3
 264 315 257 430 57 456 c 1
 57 604 l 1
EndSplineSet
Validated: 1
EndChar

StartChar: bar
Encoding: 124 124 96
Width: 532
Flags: W
VStem: 176 180<-431 1491>
LayerCount: 2
Fore
SplineSet
176 -431 m 1
 176 1491 l 1
 356 1491 l 1
 356 -431 l 1
 176 -431 l 1
EndSplineSet
Validated: 1
EndChar

StartChar: braceright
Encoding: 125 125 97
Width: 684
Flags: W
HStem: -431 148<48 203.711> 456 148<504.991 627> 1343 148<48 203.711>
VStem: 240 180<-248.841 368.868 696.115 1311.56>
CounterMasks: 1 e0
LayerCount: 2
Fore
SplineSet
627 604 m 1
 627 456 l 1
 427 430 420 315 420 49 c 3
 420 -262 404 -431 104 -431 c 2
 48 -431 l 1
 48 -283 l 1
 79 -283 l 2
 223 -283 240 -248 240 80 c 3
 240 344 282 454 449 530 c 1
 289 620 243 685 243 975 c 3
 243 1330 223 1343 79 1343 c 2
 48 1343 l 1
 48 1491 l 1
 104 1491 l 2
 404 1491 420 1335 420 998 c 3
 420 757 433 626 627 604 c 1
EndSplineSet
Validated: 1
EndChar

StartChar: asciitilde
Encoding: 126 126 98
Width: 1196
Flags: W
HStem: 568 170<688.953 994.271> 702 170<197.32 520.352>
LayerCount: 2
Fore
SplineSet
348 702 m 3x40
 246 702 178 654 87 566 c 1
 87 752 l 1
 158 832 250 872 365 872 c 3x40
 559 872 716 738 852 738 c 3
 955 738 1055 816 1110 875 c 1
 1110 682 l 1
 1025 603 944 568 833 568 c 3x80
 635 568 510 702 348 702 c 3x40
EndSplineSet
Validated: 1
EndChar

StartChar: exclamdown
Encoding: 161 161 100
Width: 569
Flags: W
HStem: 0 21G<198 378> 1065 20G<240.612 335.388> 1256 194<198 378>
VStem: 198 180<0 657.569 1256 1450>
LayerCount: 2
Fore
SplineSet
198 451 m 1
 242 1085 l 1
 334 1085 l 1
 378 451 l 1
 378 0 l 1
 198 0 l 1
 198 451 l 1
198 1256 m 1
 198 1450 l 1
 378 1450 l 1
 378 1256 l 1
 198 1256 l 1
EndSplineSet
Validated: 1
EndChar

StartChar: cent
Encoding: 162 162 101
Width: 1118
Flags: W
HStem: 3 150<449.651 524 704 840.938> 965 149<443.208 524 704 840.707> 1455 20G<524 704>
VStem: 114 180<320.93 799.705> 524 180<-361 7.89771 159 961 1110 1475>
LayerCount: 2
Back
SplineSet
524 1475 m 1
 704 1475 l 1
 704 -361 l 1
 524 -361 l 1
 524 1475 l 1
614 148 m 3
 720 148 821 159 965 281 c 1
 975 281 l 1
 975 83 l 1
 807 5 720 0 614 0 c 3
 274 0 114 242 114 557 c 3
 114 888 302 1119 614 1119 c 3
 759 1119 890 1081 975 1037 c 1
 975 837 l 1
 965 837 l 1
 820 958 712 971 614 971 c 3
 488 971 294 917 294 557 c 3
 294 286 420 148 614 148 c 3
EndSplineSet
Fore
SplineSet
524 1475 m 1
 704 1475 l 1
 704 1114 l 1
 812 1102 908 1072 975 1037 c 1
 975 837 l 1
 965 837 l 1
 863 922 779 954 704 965 c 1
 704 153 l 1
 781 163 862 194 965 281 c 1
 975 281 l 1
 975 83 l 1
 856 28 777 9 704 3 c 1
 704 -361 l 1
 524 -361 l 1
 524 6 l 1
 246 45 114 271 114 557 c 3
 114 855 266 1072 524 1112 c 1
 524 1475 l 1
524 961 m 1
 412 933 294 838 294 557 c 3
 294 331 382 197 524 159 c 1
 524 961 l 1
EndSplineSet
Validated: 1
EndChar

StartChar: sterling
Encoding: 163 163 102
Width: 1118
Flags: W
HStem: 0 206<89 174.079> 0 170<261 1031> 597 170<130 291 471 847> 1264 206<914.559 1001> 1348 170<575.821 919.925>
VStem: 291 180<360.402 597 767 1233.56>
LayerCount: 2
Fore
SplineSet
471 552 m 2x2c
 471 330 322 217 261 181 c 1
 261 170 l 1
 1031 170 l 1
 1031 0 l 1x6c
 89 0 l 1
 89 206 l 1
 253 255 291 398 291 597 c 1
 130 597 l 1
 130 767 l 1
 291 767 l 1
 291 1071 l 2
 291 1340 459 1518 708 1518 c 3xac
 789 1518 838 1516 1001 1470 c 1
 1001 1264 l 1
 991 1264 l 1x34
 903 1325 806 1348 727 1348 c 3
 553 1348 471 1232 471 1052 c 2
 471 767 l 1
 847 767 l 1
 847 597 l 1
 471 597 l 1
 471 552 l 2x2c
EndSplineSet
Validated: 1
EndChar

StartChar: currency
Encoding: 164 164 103
Width: 1118
Flags: W
HStem: 326 170<455.259 666.078> 826 170<455.844 666.221>
VStem: 225 180<546.034 774.778> 716 180<546.103 776.687>
DStem2: 172 1157 65 1051 0.707506 -0.706707<0 314.361 937.953 1251.49> 65 273 170 164 0.706708 0.707505<0 313.918 936.496 1249.46>
LayerCount: 2
Fore
SplineSet
896 661 m 3
 896 608 881 545 843 486 c 1
 1057 272 l 1
 951 166 l 1
 737 378 l 1
 674 340 631 326 560 326 c 3
 490 326 426 353 385 379 c 1
 170 164 l 1
 65 273 l 1
 277 486 l 1
 240 546 225 613 225 661 c 3
 225 730 249 788 278 835 c 1
 65 1051 l 1
 172 1157 l 1
 386 944 l 1
 445 982 508 996 560 996 c 3
 630 996 692 971 736 945 c 1
 948 1157 l 1
 1057 1052 l 1
 843 836 l 1
 878 780 896 731 896 661 c 3
560 496 m 3
 640 496 716 563 716 661 c 3
 716 756 643 826 560 826 c 3
 481 826 405 759 405 661 c 3
 405 566 478 496 560 496 c 3
EndSplineSet
Validated: 1
EndChar

StartChar: yen
Encoding: 165 165 104
Width: 1118
Flags: W
HStem: 0 21G<469 649> 424 170<125 469 649 993>
VStem: 469 180<0 424 594 657>
DStem2: 266 1489 56 1489 0.446353 -0.894857<0 656.509> 560 902 647 678 0.452921 0.891551<0 658.311>
LayerCount: 2
Fore
SplineSet
1059 1489 m 1
 647 678 l 1
 647 594 l 1
 993 594 l 1
 993 424 l 1
 649 424 l 1
 649 0 l 1
 469 0 l 1
 469 424 l 1
 125 424 l 1
 125 594 l 1
 471 594 l 1
 471 657 l 1
 56 1489 l 1
 266 1489 l 1
 560 902 l 1
 858 1489 l 1
 1059 1489 l 1
EndSplineSet
Validated: 1
EndChar

StartChar: brokenbar
Encoding: 166 166 105
Width: 783
Flags: W
VStem: 302 180<-392 406 758 1556>
LayerCount: 2
Fore
SplineSet
482 758 m 1
 302 758 l 1
 302 1556 l 1
 482 1556 l 1
 482 758 l 1
482 -392 m 1
 302 -392 l 1
 302 406 l 1
 482 406 l 1
 482 -392 l 1
EndSplineSet
Validated: 1
EndChar

StartChar: section
Encoding: 167 167 106
Width: 1118
Flags: W
HStem: -385 170<276.086 702.343> -327 194<172 294.872> 1268 194<826.462 946> 1349 170<409.672 848.225>
VStem: 119 180<447.647 702.495> 148 180<1055.4 1278.67> 789 180<-141.219 77.4899> 818 180<430.026 682.274>
DStem2: 492 369 460 192 0.955543 -0.294853<-182.588 215.275>
LayerCount: 2
Fore
SplineSet
667 315 m 1x09
 700 335 818 411 818 555 c 3
 818 711 705 739 549 788 c 2
 450 819 l 1
 324 741 299 624 299 579 c 3
 299 444 385 402 492 369 c 2
 667 315 l 1x09
490 -385 m 3x92
 368 -385 263 -360 172 -327 c 1
 172 -133 l 1
 182 -133 l 1x42
 245 -160 370 -215 509 -215 c 3
 618 -215 789 -183 789 -36 c 3
 789 76 711 121 594 154 c 2
 460 192 l 2
 287 242 119 308 119 533 c 3x8a
 119 611 144 752 318 858 c 1
 318 865 l 1
 249 902 148 978 148 1147 c 3
 148 1320 268 1519 628 1519 c 3x94
 755 1519 848 1497 946 1462 c 1
 946 1268 l 1
 936 1268 l 1x24
 765 1348 660 1349 607 1349 c 3
 470 1349 328 1302 328 1176 c 3
 328 1036 430 1000 657 942 c 0
 864 889 998 805 998 601 c 3x15
 998 516 973 381 799 277 c 1
 799 270 l 1
 872 231 969 158 969 -10 c 3
 969 -160 866 -385 490 -385 c 3x92
EndSplineSet
Validated: 1
EndChar

StartChar: dieresis
Encoding: 168 168 107
Width: 1118
Flags: W
HStem: 1304 195<253 454 666 867>
VStem: 253 201<1304 1499> 666 201<1304 1499>
LayerCount: 2
Fore
SplineSet
867 1304 m 1
 666 1304 l 1
 666 1499 l 1
 867 1499 l 1
 867 1304 l 1
454 1304 m 1
 253 1304 l 1
 253 1499 l 1
 454 1499 l 1
 454 1304 l 1
EndSplineSet
Validated: 1
EndChar

StartChar: copyright
Encoding: 169 169 108
Width: 1902
Flags: W
HStem: -210 110<713.465 1188.53> 180 148<828.015 1153.54> 255 179<1188.38 1274> 889 181<1189.45 1274> 995 148<830.437 1152.57> 1409 110<713.659 1188.34>
VStem: 86 116<406.773 903.135> 531 180<458.375 866.415> 1700 116<406.773 903.135>
LayerCount: 2
Fore
SplineSet
1816 655 m 3x8780
 1816 181 1425 -210 951 -210 c 3
 477 -210 86 181 86 655 c 3
 86 1128 477 1519 951 1519 c 3
 1425 1519 1816 1128 1816 655 c 3x8780
1700 655 m 3
 1700 1069 1362 1409 951 1409 c 3
 540 1409 202 1069 202 655 c 3
 202 242 539 -100 951 -100 c 3
 1363 -100 1700 242 1700 655 c 3
986 328 m 3xcf80
 1124 328 1238 427 1258 434 c 1
 1274 434 l 1
 1274 255 l 1xa780
 1136 194 1076 180 982 180 c 3
 781 180 531 276 531 660 c 3
 531 973 718 1143 982 1143 c 3xcf80
 1099 1143 1202 1106 1274 1070 c 1
 1274 889 l 1
 1258 889 l 1x9780
 1203 926 1095 995 986 995 c 3
 878 995 711 948 711 660 c 3
 711 375 878 328 986 328 c 3xcf80
EndSplineSet
Validated: 1
EndChar

StartChar: ordfeminine
Encoding: 170 170 109
Width: 1010
Flags: W
HStem: 541 148<336.522 588.407> 1031 148<398.586 694> 1304 170<189 341.042> 1371 148<271.495 642.657>
VStem: 114 180<731.873 952.441> 694 180<566 657 768.434 1031 1179 1319.56>
LayerCount: 2
Fore
SplineSet
483 1519 m 3xdc
 778 1519 874 1389 874 1194 c 2
 874 566 l 1
 694 566 l 1
 694 657 l 1
 601 586 537 541 404 541 c 3
 238 541 114 662 114 839 c 3
 114 1115 326 1161 694 1179 c 1
 694 1324 629 1371 482 1371 c 3xdc
 425 1371 368 1361 204 1304 c 1
 189 1304 l 1
 189 1474 l 1xec
 221 1484 365 1519 483 1519 c 3xdc
461 689 m 3
 495 689 572 702 694 802 c 1
 694 1031 l 1
 494 1016 294 1012 294 849 c 3
 294 773 331 689 461 689 c 3
EndSplineSet
Validated: 1
EndChar

StartChar: guillemotleft
Encoding: 171 171 110
Width: 1174
Flags: W
DStem2: 103 697 282 652 0.753491 0.657458<105.289 547.988> 282 652 103 608 0.75276 -0.658296<0 442.702> 555 695 726 652 0.759476 0.650535<101.897 520.247> 726 652 555 610 0.758708 -0.651431<0 418.351>
LayerCount: 2
Fore
SplineSet
1043 191 m 1
 555 610 l 1
 555 695 l 1
 1043 1113 l 1
 1043 925 l 1
 726 652 l 1
 1043 379 l 1
 1043 191 l 1
613 162 m 1
 103 608 l 1
 103 697 l 1
 613 1142 l 1
 613 946 l 1
 282 652 l 1
 613 358 l 1
 613 162 l 1
EndSplineSet
Validated: 1
EndChar

StartChar: logicalnot
Encoding: 172 172 111
Width: 1490
Flags: W
HStem: 592 170<157 1143>
VStem: 1143 180<57 592>
LayerCount: 2
Fore
SplineSet
1323 57 m 1
 1143 57 l 1
 1143 592 l 1
 157 592 l 1
 157 762 l 1
 1323 762 l 1
 1323 57 l 1
EndSplineSet
Validated: 1
EndChar

StartChar: registered
Encoding: 174 174 113
Width: 1902
Flags: W
HStem: -210 110<713.965 1189.03> 570 148<830 938> 982 148<830 1086.79> 1409 110<714.159 1188.84>
VStem: 86 117<406.773 903.135> 650 180<215 570 718 982> 1122 180<754.227 946.618> 1701 115<406.773 903.135>
DStem2: 1102 615 938 570 0.65421 -0.756313<0 380.376>
LayerCount: 2
Fore
SplineSet
1816 655 m 3
 1816 181 1425 -210 951 -210 c 3
 477 -210 86 181 86 655 c 3
 86 1128 477 1519 951 1519 c 3
 1425 1519 1816 1128 1816 655 c 3
1701 655 m 3
 1701 1069 1363 1409 952 1409 c 3
 541 1409 203 1069 203 655 c 3
 203 242 540 -100 952 -100 c 3
 1364 -100 1701 242 1701 655 c 3
1302 879 m 3
 1302 773 1253 676 1102 615 c 1
 1448 215 l 1
 1221 215 l 1
 938 570 l 1
 830 570 l 1
 830 215 l 1
 650 215 l 1
 650 1130 l 1
 929 1130 l 2
 1186 1130 1302 1051 1302 879 c 3
913 718 m 2
 1074 718 1122 765 1122 852 c 3
 1122 959 1024 982 930 982 c 2
 830 982 l 1
 830 718 l 1
 913 718 l 2
EndSplineSet
Validated: 1
EndChar

StartChar: macron
Encoding: 175 175 114
Width: 1118
Flags: W
HStem: 1650 148<-16 1134>
LayerCount: 2
Fore
SplineSet
1134 1650 m 1
 -16 1650 l 1
 -16 1798 l 1
 1134 1798 l 1
 1134 1650 l 1
EndSplineSet
Validated: 1
EndChar

StartChar: degree
Encoding: 176 176 115
Width: 964
Flags: W
HStem: 755 170<365.973 597.304> 1345 170<365.388 599.27>
VStem: 101 180<1008.65 1260.86> 683 180<1010.2 1260.53>
LayerCount: 2
Fore
SplineSet
482 1515 m 3
 695 1515 863 1354 863 1135 c 3
 863 917 695 755 482 755 c 3
 270 755 101 914 101 1135 c 3
 101 1353 269 1515 482 1515 c 3
482 925 m 3
 593 925 683 1031 683 1135 c 3
 683 1251 584 1345 482 1345 c 3
 374 1345 281 1244 281 1135 c 3
 281 1017 385 925 482 925 c 3
EndSplineSet
Validated: 1
EndChar

StartChar: plusminus
Encoding: 177 177 116
Width: 1490
Flags: W
HStem: 159 170<162 655 835 1328> 733 170<162 655 835 1328>
VStem: 655 180<329 733 903 1402>
LayerCount: 2
Fore
SplineSet
1328 159 m 1
 162 159 l 1
 162 329 l 1
 655 329 l 1
 655 733 l 1
 162 733 l 1
 162 903 l 1
 655 903 l 1
 655 1402 l 1
 835 1402 l 1
 835 903 l 1
 1328 903 l 1
 1328 733 l 1
 835 733 l 1
 835 329 l 1
 1328 329 l 1
 1328 159 l 1
EndSplineSet
Validated: 1
EndChar

StartChar: uni00B2
Encoding: 178 178 117
Width: 1010
Flags: W
HStem: 566 148<387 819> 1370 148<416.971 611.119>
VStem: 207 180<1210 1342.99> 639 180<1101.89 1342.99>
LayerCount: 2
Fore
SplineSet
516 1370 m 3
 442 1370 387 1334 387 1210 c 1
 207 1210 l 1
 207 1397 327 1518 518 1518 c 3
 686 1518 819 1416 819 1232 c 3
 819 1059 669 958 544 851 c 0
 486 801 433 754 387 714 c 1
 819 714 l 1
 819 566 l 1
 185 566 l 1
 185 702 283 814 423 931 c 0
 560 1046 639 1124 639 1235 c 3
 639 1310 604 1370 516 1370 c 3
EndSplineSet
Validated: 1
EndChar

StartChar: uni00B3
Encoding: 179 179 118
Width: 1010
Flags: W
HStem: 559 148<402.46 587.385> 1003 128<405.413 545.398> 1370 148<409.821 568.048>
VStem: 184 180<746.99 864 1230 1317.85> 588 180<1172.77 1351.27> 633 180<753.336 970.123>
LayerCount: 2
Fore
SplineSet
488 1370 m 3xf8
 430 1370 389 1316 375 1230 c 1
 195 1230 l 1
 195 1395 317 1518 485 1518 c 3
 635 1518 768 1417 768 1265 c 3xf8
 768 1187 724 1119 667 1079 c 1
 761 1043 813 972 813 861 c 3
 813 685 671 559 490 559 c 3
 312 559 184 683 184 864 c 1
 364 864 l 1
 364 772 423 707 490 707 c 3
 560 707 633 773 633 858 c 3xf4
 633 948 574 1003 505 1003 c 3
 473 1003 434 995 404 986 c 1
 404 1134 l 1
 418 1133 433 1131 447 1131 c 3
 513 1131 588 1190 588 1268 c 3
 588 1326 537 1370 488 1370 c 3xf8
EndSplineSet
Validated: 1
EndChar

StartChar: acute
Encoding: 180 180 119
Width: 1118
Flags: W
HStem: 1194 374
VStem: 449 422
LayerCount: 2
Fore
SplineSet
871 1568 m 1
 598 1194 l 1
 449 1194 l 1
 628 1568 l 1
 871 1568 l 1
EndSplineSet
Validated: 1
EndChar

StartChar: micro
Encoding: 181 181 120
Width: 1163
Flags: W
HStem: -17 148<432.244 727.636> 0 21G<847 1027>
VStem: 136 180<-412 115 230.181 1117> 847 180<0 116 230.181 1117>
LayerCount: 2
Fore
SplineSet
578 131 m 3xb0
 690 131 777 199 847 275 c 1
 847 1117 l 1
 1027 1117 l 1
 1027 0 l 1
 847 0 l 1x70
 847 116 l 1
 737 0 661 -17 578 -17 c 3
 476 -17 410 11 316 115 c 1
 316 -412 l 1
 136 -412 l 1
 136 1117 l 1
 316 1117 l 1
 316 275 l 1
 380 199 474 131 578 131 c 3xb0
EndSplineSet
Validated: 1
EndChar

StartChar: paragraph
Encoding: 182 182 121
Width: 1118
Flags: W
HStem: 1341 148<655 802>
VStem: 57 598<833.112 1261.05> 475 180<-363 593> 802 180<-363 1341>
LayerCount: 2
Fore
SplineSet
57 1050 m 3xd0
 57 1340 250 1489 520 1489 c 2
 982 1489 l 1
 982 -363 l 1
 802 -363 l 1
 802 1341 l 1
 655 1341 l 1
 655 -363 l 1
 475 -363 l 1
 475 593 l 1xb0
 240 599 57 775 57 1050 c 3xd0
EndSplineSet
Validated: 1
EndChar

StartChar: periodcentered
Encoding: 183 183 122
Width: 724
Flags: W
HStem: 832 285<243 482>
VStem: 243 239<832 1117>
LayerCount: 2
Fore
SplineSet
482 832 m 1
 243 832 l 1
 243 1117 l 1
 482 1117 l 1
 482 832 l 1
EndSplineSet
Validated: 1
EndChar

StartChar: cedilla
Encoding: 184 184 123
Width: 1118
Flags: W
HStem: -423 148<296.151 569.885> -399 158<289 437.658>
VStem: 603 180<-236.499 20>
LayerCount: 2
Fore
SplineSet
603 -107 m 3xa0
 603 -56 602 -69 599 20 c 1
 777 20 l 1
 780 -12 783 -61 783 -89 c 3
 783 -355 591 -423 466 -423 c 3xa0
 431 -423 357 -419 289 -399 c 1
 289 -241 l 1
 298 -241 l 1x60
 343 -261 390 -275 440 -275 c 3
 561 -275 603 -227 603 -107 c 3xa0
EndSplineSet
Validated: 1
EndChar

StartChar: uni0E01
Encoding: 3585 3585 124
Width: 1376
VWidth: 2045
Flags: W
HStem: 0 21G<241 421 998 1178> 744 178<421 512> 1101 178<462.499 813.601>
VStem: 241 180<0 744> 998 180<0 912.322>
LayerCount: 2
Fore
SplineSet
998 744 m 2
 998 937 847 1101 639 1101 c 0
 484 1101 394 1024 328 922 c 9
 512 922 l 1
 512 744 l 1
 421 744 l 1
 421 0 l 1
 241 0 l 1
 241 744 l 1
 101 744 l 1
 101 1058 358 1279 639 1279 c 0
 939 1279 1178 1038 1178 744 c 2
 1178 0 l 1
 998 0 l 1
 998 744 l 2
EndSplineSet
Validated: 1
EndChar

StartChar: uni0E02
Encoding: 3586 3586 125
Width: 1352
VWidth: 2045
Flags: W
HStem: 0 178<382 470 650 973> 699 133<236.286 388.504> 1101 178<449 562.983> 1234 20G<973 1153>
VStem: 89 134<846.726 994> 403 136<844.361 996.904> 470 180<178 638.667> 629 180<783.458 1036.77> 973 180<178 1254>
LayerCount: 2
Fore
SplineSet
470 499 m 2xda80
 470 772 629 732 629 906 c 0
 629 1033 538 1101 449 1101 c 1
 470 1082 539 1029 539 921 c 0
 539 799 440 699 313 699 c 0
 217 699 89 759 89 949 c 0
 89 1096 232 1279 449 1279 c 0
 644 1279 809 1127 809 914 c 0xed80
 809 647 650 698 650 499 c 2
 650 178 l 1
 973 178 l 1
 973 1254 l 1
 1153 1254 l 1
 1153 0 l 1
 382 0 l 1
 382 178 l 1
 470 178 l 1
 470 499 l 2xda80
314 1010 m 0
 263 1010 223 969 223 922 c 0
 223 876 259 832 314 832 c 0
 370 832 403 877 403 922 c 0
 403 969 366 1010 314 1010 c 0
EndSplineSet
Validated: 1
EndChar

StartChar: uni0E03
Encoding: 3587 3587 126
Width: 1376
VWidth: 2045
Flags: W
HStem: 0 178<433 524 704 1026> 607 133<195.866 347.124> 918 132<225.131 348.069> 1063 21G<416.918 485.115> 1254 5G<222.5 344.976 565.096 645 1026 1206>
VStem: 29 152<753.658 901.942> 361 136<755.217 905.628> 524 180<178 613.402> 681 180<790.196 1051.97> 1026 180<178 1254>
LayerCount: 2
Fore
SplineSet
524 465 m 2xff40
 524 715 681 778 681 921 c 0
 681 1041 596 1103 553 1124 c 1
 452 1063 l 1
 345 1124 l 1
 284 1120 244 1091 224 1036 c 1
 247 1045 272 1050 290 1050 c 0
 360 1050 497 985 497 836 c 0
 497 697 389 607 271 607 c 0
 162 607 32 692 29 888 c 1
 29 1100 134 1248 311 1279 c 1
 452 1196 l 1
 601 1279 l 1
 689 1255 861 1168 861 934 c 0xfec0
 861 686 704 645 704 470 c 2
 704 178 l 1
 1026 178 l 1
 1026 1254 l 1
 1206 1254 l 1
 1206 0 l 1
 433 0 l 1
 433 178 l 1
 524 178 l 1
 524 465 l 2xff40
271 918 m 0
 219 918 181 877 181 830 c 0
 181 778 225 740 271 740 c 0
 322 740 361 784 361 830 c 0
 361 876 323 918 271 918 c 0
EndSplineSet
Validated: 1
EndChar

StartChar: uni0E04
Encoding: 3588 3588 127
Width: 1407
VWidth: 2045
Flags: W
HStem: 0 21G<161 348.235 1040 1220> 463 133<608.965 762.942> 774 133<609.684 762.191> 1101 178<517.166 860.725>
VStem: 161 180<332 915.402> 776 136<608.167 761.323> 1040 180<0 923.518>
DStem2: 341 332 532 528 0.34017 0.940364<0 249.284>
LayerCount: 2
Fore
SplineSet
912 685 m 0
 912 561 807 463 686 463 c 0
 623 463 572 485 532 528 c 1
 341 0 l 1
 161 0 l 1
 161 744 l 2
 161 1110 449 1279 691 1279 c 0
 975 1279 1220 1062 1220 744 c 2
 1220 0 l 1
 1040 0 l 1
 1040 743 l 2
 1040 963 882 1101 691 1101 c 0
 481 1101 341 942 341 744 c 2
 341 332 l 1
 482 779 l 2
 495 820 568 907 686 907 c 0
 817 907 912 806 912 685 c 0
686 774 m 0
 635 774 596 733 596 685 c 0
 596 632 641 596 686 596 c 0
 734 596 776 633 776 685 c 0
 776 733 738 774 686 774 c 0
EndSplineSet
Validated: 1
EndChar

StartChar: uni0E05
Encoding: 3589 3589 128
Width: 1426
VWidth: 2045
Flags: W
HStem: 0 21G<164 354.121 1066 1246> 429 134<624.424 777.44> 742 134<624.029 778.657> 1259 20G<379.5 504.2 908.067 1028.5>
VStem: 164 180<314 1025.75> 791 136<576.545 727.774> 1066 180<0 1035.42>
DStem2: 344 314 547 495 0.376226 0.926528<0 244.075> 473 1279 485 1097 0.841879 -0.539666<77.8621 277.95> 707 1129 707 952 0.839764 0.542951<0 201.023>
LayerCount: 2
Fore
SplineSet
927 652 m 0
 927 522 820 429 701 429 c 0
 638 429 587 452 547 495 c 1
 346 0 l 1
 164 0 l 1
 164 850 l 2
 164 1085 286 1243 473 1279 c 1
 707 1129 l 1
 939 1279 l 1
 1118 1247 1246 1078 1246 850 c 2
 1246 0 l 1
 1066 0 l 1
 1066 848 l 2
 1066 1013 1035 1053 939 1100 c 1
 707 952 l 1
 485 1097 l 1
 467 1095 344 1063 344 850 c 2
 344 314 l 1
 497 746 l 2
 516 799 586 876 704 876 c 0
 822 876 927 782 927 652 c 0
701 742 m 0
 654 742 611 704 611 652 c 0
 611 601 655 563 701 563 c 0
 753 563 791 605 791 652 c 0
 791 703 749 742 701 742 c 0
EndSplineSet
Validated: 1
EndChar

StartChar: uni0E06
Encoding: 3590 3590 129
Width: 1576
VWidth: 2045
Flags: W
HStem: -11 177<450.566 603.793> 344 177<449.814 605.15> 607 133<272.063 424.124> 918 132<301.477 425.585> 1063 21G<492.918 561.443> 1234 20G<288.5 420.976 641.096 715 1218 1398>
VStem: 98 160<752.955 905.054> 258 178<179.741 330.476> 438 136<755.101 905.737> 758 180<783.696 1052.92> 1218 180<178 1254>
DStem2: 794 412 794 234 0.875517 -0.483187<86.0072 484.285>
LayerCount: 2
Fore
SplineSet
938 944 m 0xfee0
 938 678 796 679 794 412 c 1
 1218 178 l 1
 1218 1254 l 1
 1398 1254 l 1
 1398 0 l 1
 1218 0 l 1
 794 234 l 17
 786 120 689 -11 526 -11 c 0
 378 -11 258 106 258 255 c 0xfde0
 258 404 378 521 526 521 c 0
 561 521 592 516 620 505 c 1
 656 776 758 781 758 921 c 0
 758 1041 677 1101 630 1124 c 1
 528 1063 l 1
 421 1124 l 1
 362 1120 321 1091 300 1036 c 1
 326 1045 349 1050 366 1050 c 0
 438 1050 574 985 574 836 c 0
 574 697 466 607 348 607 c 0
 238 607 99 703 98 888 c 0
 98 1062 190 1244 387 1279 c 1
 528 1196 l 1
 677 1279 l 1
 753 1258 938 1174 938 944 c 0xfee0
526 344 m 0
 472 344 436 305 436 255 c 0
 436 207 474 166 526 166 c 0
 578 166 616 207 616 255 c 0
 616 305 580 344 526 344 c 0
348 918 m 0
 295 918 258 876 258 830 c 0xfee0
 258 779 302 740 348 740 c 0
 394 740 438 778 438 830 c 0
 438 877 400 918 348 918 c 0
EndSplineSet
Validated: 1
EndChar

StartChar: uni0E07
Encoding: 3591 3591 130
Width: 1031
VWidth: 2045
Flags: W
HStem: 0 21G<644.755 845> 833 134<540.709 663.723> 1146 133<541.701 696.378>
VStem: 395 134<980.146 1133.51> 665 180<219 838> 709 136<979.042 1132.53>
DStem2: 196 681 87 571 0.711401 -0.702786<0 658.334>
LayerCount: 2
Fore
SplineSet
619 1279 m 0xf8
 742 1279 845 1180 845 1055 c 2
 845 0 l 1xf4
 665 0 l 1
 87 571 l 1
 196 681 l 1
 665 219 l 1
 665 838 l 1
 648 835 633 833 620 833 c 0
 491 833 395 937 395 1057 c 0
 395 1179 495 1279 619 1279 c 0xf8
620 1146 m 0
 567 1146 529 1105 529 1056 c 0
 529 1007 568 967 620 967 c 0
 671 967 709 1008 709 1056 c 0
 709 1104 672 1146 620 1146 c 0
EndSplineSet
Validated: 1
EndChar

StartChar: uni0E08
Encoding: 3592 3592 131
Width: 1288
VWidth: 2045
Flags: W
HStem: 0 21G<753.876 948.226> 431 134<494.946 648.011> 744 133<494.016 647.021> 1101 178<444.183 766.263>
VStem: 112 180<789 945.918> 346 134<578.363 729.533> 920 180<640.118 945.144>
DStem2: 849 356 944 0 0.206744 0.978395<0 439.72>
LayerCount: 2
Fore
SplineSet
606 1101 m 0
 430 1101 292 963 292 789 c 1
 112 789 l 17
 112 1059 330 1279 606 1279 c 0
 882 1279 1100 1057 1100 789 c 0
 1100 757 1095 716 1086 672 c 2
 944 0 l 1
 758 0 l 1
 665 451 l 1
 636 438 605 431 572 431 c 0
 441 431 346 535 346 655 c 0
 346 784 452 877 570 877 c 0
 723 877 783 750 790 706 c 2
 849 356 l 1
 910 712 l 2
 917 753 920 779 920 791 c 0
 920 966 775 1101 606 1101 c 0
571 744 m 0
 524 744 480 706 480 654 c 0
 480 607 519 565 571 565 c 0
 622 565 660 606 660 654 c 0
 660 708 617 744 571 744 c 0
EndSplineSet
Validated: 1
EndChar

StartChar: uni0E09
Encoding: 3593 3593 132
Width: 1466
VWidth: 2045
Flags: W
HStem: -11 134<1040.28 1195.18> 350 134<298.29 420.65> 662 133<297.558 451.23> 1101 178<495.385 842.299>
VStem: 149 136<498.838 647.821> 421 180<175 354> 465 136<496.223 647.409> 1028 180<417 911.997> 1208 135<135.162 287.067>
DStem2: 601 175 601 0 0.869993 0.493064<0 255.43>
LayerCount: 2
Fore
SplineSet
668 1101 m 0xfd
 461 1101 352 943 323 851 c 1
 152 904 l 17
 216 1099 404 1279 668 1279 c 0
 969 1279 1208 1037 1208 743 c 2
 1208 417 l 1xfd
 1255 399 1343 335 1343 213 c 0
 1343 87 1241 -11 1118 -11 c 0
 986 -11 913 87 898 169 c 1
 601 0 l 1xfa80
 421 0 l 1
 421 354 l 1xfc
 408 351 393 350 375 350 c 0
 194 350 149 484 149 573 c 0
 149 700 251 795 375 795 c 0
 505 795 601 692 601 572 c 2xfa
 601 175 l 1
 1028 417 l 1
 1028 743 l 2
 1028 937 873 1101 668 1101 c 0xfd
1118 302 m 0
 1072 302 1028 265 1028 212 c 0xf9
 1028 164 1067 123 1118 123 c 0
 1170 123 1208 165 1208 212 c 0xf880
 1208 263 1164 302 1118 302 c 0
375 662 m 0
 323 662 285 620 285 573 c 0
 285 520 330 484 375 484 c 0
 423 484 465 521 465 573 c 0xfa
 465 619 429 662 375 662 c 0
EndSplineSet
Validated: 1
EndChar

StartChar: uni0E0A
Encoding: 3594 3594 133
Width: 1355
VWidth: 2045
Flags: W
HStem: 0 178<372 460 640 963> 699 133<226.635 380.294> 1101 178<439 552.983>
VStem: 79 134<846.509 993.922> 393 136<845.273 997.215> 460 180<178 638.667> 619 180<783.458 1036.77> 963 180<178 843.582> 1073 180<1171.92 1362>
LayerCount: 2
Fore
SplineSet
799 914 m 0xfa
 799 647 640 698 640 499 c 2
 640 178 l 1
 963 178 l 1
 963 804 l 2xf5
 963 826 948 840 917 846 c 1
 917 1024 l 1
 973 1071 1073 1185 1073 1362 c 1
 1253 1362 l 1xf080
 1253 1153 1171 1033 1091 942 c 1
 1126 901 1143 855 1143 804 c 2
 1143 0 l 1
 372 0 l 1
 372 178 l 1
 460 178 l 1
 460 499 l 2xf5
 460 772 619 732 619 906 c 0
 619 1033 528 1101 439 1101 c 1
 490 1054 529 998 529 921 c 0
 529 791 425 699 303 699 c 0
 207 699 79 759 79 949 c 0
 79 1096 222 1279 439 1279 c 0
 634 1279 799 1127 799 914 c 0xfa
304 1010 m 0
 258 1010 213 973 213 922 c 0
 213 874 252 832 304 832 c 0
 357 832 393 876 393 922 c 0xf8
 393 969 356 1010 304 1010 c 0
EndSplineSet
Validated: 1
EndChar

StartChar: uni0E0B
Encoding: 3595 3595 134
Width: 1440
VWidth: 2045
Flags: W
HStem: 0 178<477 565 745 1068> 607 133<235.26 390.458> 918 132<266.961 391.036> 1063 21G<459.918 528.115> 1259 20G<265.5 387.217 607.337 689>
VStem: 71 152<753.173 901.846> 404 134<752.228 906.313> 565 180<178 614.193> 724 180<794.573 1055.97> 1068 180<178 845.713> 1178 180<1170.78 1362>
LayerCount: 2
Fore
SplineSet
314 918 m 0xfe
 255 918 223 871 223 830 c 0
 223 784 259 740 314 740 c 0
 370 740 404 785 404 830 c 0
 404 872 373 918 314 918 c 0xfe
1023 1024 m 1
 1105 1095 1178 1207 1178 1362 c 1
 1358 1362 l 1xfe20
 1358 1159 1275 1032 1196 942 c 1
 1231 901 1248 855 1248 804 c 2
 1248 0 l 1
 477 0 l 1
 477 178 l 1
 565 178 l 1
 565 465 l 2xff40
 565 716 724 781 724 921 c 0
 724 1041 643 1101 596 1124 c 1
 495 1063 l 1
 388 1124 l 1
 328 1120 287 1091 266 1036 c 1
 291 1045 315 1050 333 1050 c 0
 402 1050 538 985 538 836 c 0
 538 698 434 607 314 607 c 0
 192 607 72 704 71 888 c 1
 71 1099 178 1247 353 1279 c 1
 495 1196 l 1
 643 1279 l 1
 735 1255 904 1167 904 929 c 0xfe80
 904 691 745 641 745 467 c 2
 745 178 l 1
 1068 178 l 1
 1068 804 l 2xff40
 1068 826 1053 840 1023 846 c 1
 1023 1024 l 1
EndSplineSet
Validated: 1
EndChar

StartChar: uni0E0C
Encoding: 3596 3596 135
Width: 1924
VWidth: 2045
Flags: W
HStem: -11 134<383.335 536.409 918.585 1069.79> 302 133<417.046 538.326 917.476 994> 744 178<416 507> 1101 178<460.803 808.106> 1234 20G<1557 1737>
VStem: 236 180<430 744> 236 135<136.514 289.706> 551 136<136.145 287.122> 769 136<136.443 289.813> 994 180<435 913.651> 1557 180<177 1254>
DStem2: 1174 373 1217 172 0.890204 -0.455561<129.847 430.238>
LayerCount: 2
Fore
SplineSet
769 213 m 0xede0
 769 337 871 435 994 435 c 9
 994 744 l 2
 994 940 838 1101 635 1101 c 0
 447 1101 352 971 322 922 c 1
 507 922 l 1
 507 744 l 1
 416 744 l 1
 416 430 l 1xf5e0
 428 433 443 435 461 435 c 0
 585 435 687 337 687 213 c 0
 687 92 588 -11 461 -11 c 0
 335 -11 236 93 236 211 c 2xf3e0
 236 744 l 1
 95 744 l 1
 95 1036 333 1279 635 1279 c 0xf5e0
 933 1279 1174 1038 1174 744 c 2
 1174 373 l 1
 1557 177 l 1
 1557 1254 l 1
 1737 1254 l 1
 1737 0 l 1
 1557 0 l 1
 1217 172 l 1
 1200 80 1116 -11 994 -11 c 0
 866 -11 769 92 769 213 c 0xede0
994 302 m 0
 948 302 905 265 905 212 c 0
 905 158 950 123 994 123 c 0
 1045 123 1084 164 1084 212 c 0
 1084 265 1040 302 994 302 c 0
461 302 m 0
 410 302 371 260 371 212 c 0xe3e0
 371 164 410 123 461 123 c 0
 508 123 551 160 551 212 c 0
 551 264 507 302 461 302 c 0
EndSplineSet
Validated: 1
EndChar

StartChar: uni0E0D
Encoding: 3597 3597 136
Width: 1924
VWidth: 2045
Flags: W
HStem: -577 163<1311 1468.65> -207 134<1066.58 1221.48> -11 134<375.699 526.409> 0 178<1164 1547> 302 133<405.573 528.326> 744 178<405 497> 1101 178<450.812 797.913> 1234 20G<1547 1727>
VStem: 225 180<430 744> 225 136<135.713 289.706> 541 136<136.145 287.122> 921 133<-372.806 -221.616> 984 180<178 913.651> 1235 134<-371.394 -221.214> 1547 180<178 1254>
LayerCount: 2
Fore
SplineSet
625 1279 m 0xeea6
 922 1279 1164 1037 1164 744 c 2
 1164 178 l 1
 1547 178 l 1
 1547 1254 l 1
 1727 1254 l 1xddae
 1727 0 l 1
 984 0 l 25
 984 744 l 2
 984 940 828 1101 625 1101 c 0
 438 1101 340 969 314 922 c 1
 497 922 l 1
 497 744 l 1
 405 744 l 1
 405 430 l 1xdeae
 416 433 432 435 451 435 c 0
 575 435 677 337 677 213 c 0
 677 92 578 -11 451 -11 c 0
 324 -11 225 91 225 211 c 2xee66
 225 744 l 1
 85 744 l 1
 85 1036 323 1279 625 1279 c 0xeea6
1369 -282 m 0
 1369 -343 1347 -388 1311 -414 c 1
 1498 -414 1580 -275 1631 -154 c 1
 1774 -249 l 1
 1679 -451 1534 -577 1277 -577 c 0
 1036 -577 921 -443 921 -301 c 0xcc36
 921 -165 1018 -73 1145 -73 c 0
 1266 -73 1369 -172 1369 -282 c 0
1144 -207 m 0
 1092 -207 1054 -249 1054 -296 c 0
 1054 -343 1092 -385 1144 -385 c 0
 1194 -385 1235 -343 1235 -296 c 0
 1235 -245 1190 -207 1144 -207 c 0
451 302 m 0
 400 302 361 260 361 212 c 0
 361 164 400 123 451 123 c 0xec66
 498 123 541 160 541 212 c 0
 541 264 497 302 451 302 c 0
EndSplineSet
Validated: 1
Substitution2: "'ccmp' Pali-Sanskrit Descender Removal" uni0E0D.descless
Substitution2: "Thai Descender Removal Single Substitution" uni0E0D.descless
EndChar

StartChar: uni0E0E
Encoding: 3598 3598 137
Width: 1473
VWidth: 2045
Flags: W
HStem: -526 133<530.255 684.375> -214 133<530.932 684.856> -11 134<256.341 409.034> 302 133<254.875 377.206> 744 178<558 646> 1101 178<578.96 924.026>
VStem: 106 136<136.042 287.703> 382 136<-380.717 -228.357> 422 136<139.884 289.504> 1113 180<-260 909.216>
AnchorPoint: "BelowBase" 1104 -625 basechar 0
LayerCount: 2
Fore
SplineSet
753 1279 m 0xfec0
 1066 1279 1293 1023 1293 744 c 2
 1293 -302 l 1
 997 -595 l 1
 814 -414 l 1
 764 -464 718 -526 606 -526 c 0
 486 -526 382 -428 382 -304 c 0xff40
 382 -175 487 -81 608 -81 c 0
 712 -81 765 -146 814 -193 c 1
 920 -89 l 1
 1032 -198 l 1
 925 -304 l 1
 997 -375 l 1
 1113 -260 l 1
 1113 744 l 2
 1113 934 961 1101 754 1101 c 0
 603 1101 489 1014 442 922 c 1
 646 922 l 1
 646 744 l 1
 558 744 l 1
 558 213 l 2
 558 86 454 -11 332 -11 c 0
 205 -11 106 90 106 213 c 0
 106 340 209 435 332 435 c 0
 350 435 365 433 378 430 c 1
 378 744 l 1
 213 744 l 1
 213 1036 451 1279 753 1279 c 0xfec0
607 -214 m 0
 559 -214 518 -252 518 -304 c 0
 518 -355 559 -393 607 -393 c 0
 653 -393 698 -357 698 -304 c 0
 698 -251 653 -214 607 -214 c 0
332 302 m 0
 286 302 242 264 242 212 c 0
 242 158 288 123 332 123 c 0
 379 123 422 160 422 212 c 0xfec0
 422 264 378 302 332 302 c 0
EndSplineSet
Validated: 1
EndChar

StartChar: uni0E0F
Encoding: 3599 3599 138
Width: 1486
VWidth: 2045
Flags: W
HStem: -526 133<301.481 457.24> -214 133<301.765 456.659> -11 134<256.341 409.034> 302 133<254.875 377.206> 744 178<558 646> 1101 178<577.693 924.026>
VStem: 106 136<136.042 287.703> 155 134<-380.723 -226.132> 378 180<430 744> 422 136<139.884 289.504> 1113 180<-260 909.216>
AnchorPoint: "BelowBase" 1065 -625 basechar 0
LayerCount: 2
Fore
SplineSet
1113 744 m 2xfda0
 1113 934 961 1101 754 1101 c 0
 567 1101 478 980 442 922 c 9
 646 922 l 1
 646 744 l 1
 558 744 l 1xfda0
 558 213 l 2
 558 86 454 -11 332 -11 c 0
 205 -11 106 90 106 213 c 0xfe60
 106 340 209 435 332 435 c 0
 350 435 365 433 378 430 c 1
 378 744 l 1
 213 744 l 1
 213 1036 451 1279 753 1279 c 0
 1066 1279 1293 1023 1293 744 c 2
 1293 -302 l 1
 997 -595 l 1
 881 -480 l 1
 768 -595 l 1
 585 -414 l 1
 536 -465 494 -526 379 -526 c 0
 254 -526 155 -427 155 -304 c 0
 155 -178 256 -81 379 -81 c 0
 485 -81 535 -145 585 -193 c 1
 692 -88 l 1
 803 -199 l 1
 696 -305 l 1
 768 -375 l 1
 881 -260 l 1
 997 -375 l 1
 1113 -260 l 1
 1113 744 l 2xfda0
379 -214 m 0
 326 -214 289 -255 289 -304 c 0
 289 -352 327 -393 379 -393 c 0
 432 -393 469 -354 469 -304 c 0
 469 -250 428 -214 379 -214 c 0
332 302 m 0
 286 302 242 264 242 212 c 0
 242 158 288 123 332 123 c 0
 379 123 422 160 422 212 c 0xfe60
 422 264 378 302 332 302 c 0
EndSplineSet
Validated: 1
EndChar

StartChar: uni0E10
Encoding: 3600 3600 139
Width: 1245
VWidth: 2045
Flags: W
HStem: -807 134<51.0592 202.73> -521 133<715.818 838.433> -494 134<50.5561 203.051> -210 134<716.701 869.465> 0 21G<678.985 907.012> 244 134<456.953 612.939> 557 133<459.827 611.747> 744 178<363 847.513> 1101 178<502.326 846.672>
VStem: -98 134<-659.602 -506.925> 311 134<390.966 544.305> 569 134<-373.115 -222.999> 858 180<583.656 733.901> 883 136<-375.988 -223.591>
DStem2: 794 285 903 0 0.196694 0.980465<0 386.942>
LayerCount: 2
Fore
SplineSet
793 -76 m 0xdff4
 922 -76 1019 -179 1019 -299 c 2
 1019 -603 l 25
 744 -875 l 1
 628 -760 l 1
 515 -873 l 1
 332 -695 l 1
 286 -741 235 -807 127 -807 c 0
 -1 -807 -98 -704 -98 -583 c 0
 -98 -463 -3 -360 127 -360 c 0xbff4
 237 -360 286 -428 332 -474 c 1
 439 -369 l 1
 550 -477 l 1
 444 -583 l 1
 515 -654 l 1
 628 -541 l 1
 744 -656 l 1
 839 -562 l 1
 839 -518 l 1
 824 -520 808 -521 793 -521 c 0
 669 -521 569 -423 569 -299 c 0
 569 -180 663 -76 793 -76 c 0xdff4
794 -210 m 0
 742 -210 703 -251 703 -298 c 0
 703 -345 742 -388 794 -388 c 0xdff4
 848 -388 883 -342 883 -298 c 0
 883 -251 846 -210 794 -210 c 0
126 -494 m 0xbff0
 74 -494 36 -536 36 -583 c 0
 36 -634 80 -673 126 -673 c 0
 173 -673 216 -635 216 -583 c 0
 216 -535 177 -494 126 -494 c 0xbff0
762 922 m 2
 891 922 1038 819 1038 694 c 0
 1038 681 1037 667 1034 653 c 2
 903 0 l 1
 683 0 l 25
 630 264 l 1
 600 251 568 244 535 244 c 0
 409 244 311 344 311 468 c 0
 311 589 408 690 535 690 c 0
 685 690 747 565 755 519 c 2
 794 285 l 1
 857 655 l 2
 858 659 858 663 858 667 c 0x9ff8
 858 710 820 744 767 744 c 2
 136 744 l 1
 136 1043 380 1279 675 1279 c 0
 892 1279 1054 1162 1142 1013 c 1
 986 924 l 1
 960 969 862 1101 675 1101 c 0
 488 1101 391 968 363 922 c 1
 762 922 l 2
536 557 m 0
 484 557 445 516 445 467 c 0
 445 414 490 378 536 378 c 0
 584 378 625 416 625 467 c 0
 625 518 585 557 536 557 c 0
EndSplineSet
Validated: 1
Substitution2: "'ccmp' Pali-Sanskrit Descender Removal" uni0E10.descless
Substitution2: "Thai Descender Removal Single Substitution" uni0E10.descless
EndChar

StartChar: uni0E11
Encoding: 3601 3601 140
Width: 1689
VWidth: 2045
Flags: W
HStem: 0 21G<566 843.393 1334 1514> 607 133<238.385 390.434> 918 132<268.148 391.494> 1063 21G<460.246 528.115> 1102 177<1177.85 1320.17>
VStem: 72 152<754.661 971.773> 404 134<752.343 906.29> 566 180<187 615.051> 724 180<794.284 1051.97> 1334 180<0 1088.03>
DStem2: 746 187 837 0 0.304486 0.952517<0 1020.26>
LayerCount: 2
Fore
SplineSet
1334 1010 m 2xff40
 1334 1059 1295 1102 1238 1102 c 0
 1216 1102 1188 1099 1180 1073 c 2
 837 0 l 1
 566 0 l 1
 566 465 l 2xff40
 566 719 724 778 724 921 c 0
 724 1041 639 1103 596 1124 c 1
 495 1063 l 1
 389 1124 l 1
 328 1120 287 1091 267 1036 c 1
 288 1044 310 1050 334 1050 c 0
 401 1050 538 987 538 836 c 0
 538 698 433 607 314 607 c 0
 191 607 72 708 72 892 c 0
 72 1103 179 1248 354 1279 c 1
 495 1196 l 1
 644 1279 l 1
 732 1255 904 1168 904 934 c 0xfec0
 904 683 746 649 746 465 c 2
 746 187 l 1
 1064 1155 l 2
 1073 1182 1129 1279 1271 1279 c 0
 1357 1279 1514 1212 1514 1011 c 2
 1514 0 l 1
 1334 0 l 1
 1334 1010 l 2xff40
314 918 m 0
 258 918 224 874 224 829 c 0
 224 783 261 740 314 740 c 0
 367 740 404 781 404 829 c 0
 404 879 368 918 314 918 c 0
EndSplineSet
Validated: 1
EndChar

StartChar: uni0E12
Encoding: 3602 3602 141
Width: 1957
VWidth: 2045
Flags: W
HStem: -11 134<987.871 1142.89> 302 133<990.468 1066> 749 133<631.565 786.395> 1254 5G<379.5 504.2 908.067 1028.5 1587 1767>
VStem: 164 180<208 1025.75> 485 134<583.228 736.58> 799 137<583.472 734.334> 842 134<135.765 288.304> 1066 180<435 1035.42> 1587 180<180 1254>
DStem2: 344 208 349 0 0.718803 0.695213<0 361.246> 473 1279 485 1097 0.841879 -0.539666<77.8621 277.95> 707 1129 707 952 0.839764 0.542951<0 201.023> 1246 369 1287 163 0.874641 -0.484772<135.723 389.874>
LayerCount: 2
Fore
SplineSet
842 213 m 0xfdc0
 842 343 946 435 1066 435 c 1
 1066 848 l 2
 1066 1013 1035 1053 939 1100 c 1
 707 952 l 1
 485 1097 l 1
 467 1095 344 1063 344 850 c 2
 344 208 l 1
 598 465 l 1
 496 523 485 606 485 660 c 0
 485 784 585 882 709 882 c 0
 833 882 932 787 936 659 c 1xfec0
 936 598 913 546 867 501 c 2
 349 0 l 1
 164 0 l 1
 164 850 l 2
 164 1085 286 1243 473 1279 c 1
 707 1129 l 1
 939 1279 l 1
 1118 1247 1246 1078 1246 850 c 2
 1246 369 l 1
 1587 180 l 1
 1587 1254 l 1
 1767 1254 l 1
 1767 0 l 1
 1587 0 l 1
 1287 163 l 1
 1276 120 1219 -11 1066 -11 c 0
 939 -11 842 90 842 213 c 0xfdc0
1065 302 m 0
 1017 302 976 264 976 213 c 0xfdc0
 976 160 1017 123 1066 123 c 0
 1118 123 1156 165 1156 212 c 0
 1156 259 1117 302 1065 302 c 0
709 749 m 0
 656 749 619 705 619 659 c 0
 619 612 655 571 709 571 c 0
 763 571 799 612 799 659 c 0xfec0
 799 705 762 749 709 749 c 0
EndSplineSet
Validated: 1
EndChar

StartChar: uni0E13
Encoding: 3603 3603 142
Width: 1948
VWidth: 2045
Flags: W
HStem: -11 134<374.931 528.93 1523.13 1676.39> 302 133<410.048 528.62> 744 178<409 497> 1101 178<452.803 799.276> 1234 20G<1511 1691>
VStem: 229 180<430 744> 229 134<136.114 289.958> 543 134<136.363 288.98> 986 180<180 914.094> 1511 180<417 1254> 1691 136<136.261 287.618>
LayerCount: 2
Fore
SplineSet
627 1279 m 0xf580
 923 1279 1166 1041 1166 744 c 2
 1166 180 l 1
 1511 417 l 9
 1511 1254 l 1
 1691 1254 l 1
 1691 417 l 1xedc0
 1748 392 1827 331 1827 213 c 0
 1827 92 1728 -11 1601 -11 c 0
 1443 -11 1392 125 1386 148 c 1
 1166 0 l 1
 986 0 l 1
 986 744 l 2
 986 941 828 1101 627 1101 c 0
 439 1101 344 971 314 922 c 1
 497 922 l 1
 497 744 l 1
 409 744 l 1
 409 430 l 1xf5a0
 420 433 435 435 453 435 c 0
 581 435 677 334 677 213 c 0
 677 93 582 -11 453 -11 c 0
 327 -11 229 92 229 211 c 2xf380
 229 744 l 1
 87 744 l 1
 87 1036 325 1279 627 1279 c 0xf580
1600 302 m 0
 1553 302 1511 264 1511 212 c 0xe1c0
 1511 161 1553 123 1600 123 c 0
 1648 123 1691 161 1691 212 c 0xe1a0
 1691 264 1647 302 1600 302 c 0
453 302 m 0
 400 302 363 261 363 213 c 0xe380
 363 164 398 123 453 123 c 0
 507 123 543 165 543 212 c 0
 543 258 506 302 453 302 c 0
EndSplineSet
Validated: 1
EndChar

StartChar: uni0E14
Encoding: 3604 3604 143
Width: 1410
VWidth: 2045
Flags: W
HStem: 0 21G<161 361.484 1040 1220> 744 133<614.255 767.304> 1101 178<517.166 860.725>
VStem: 161 180<210 915.402> 467 134<577.484 730.283> 781 136<577.747 731.298> 1040 180<0 923.518>
DStem2: 341 210 341 0 0.715507 0.698605<0 344.942>
LayerCount: 2
Fore
SplineSet
690 744 m 0
 642 744 601 706 601 654 c 0
 601 605 637 566 690 566 c 0
 744 566 781 607 781 654 c 0
 781 701 742 744 690 744 c 0
691 877 m 0
 810 877 917 783 917 650 c 0
 917 592 894 540 849 496 c 2
 341 0 l 17
 161 0 l 1
 161 744 l 2
 161 1110 449 1279 691 1279 c 0
 975 1279 1220 1062 1220 744 c 2
 1220 0 l 1
 1040 0 l 1
 1040 743 l 2
 1040 963 882 1101 691 1101 c 0
 481 1101 341 945 341 744 c 2
 341 210 l 1
 579 460 l 1
 478 522 467 591 467 655 c 0
 467 785 571 877 691 877 c 0
EndSplineSet
Validated: 1
EndChar

StartChar: uni0E15
Encoding: 3605 3605 144
Width: 1400
VWidth: 2045
Flags: W
HStem: 0 21G<154 359.905 1036 1216> 734 133<611.565 766.358> 1259 20G<406 484.2 888.067 1009>
VStem: 154 180<208 1037.97> 465 134<568.453 721.58> 779 136<568.4 720.989> 1036 180<0 1050.37>
DStem2: 334 208 339 0 0.72258 0.691287<0 343.601> 453 1279 465 1097 0.841879 -0.539666<75.2277 277.95> 687 1129 687 952 0.839764 0.542951<0 200.431>
LayerCount: 2
Fore
SplineSet
689 734 m 0
 636 734 599 690 599 644 c 0
 599 597 635 556 689 556 c 0
 743 556 779 597 779 644 c 0
 779 690 742 734 689 734 c 0
919 1279 m 1
 1099 1247 1216 1077 1216 850 c 2
 1216 0 l 1
 1036 0 l 1
 1036 848 l 2
 1036 1004 1025 1049 919 1100 c 1
 687 952 l 1
 465 1097 l 1
 371 1088 334 978 334 850 c 2
 334 208 l 25
 578 450 l 1
 486 505 465 572 465 645 c 0
 465 769 565 867 689 867 c 0
 812 867 915 772 915 640 c 0
 915 580 892 529 847 486 c 2
 339 0 l 1
 154 0 l 1
 154 850 l 2
 154 1193 359 1261 453 1279 c 1
 687 1129 l 1
 919 1279 l 1
EndSplineSet
Validated: 1
EndChar

StartChar: uni0E16
Encoding: 3606 3606 145
Width: 1370
VWidth: 2045
Flags: W
HStem: -11 134<395.465 546.392> 302 133<426.088 548.308> 744 178<425 517> 1101 178<470.812 817.913>
VStem: 245 180<430 744> 245 136<135.713 289.504> 561 136<136.261 286.566> 1004 180<0 913.651>
LayerCount: 2
Fore
SplineSet
470 302 m 0xf7
 423 302 381 264 381 212 c 0
 381 161 423 123 470 123 c 0
 518 123 561 161 561 212 c 0
 561 264 517 302 470 302 c 0xf7
645 1279 m 0
 942 1279 1184 1037 1184 744 c 2
 1184 0 l 1
 1004 0 l 1
 1004 744 l 2
 1004 940 848 1101 645 1101 c 0
 458 1101 360 969 334 922 c 1
 517 922 l 1
 517 744 l 1
 425 744 l 1
 425 430 l 1xfb
 436 433 452 435 471 435 c 0
 595 435 697 337 697 213 c 0
 697 92 598 -11 471 -11 c 0
 344 -11 245 91 245 211 c 2xf7
 245 744 l 1xfb
 105 744 l 1
 105 1036 343 1279 645 1279 c 0
EndSplineSet
Validated: 1
EndChar

StartChar: uni0E17
Encoding: 3607 3607 146
Width: 1487
VWidth: 2045
Flags: W
HStem: 0 21G<366 553.032 1118 1298> 833 134<244.5 365.477> 1102 177<918.514 1104.8> 1146 133<245.616 397.469>
VStem: 95 136<980.029 1133.5> 366 180<353 838> 410 136<978.99 1132.94> 1118 180<0 1085.84>
DStem2: 546 353 546 0 0.331701 0.943385<0 849.394>
LayerCount: 2
Fore
SplineSet
320 1279 m 0xdd
 443 1279 546 1181 546 1055 c 2xdb
 546 353 l 17xdd
 802 1140 l 2
 809 1160 865 1279 1040 1279 c 0
 1149 1279 1298 1207 1298 1010 c 2
 1298 0 l 1
 1118 0 l 1
 1118 1010 l 2
 1118 1043 1102 1102 999 1102 c 0
 955 1102 928 1087 918 1058 c 2
 546 0 l 1xeb
 366 0 l 1
 366 838 l 1
 349 835 334 833 320 833 c 0
 192 833 95 936 95 1057 c 0
 95 1180 196 1279 320 1279 c 0xdd
321 1146 m 0
 273 1146 231 1108 231 1056 c 0
 231 1003 275 967 321 967 c 0
 367 967 410 1003 410 1056 c 0
 410 1108 369 1146 321 1146 c 0
EndSplineSet
Validated: 1
EndChar

StartChar: uni0E18
Encoding: 3608 3608 147
Width: 1228
VWidth: 2045
Flags: W
HStem: 0 178<219 309 489 814> 744 178<489 803.545> 1101 178<447.645 805.908>
VStem: 309 180<178 744> 814 180<178 731.669>
LayerCount: 2
Fore
SplineSet
722 922 m 2
 874 922 994 798 994 653 c 2
 994 0 l 1
 219 0 l 1
 219 178 l 1
 309 178 l 1
 309 744 l 25
 96 744 l 1
 96 1043 340 1279 635 1279 c 0
 850 1279 1015 1160 1102 1013 c 1
 946 924 l 1
 944 929 843 1101 643 1101 c 0
 548 1101 402 1089 323 922 c 1
 722 922 l 2
814 653 m 2
 814 694 797 744 727 744 c 2
 489 744 l 25
 489 178 l 1
 814 178 l 1
 814 653 l 2
EndSplineSet
Validated: 1
EndChar

StartChar: uni0E19
Encoding: 3609 3609 148
Width: 1451
VWidth: 2045
Flags: W
HStem: -11 134<1021.4 1176.86> 833 134<234.5 355.477> 1146 133<235.616 387.469> 1234 20G<1011 1191>
VStem: 85 136<980.029 1133.5> 356 180<181 838> 400 136<978.99 1132.94> 1011 180<420 1254> 1189 136<135.763 288.579>
DStem2: 536 181 536 0 0.893296 0.449469<0 300.102>
LayerCount: 2
Fore
SplineSet
1100 302 m 0xc880
 1053 302 1009 264 1009 212 c 0
 1009 161 1052 123 1100 123 c 0
 1151 123 1189 165 1189 212 c 0
 1189 263 1145 302 1100 302 c 0xc880
1099 -11 m 0
 968 -11 894 90 880 165 c 1
 536 0 l 1xda80
 356 0 l 1
 356 838 l 1xdc
 339 835 324 833 310 833 c 0
 182 833 85 936 85 1057 c 0
 85 1180 186 1279 310 1279 c 0
 433 1279 536 1181 536 1055 c 2xea
 536 181 l 1
 1011 420 l 1
 1011 1254 l 1
 1191 1254 l 1
 1191 415 l 1xdd
 1303 366 1325 283 1325 213 c 0
 1325 90 1225 -11 1099 -11 c 0
311 1146 m 0xea
 263 1146 221 1108 221 1056 c 0
 221 1003 265 967 311 967 c 0
 357 967 400 1003 400 1056 c 0
 400 1108 359 1146 311 1146 c 0xea
EndSplineSet
Validated: 1
EndChar

StartChar: uni0E1A
Encoding: 3610 3610 149
Width: 1420
VWidth: 2045
Flags: W
HStem: 0 178<270 361 541 1041> 833 134<239.5 360.477> 1146 133<240.616 391.959> 1234 20G<1041 1221>
VStem: 90 136<980.029 1133.5> 361 180<178 838> 405 136<979.223 1129.66> 1041 180<178 1254>
LayerCount: 2
Fore
SplineSet
315 1279 m 0xed
 436 1279 541 1186 541 1055 c 2xeb
 541 178 l 1
 1041 178 l 1
 1041 1254 l 1
 1221 1254 l 1xdd
 1221 0 l 1
 270 0 l 1
 270 178 l 1
 361 178 l 25
 361 838 l 1
 344 835 329 833 315 833 c 0
 187 833 90 936 90 1057 c 0
 90 1180 191 1279 315 1279 c 0xed
316 1146 m 0
 268 1146 226 1108 226 1056 c 0
 226 1003 270 967 316 967 c 0
 362 967 405 1004 405 1056 c 0
 405 1107 363 1146 316 1146 c 0
EndSplineSet
Validated: 1
EndChar

StartChar: uni0E1B
Encoding: 3611 3611 150
Width: 1420
VWidth: 2045
Flags: W
HStem: 0 178<270 361 540 1041> 833 134<239.5 360.523> 1146 133<240.616 390.675>
VStem: 90 136<980.029 1133.5> 361 179<178 838> 405 135<979.223 1131.33> 1041 180<178 1832>
AnchorPoint: "AboveBase" 927 1339 basechar 0
LayerCount: 2
Fore
SplineSet
315 1279 m 0xfa
 443 1279 540 1177 540 1055 c 2xf6
 540 178 l 1
 1041 178 l 1
 1041 1832 l 1
 1221 1832 l 1
 1221 0 l 1
 270 0 l 1
 270 178 l 1
 361 178 l 25
 361 838 l 1
 346 835 330 833 315 833 c 0
 187 833 90 936 90 1057 c 0
 90 1180 191 1279 315 1279 c 0xfa
316 1146 m 0
 268 1146 226 1108 226 1056 c 0
 226 1003 270 967 316 967 c 0
 362 967 405 1004 405 1056 c 0
 405 1107 363 1146 316 1146 c 0
EndSplineSet
Validated: 1
EndChar

StartChar: uni0E1C
Encoding: 3612 3612 151
Width: 1373
VWidth: 2045
Flags: W
HStem: 0 21G<186 382.313 995.687 1192> 833 134<366.619 487.518> 1146 133<336.375 488.912> 1234 20G<1012 1192>
VStem: 186 180<264 838> 186 136<979.223 1130.05> 502 136<980.378 1131.83> 1012 180<264 1254>
DStem2: 366 264 366 0 0.630152 0.776472<0 306.033> 689 662 689 396 0.630152 -0.776472<206.542 512.575>
LayerCount: 2
Fore
SplineSet
638 1057 m 0xe7
 638 936 539 833 412 833 c 0
 397 833 381 835 366 838 c 1
 366 264 l 1
 689 662 l 1
 1012 264 l 1
 1012 1254 l 1
 1192 1254 l 1
 1192 0 l 1
 1012 0 l 1
 689 396 l 1
 366 0 l 1xdb
 186 0 l 25
 186 1055 l 2
 186 1187 298 1279 402 1279 c 0
 545 1279 638 1173 638 1057 c 0xe7
412 967 m 0
 460 967 502 1006 502 1056 c 0
 502 1095 475 1146 402 1146 c 0
 370 1146 322 1111 322 1056 c 0xe7
 322 1004 365 967 412 967 c 0
EndSplineSet
Validated: 1
EndChar

StartChar: uni0E1D
Encoding: 3613 3613 152
Width: 1373
VWidth: 2045
Flags: W
HStem: 0 21G<186 382.313 995.687 1192> 833 134<366.619 487.518> 1146 133<334.858 489.634>
VStem: 186 180<264 838> 186 136<979.223 1133.34> 502 136<980.378 1132.9> 1012 180<264 1832>
DStem2: 366 264 366 0 0.630152 0.776472<0 306.033> 689 662 689 396 0.630152 -0.776472<206.542 512.575>
AnchorPoint: "AboveBase" 903 1339 basechar 0
LayerCount: 2
Fore
SplineSet
638 1057 m 0xee
 638 936 539 833 412 833 c 0
 397 833 381 835 366 838 c 1
 366 264 l 1
 689 662 l 1
 1012 264 l 1
 1012 1832 l 1
 1192 1832 l 1
 1192 0 l 1
 1012 0 l 1
 689 396 l 1
 366 0 l 1xf6
 186 0 l 25
 186 1055 l 2
 186 1182 290 1279 412 1279 c 0
 537 1279 638 1177 638 1057 c 0xee
412 967 m 0
 460 967 502 1006 502 1056 c 0
 502 1108 459 1146 412 1146 c 0
 364 1146 322 1108 322 1056 c 0xee
 322 1004 365 967 412 967 c 0
EndSplineSet
Validated: 1
EndChar

StartChar: uni0E1E
Encoding: 3614 3614 153
Width: 1552
VWidth: 2045
Flags: W
HStem: 0 21G<356 542.863 1183.14 1370> 833 134<234.5 355.523> 1146 133<235.616 387.469> 1234 20G<797.308 926.75 1190 1370>
VStem: 85 136<980.029 1133.5> 356 180<453 838> 400 136<978.99 1132.94> 1190 180<454 1254>
DStem2: 536 453 536 0 0.324553 0.945868<0 579.063> 920 1254 863 953 0.324553 -0.945868<266.207 844.323>
LayerCount: 2
Fore
SplineSet
310 1279 m 0xed
 433 1279 536 1181 536 1055 c 2xeb
 536 453 l 1xed
 804 1254 l 1
 920 1254 l 1
 1190 454 l 1
 1190 1254 l 1
 1370 1254 l 1
 1370 0 l 1
 1190 0 l 1
 863 953 l 1
 536 0 l 1xdb
 356 0 l 1
 356 838 l 1
 341 835 325 833 310 833 c 0
 182 833 85 936 85 1057 c 0
 85 1180 186 1279 310 1279 c 0xed
311 1146 m 0
 263 1146 221 1108 221 1056 c 0
 221 1003 265 967 311 967 c 0
 357 967 400 1003 400 1056 c 0
 400 1108 359 1146 311 1146 c 0
EndSplineSet
Validated: 1
EndChar

StartChar: uni0E1F
Encoding: 3615 3615 154
Width: 1552
VWidth: 2045
Flags: W
HStem: 0 21G<356 542.863 1183.14 1370> 833 134<234.5 355.523> 1146 133<235.616 387.669> 1234 20G<797.308 926.75>
VStem: 85 136<980.029 1133.5> 356 180<453 838> 400 136<978.99 1132.53> 1190 180<454 1832>
DStem2: 536 453 536 0 0.324553 0.945868<0 579.063> 920 1254 863 953 0.324553 -0.945868<266.207 844.323>
AnchorPoint: "AboveBase" 1015 1339 basechar 0
LayerCount: 2
Fore
SplineSet
310 1279 m 0xed
 434 1279 536 1180 536 1055 c 2xeb
 536 453 l 1xed
 804 1254 l 1
 920 1254 l 1
 1190 454 l 1
 1190 1832 l 1
 1370 1832 l 1
 1370 0 l 1
 1190 0 l 1
 863 953 l 1
 536 0 l 1xdb
 356 0 l 1
 356 838 l 1
 341 835 325 833 310 833 c 0
 182 833 85 936 85 1057 c 0
 85 1180 186 1279 310 1279 c 0xed
311 1146 m 0
 263 1146 221 1108 221 1056 c 0
 221 1003 265 967 311 967 c 0
 357 967 400 1003 400 1056 c 0
 400 1108 359 1146 311 1146 c 0
EndSplineSet
Validated: 1
EndChar

StartChar: uni0E20
Encoding: 3616 3616 155
Width: 1465
VWidth: 2045
Flags: W
HStem: -11 134<235.708 388.198> 302 133<234.366 356.615> 744 178<537 626> 1101 178<568.236 904.605>
VStem: 86 136<136.482 289.833> 357 180<430 744> 401 136<139.11 289.777> 1092 180<0 913.086>
LayerCount: 2
Fore
SplineSet
86 213 m 0xfb
 86 337 187 435 312 435 c 0
 331 435 346 433 357 430 c 1
 357 744 l 1
 193 744 l 1
 193 1038 436 1279 732 1279 c 0
 1036 1279 1272 1033 1272 744 c 2
 1272 0 l 1
 1092 0 l 1
 1092 744 l 2
 1092 950 926 1101 733 1101 c 0
 597 1101 482 1023 421 922 c 1
 626 922 l 1
 626 744 l 1
 537 744 l 1xfd
 537 213 l 2
 537 84 432 -11 312 -11 c 0
 181 -11 86 93 86 213 c 0xfb
312 302 m 0
 265 302 222 265 222 213 c 0
 222 161 264 123 312 123 c 0
 359 123 401 161 401 213 c 0xfb
 401 265 358 302 312 302 c 0
EndSplineSet
Validated: 1
EndChar

StartChar: uni0E21
Encoding: 3617 3617 156
Width: 1422
VWidth: 2045
Flags: W
HStem: -11 134<262.716 414.031> 302 133<260.963 381.271> 833 134<262.509 381.104> 1146 133<262.963 414.727> 1234 20G<1036 1216>
VStem: 113 136<136.282 290.033 980.345 1133.21> 382 180<430 838> 428 134<136.164 198 979.223 1129.66> 1036 180<168 1254>
DStem2: 562 366 562 198 0.922731 -0.385445<64.7547 513.693>
LayerCount: 2
Fore
SplineSet
338 1279 m 0xf680
 458 1279 562 1186 562 1055 c 2
 562 366 l 1
 1036 168 l 1
 1036 1254 l 1
 1216 1254 l 1
 1216 0 l 1
 1036 0 l 1
 562 198 l 17xed80
 557 96 470 -11 338 -11 c 0
 210 -11 113 92 113 213 c 0
 113 338 215 435 337 435 c 0
 356 435 369 433 382 430 c 1
 382 838 l 1
 367 835 352 833 338 833 c 0
 208 833 114 937 114 1057 c 0
 114 1178 211 1279 338 1279 c 0xf680
338 302 m 0
 291 302 249 265 249 213 c 0
 249 161 290 123 338 123 c 0
 390 123 428 165 428 212 c 0
 428 263 384 302 338 302 c 0
338 1146 m 0xf580
 290 1146 249 1109 249 1056 c 0
 249 1004 291 967 339 967 c 0
 387 967 428 1004 428 1056 c 0
 428 1109 387 1146 338 1146 c 0xf580
EndSplineSet
Validated: 1
EndChar

StartChar: uni0E22
Encoding: 3618 3618 157
Width: 1321
VWidth: 2045
Flags: W
HStem: 0 178<408 937> 539 178<425.9 682> 835 133<380.234 535.697> 1146 133<381.287 533.865> 1234 20G<937 1117>
VStem: 126 172<775.227 907> 228 180<178 523.75> 548 136<978.859 1132.26> 937 180<178 1254>
LayerCount: 2
Fore
SplineSet
468 835 m 0xf580
 387 835 330 861 298 907 c 1xf580
 298 791 369 717 479 717 c 2
 682 717 l 1
 682 539 l 1
 487 539 l 2
 473 539 408 510 408 446 c 2
 408 178 l 1
 937 178 l 1
 937 1254 l 1
 1117 1254 l 1
 1117 0 l 1
 228 0 l 1
 228 484 l 2xeb80
 228 540 245 584 280 616 c 1
 206 648 126 785 126 907 c 0
 126 1095 241 1279 447 1279 c 0
 586 1279 684 1184 684 1057 c 0
 684 943 593 835 468 835 c 0xf580
460 1146 m 0
 413 1146 368 1110 368 1057 c 0
 368 1004 410 968 459 968 c 0
 512 968 548 1007 548 1057 c 0
 548 1108 507 1146 460 1146 c 0
EndSplineSet
Validated: 1
EndChar

StartChar: uni0E23
Encoding: 3619 3619 158
Width: 1172
VWidth: 2045
Flags: W
HStem: -11 134<519.842 672.662> 302 133<518.327 640.393> 744 178<312 629.914> 1101 178<451.326 795.408>
VStem: 370 136<136.282 289.833> 641 180<430 726.66> 685 136<135.465 289.272>
LayerCount: 2
Fore
SplineSet
596 302 m 0xfa
 549 302 506 265 506 213 c 0
 506 161 548 123 596 123 c 0
 647 123 685 165 685 212 c 0
 685 263 641 302 596 302 c 0xfa
370 213 m 0
 370 337 472 435 595 435 c 0
 614 435 630 433 641 430 c 1
 641 653 l 2
 641 726 587 744 548 744 c 2
 85 744 l 1
 85 1043 329 1279 624 1279 c 0
 841 1279 1003 1162 1091 1013 c 1
 935 924 l 1
 907 971 811 1101 624 1101 c 0
 437 1101 340 968 312 922 c 1
 544 922 l 2
 659 922 821 843 821 653 c 2xfc
 821 213 l 2
 821 88 720 -11 595 -11 c 0
 467 -11 370 92 370 213 c 0
EndSplineSet
Validated: 1
EndChar

StartChar: uni0E24
Encoding: 3620 3620 159
Width: 1367
VWidth: 2045
Flags: W
HStem: -11 134<415.465 566.392> 302 133<446.088 568.308> 744 178<445 537> 1101 178<490.812 837.913>
VStem: 265 180<430 744> 265 136<135.713 289.504> 581 136<136.261 286.566> 1024 180<-551 913.651>
LayerCount: 2
Fore
SplineSet
490 302 m 0xf7
 443 302 401 264 401 212 c 0
 401 161 443 123 490 123 c 0
 538 123 581 161 581 212 c 0
 581 264 537 302 490 302 c 0xf7
665 1279 m 0
 962 1279 1204 1037 1204 744 c 2
 1204 -551 l 1
 1024 -551 l 1
 1024 744 l 2
 1024 940 868 1101 665 1101 c 0
 478 1101 380 969 354 922 c 1
 537 922 l 1
 537 744 l 1
 445 744 l 1
 445 430 l 1xfb
 456 433 472 435 491 435 c 0
 615 435 717 337 717 213 c 0
 717 92 618 -11 491 -11 c 0
 364 -11 265 91 265 211 c 2xf7
 265 744 l 1xfb
 125 744 l 1
 125 1036 363 1279 665 1279 c 0
EndSplineSet
Validated: 1
EndChar

StartChar: uni0E25
Encoding: 3621 3621 160
Width: 1385
VWidth: 2045
Flags: W
HStem: -11 134<398.358 551.409> 302 133<430.771 553.326> 675 178<489.016 817.248> 1101 178<473.025 813.456>
VStem: 105 180<744 914.537> 250 180<430 618.83> 250 136<135.259 289.272> 566 136<136.261 287.122> 1003 180<0 491.314 718 909.23>
LayerCount: 2
Fore
SplineSet
250 495 m 2xf580
 250 716 407 853 645 853 c 0
 831 853 929 786 1003 718 c 9
 1003 744 l 2
 1003 949 840 1101 645 1101 c 0
 447 1101 285 942 285 744 c 1
 105 744 l 1xf980
 105 1041 348 1279 645 1279 c 0
 929 1279 1183 1056 1183 744 c 2
 1183 0 l 1
 1003 0 l 1
 1003 317 l 2
 1003 523 839 675 645 675 c 0
 490 675 430 603 430 496 c 2
 430 430 l 1xf580
 442 433 457 435 476 435 c 0
 600 435 702 337 702 213 c 0
 702 92 603 -11 476 -11 c 0
 351 -11 250 89 250 211 c 2xf380
 250 495 l 2xf580
476 302 m 0
 430 302 386 263 386 212 c 0xf380
 386 165 424 123 476 123 c 0
 523 123 566 161 566 212 c 0
 566 264 522 302 476 302 c 0
EndSplineSet
Validated: 1
EndChar

StartChar: uni0E26
Encoding: 3622 3622 161
Width: 1504
VWidth: 2045
Flags: W
HStem: -11 134<265.708 418.198> 302 133<264.366 386.615> 744 178<567 656> 1101 178<598.236 930.247>
VStem: 116 136<136.482 289.833> 387 180<430 744> 431 136<139.11 289.777> 1122 180<-550 911.435>
LayerCount: 2
Fore
SplineSet
116 213 m 0xfb
 116 337 217 435 342 435 c 0
 361 435 376 433 387 430 c 1
 387 744 l 1
 223 744 l 1
 223 1038 466 1279 762 1279 c 0
 1066 1279 1302 1033 1302 744 c 2
 1302 -550 l 1
 1122 -551 l 1
 1122 744 l 2
 1122 935 965 1101 763 1101 c 0
 627 1101 512 1023 451 922 c 1
 656 922 l 1
 656 744 l 1
 567 744 l 1xfd
 567 213 l 2
 567 84 462 -11 342 -11 c 0
 211 -11 116 93 116 213 c 0xfb
342 302 m 0
 295 302 252 265 252 213 c 0
 252 161 294 123 342 123 c 0
 389 123 431 161 431 213 c 0xfb
 431 265 388 302 342 302 c 0
EndSplineSet
Validated: 1
EndChar

StartChar: uni0E27
Encoding: 3623 3623 162
Width: 1174
VWidth: 2045
Flags: W
HStem: -11 134<697.048 852.274> 302 133<699.693 819.92> 1101 178<401.62 696.88>
VStem: 98 180<832 971.546> 551 134<135.562 288.98> 821 180<430 971.546> 865 136<135.259 289.272>
LayerCount: 2
Fore
SplineSet
550 1101 m 0xfc
 398 1101 278 981 278 832 c 1
 98 832 l 17
 98 1069 289 1279 550 1279 c 0
 810 1279 1001 1069 1001 832 c 2xfc
 1001 213 l 2xfa
 1001 86 897 -11 775 -11 c 0
 649 -11 551 89 551 213 c 0
 551 334 646 435 777 435 c 0
 795 435 810 433 821 430 c 1
 821 832 l 2
 821 983 697 1101 550 1101 c 0xfc
775 302 m 0
 722 302 685 258 685 212 c 0
 685 165 721 123 775 123 c 0
 829 123 865 165 865 212 c 0xfa
 865 258 828 302 775 302 c 0
EndSplineSet
Validated: 1
EndChar

StartChar: uni0E28
Encoding: 3624 3624 163
Width: 1398
VWidth: 2045
Flags: W
HStem: 0 21G<161 348.375 1040 1220> 453 133<608.98 762.959> 764 133<610.586 760.991> 1101 178<523.392 860.682>
VStem: 161 180<322 914.556> 776 136<598.283 751.639> 1040 180<0 827.847> 1128 180<1155.98 1349>
DStem2: 341 322 341 0 0.345957 0.93825<0 249.975>
LayerCount: 2
Fore
SplineSet
896 757 m 1xfe
 907 733 912 706 912 675 c 0
 912 551 807 453 686 453 c 0
 623 453 572 475 532 518 c 1
 341 0 l 1
 161 0 l 1
 161 745 l 2
 161 1106 442 1279 691 1279 c 0
 867 1279 961 1220 1065 1120 c 1
 1108 1189 1128 1265 1128 1349 c 1
 1308 1349 l 1xfd
 1308 1174 1232 1036 1173 964 c 1
 1204 897 1220 824 1220 745 c 2
 1220 0 l 1
 1040 0 l 1
 1040 744 l 2
 1040 776 1037 805 1030 831 c 1
 982 800 937 768 896 757 c 1xfe
943 987 m 1
 877 1063 796 1101 694 1101 c 0
 470 1101 341 926 341 745 c 2
 341 322 l 1
 482 769 l 2
 488 789 546 897 686 897 c 0
 799 897 885 936 943 987 c 1
686 764 m 0
 635 764 596 723 596 675 c 0
 596 622 641 586 687 586 c 0
 734 586 776 624 776 675 c 0
 776 723 738 764 686 764 c 0
EndSplineSet
Validated: 1
EndChar

StartChar: uni0E29
Encoding: 3625 3625 164
Width: 1505
VWidth: 2045
Flags: W
HStem: 0 178<290 381 561 1081> 384 163<941 1078.28> 755 133<695.883 850.213> 833 134<259.5 380.477> 1146 133<260.616 412.761> 1234 20G<1081 1261>
VStem: 110 136<980.029 1133.5> 381 180<178 597 733 838> 425 136<979.223 1132.53> 863 135<588.829 742.756> 1081 180<178 411 808 1254>
LayerCount: 2
Fore
SplineSet
998 679 m 0xeb60
 998 619 976 574 941 547 c 1
 995 547 1037 556 1081 580 c 9
 1081 1254 l 1
 1261 1254 l 1
 1261 808 l 1
 1403 713 l 1
 1362 627 1315 560 1261 511 c 1
 1261 0 l 1
 290 0 l 1
 290 178 l 1
 381 178 l 1
 381 838 l 1xe760
 364 835 349 833 335 833 c 0
 207 833 110 936 110 1057 c 0
 110 1180 211 1279 335 1279 c 0
 460 1279 561 1180 561 1055 c 2xdae0
 561 733 l 1
 571 767 618 888 773 888 c 0
 895 888 998 786 998 679 c 0xeb60
1081 411 m 17
 1023 393 962 384 899 384 c 0
 718 384 597 466 561 597 c 1
 561 178 l 1
 1081 178 l 1
 1081 411 l 17
773 755 m 0
 719 755 683 713 683 666 c 0
 683 618 721 577 773 577 c 0
 825 577 863 618 863 666 c 0
 863 713 827 755 773 755 c 0
336 1146 m 0xdae0
 288 1146 246 1108 246 1056 c 0
 246 1003 290 967 336 967 c 0
 382 967 425 1004 425 1056 c 0
 425 1107 383 1146 336 1146 c 0xdae0
EndSplineSet
Validated: 1
EndChar

StartChar: uni0E2A
Encoding: 3626 3626 165
Width: 1385
VWidth: 2045
Flags: W
HStem: -11 134<398.358 551.409> 302 133<430.771 553.326> 675 178<491.983 813.11> 1101 178<473.025 814.937>
VStem: 105 180<744 914.537> 250 180<430 618.83> 250 136<135.259 289.272> 566 136<136.261 287.122> 1003 180<0 491.757 709 814.734> 1097 180<1104.23 1300>
LayerCount: 2
Fore
SplineSet
1000 817 m 1xf180
 977 800 951 785 922 773 c 1
 953 756 980 735 1003 709 c 1
 1003 744 l 2
 1003 781 1002 806 1000 817 c 1xf180
645 1279 m 0
 811 1279 953 1204 1049 1098 c 1
 1082 1161 1097 1229 1097 1300 c 1
 1277 1300 l 1xf940
 1277 1151 1233 1036 1153 927 c 1
 1173 869 1183 808 1183 744 c 2
 1183 0 l 1
 1003 0 l 1
 1003 317 l 2
 1003 524 837 675 645 675 c 0
 490 675 430 603 430 496 c 2
 430 430 l 1xf580
 442 433 457 435 476 435 c 0
 600 435 702 337 702 213 c 0
 702 92 603 -11 476 -11 c 0
 351 -11 250 89 250 211 c 2xf3
 250 495 l 2xf5
 250 716 407 853 645 853 c 0
 760 853 845 887 935 954 c 1
 907 989 819 1101 645 1101 c 0
 447 1101 285 942 285 744 c 1
 105 744 l 1xf9
 105 1041 348 1279 645 1279 c 0
476 302 m 0
 430 302 386 263 386 212 c 0xf3
 386 165 424 123 476 123 c 0
 523 123 566 161 566 212 c 0
 566 264 522 302 476 302 c 0
EndSplineSet
Validated: 1
EndChar

StartChar: uni0E2B
Encoding: 3627 3627 166
Width: 1507
VWidth: 2045
Flags: W
HStem: 0 21G<366 556.316 1120 1300> 786 181<998.608 1100.86> 833 134<244.5 365.477> 1146 133<245.616 397.469 998.157 1152.86>
VStem: 95 136<980.029 1133.5> 366 180<316 838> 410 136<978.99 1132.94> 851 136<978.515 1134.27> 1120 180<0 766.686> 1166 134<980.14 1132.73>
DStem2: 546 316 546 0 0.458425 0.888733<0 624.996>
LayerCount: 2
Fore
SplineSet
1076 1146 m 0xd940
 1026 1146 987 1110 987 1057 c 0
 987 1003 1026 967 1076 967 c 0
 1128 967 1166 1008 1166 1057 c 0
 1166 1110 1123 1146 1076 1146 c 0xd940
1076 1279 m 0
 1195 1279 1300 1188 1300 1057 c 0xbd40
 1300 984 1271 926 1215 883 c 1
 1272 834 1300 761 1300 664 c 2
 1300 0 l 1
 1120 0 l 1
 1120 679 l 2
 1120 718 1098 786 1009 786 c 0
 971 786 942 766 921 727 c 2
 546 0 l 1xdb80
 366 0 l 1
 366 838 l 1xdd
 349 835 334 833 320 833 c 0
 192 833 95 936 95 1057 c 0
 95 1180 196 1279 320 1279 c 0
 443 1279 546 1181 546 1055 c 2xbb
 546 316 l 1xbd
 782 792 l 2
 812 850 849 894 895 924 c 1
 866 961 851 1006 851 1057 c 0
 851 1180 952 1279 1076 1279 c 0
321 1146 m 0
 273 1146 231 1108 231 1056 c 0
 231 1003 275 967 321 967 c 0
 367 967 410 1003 410 1056 c 0xbb
 410 1108 369 1146 321 1146 c 0
EndSplineSet
Validated: 1
EndChar

StartChar: uni0E2C
Encoding: 3628 3628 167
Width: 1654
VWidth: 2045
Flags: W
HStem: 0 21G<366 553.721 1192.28 1380> 833 134<244.5 365.523> 1118 134<1076.41 1199.21> 1146 133<245.616 395.644> 1430 134<1078.39 1230.3>
VStem: 95 136<980.029 1133.5> 366 180<430 838> 410 136<978.99 1131.33> 928 136<1266.19 1417.66> 1200 180<432 1122>
DStem2: 546 430 546 0 0.36016 0.932891<0 506.788> 930 1118 873 847 0.36016 -0.932891<232.284 737.206>
AnchorPoint: "AboveBase" 828 1339 basechar 0
LayerCount: 2
Fore
SplineSet
1154 1564 m 0xeec0
 1267 1564 1328 1485 1343 1462 c 1
 1430 1548 l 1
 1556 1421 l 1
 1380 1246 l 1
 1380 0 l 1
 1200 0 l 1
 873 847 l 1
 546 0 l 1xedc0
 366 0 l 1
 366 838 l 1xeec0
 351 835 335 833 320 833 c 0
 192 833 95 936 95 1057 c 0
 95 1180 196 1279 320 1279 c 0
 447 1279 546 1177 546 1055 c 2xddc0
 546 430 l 1
 814 1118 l 1
 930 1118 l 1
 1200 432 l 1
 1200 1122 l 1
 1186 1119 1171 1118 1154 1118 c 0
 1032 1118 928 1215 928 1341 c 0
 928 1464 1026 1564 1154 1564 c 0xeec0
1154 1430 m 0
 1102 1430 1064 1388 1064 1340 c 0
 1064 1293 1102 1252 1153 1252 c 0
 1205 1252 1244 1293 1244 1340 c 0
 1244 1388 1206 1430 1154 1430 c 0
321 1146 m 0xddc0
 273 1146 231 1108 231 1056 c 0
 231 1003 275 967 321 967 c 0
 367 967 410 1003 410 1056 c 0
 410 1108 369 1146 321 1146 c 0xddc0
EndSplineSet
Validated: 1
EndChar

StartChar: uni0E2D
Encoding: 3629 3629 168
Width: 1364
VWidth: 2045
Flags: W
HStem: 0 178<517 995> 454 133<517.765 639.435> 765 134<486.071 638.642> 1101 178<463.803 807.168>
VStem: 96 180<744 904.403> 337 180<178 457> 337 136<597.974 752.363> 652 134<599.076 752.201> 995 180<178 915.288>
LayerCount: 2
Fore
SplineSet
786 676 m 0xfb80
 786 552 686 454 562 454 c 0
 547 454 531 455 517 457 c 1
 517 178 l 1xfd80
 995 178 l 1
 995 743 l 2
 995 945 833 1101 635 1101 c 0
 438 1101 276 941 276 744 c 1
 96 744 l 1
 96 1043 340 1279 635 1279 c 0
 933 1279 1175 1040 1175 743 c 2
 1175 0 l 1
 337 0 l 1
 337 678 l 2
 337 796 432 899 562 899 c 0
 692 899 786 795 786 676 c 0xfb80
562 587 m 0
 615 587 652 628 652 676 c 0
 652 726 616 765 562 765 c 0
 507 765 473 724 473 676 c 0xfb80
 473 628 509 587 562 587 c 0
EndSplineSet
Validated: 1
EndChar

StartChar: uni0E2E
Encoding: 3630 3630 169
Width: 1298
VWidth: 2045
Flags: W
HStem: 0 178<381 898> 306 133<381.454 504.569> 617 133<349.338 504.305> 791 178<298.818 769.921> 1101 178<315.776 713.168>
VStem: 114 180<991.096 1068.68> 201 180<178 309> 201 136<450.99 604.889> 517 136<453.969 604.924> 898 180<178 875.983>
LayerCount: 2
Fore
SplineSet
531 1101 m 0xfcc0
 397 1101 294 1072 294 1023 c 0
 294 981 441 969 534 969 c 0
 622 969 702 978 773 1014 c 1
 709 1074 629 1101 531 1101 c 0xfcc0
653 528 m 0
 653 403 550 306 427 306 c 0
 410 306 395 307 381 309 c 1
 381 178 l 1xfac0
 898 178 l 1
 898 743 l 2
 898 790 889 835 871 878 c 1
 777 826 657 791 514 791 c 0
 223 791 114 944 114 1020 c 0xfcc0
 114 1125 235 1279 545 1279 c 0
 731 1279 869 1173 919 1123 c 1
 962 1170 992 1221 1008 1276 c 1
 1160 1194 l 1
 1133 1120 1086 1051 1018 987 c 1
 1058 912 1078 830 1078 743 c 2
 1078 0 l 1
 201 0 l 1
 201 528 l 2xf9c0
 201 652 302 750 427 750 c 0
 551 750 653 652 653 528 c 0
426 439 m 0
 472 439 517 475 517 528 c 0
 517 576 478 617 426 617 c 0
 375 617 337 576 337 528 c 0xf9c0
 337 475 380 439 426 439 c 0
EndSplineSet
Validated: 1
EndChar

StartChar: uni0E2F
Encoding: 3631 3631 170
Width: 1295
VWidth: 2045
Flags: W
HStem: 0 21G<919 1099> 742 178<353 744.203> 1145 134<263.314 416.611> 1234 20G<919 1099>
VStem: 116 134<981.433 1133.06> 430 136<978.611 1131.5> 919 180<0 880 1088.35 1254>
LayerCount: 2
Fore
SplineSet
340 1279 m 0xee
 472 1279 566 1176 566 1054 c 0
 566 1005 547 962 511 926 c 1
 531 921 547 920 562 920 c 0
 758 920 919 1055 919 1254 c 1
 1099 1254 l 1xde
 1099 0 l 1
 919 0 l 1
 919 880 l 1
 863 825 731 742 503 742 c 0
 203 742 116 946 116 1050 c 0
 116 1174 208 1279 340 1279 c 0xee
341 1145 m 0xee
 289 1145 250 1105 250 1056 c 0
 250 1012 285 967 341 967 c 0
 398 967 430 1014 430 1056 c 0
 430 1107 389 1145 341 1145 c 0xee
EndSplineSet
Validated: 1
EndChar

StartChar: uni0E30
Encoding: 3632 3632 171
Width: 1158
VWidth: 2045
Flags: W
HStem: 45 163<489 649.359> 417 133<245.734 397.162> 665 163<489 646.547> 1036 133<244.426 400.014> 1069 20G<782.5 839.684>
VStem: 99 133<250.432 402.539 870.783 1023.48> 412 135<250.526 404.117 870.435 1023.11>
LayerCount: 2
Fore
SplineSet
810 1089 m 1xee
 951 994 l 1
 883 847 751 665 452 665 c 0
 173 665 99 839 99 941 c 0
 99 1076 197 1169 322 1169 c 0xf6
 448 1169 547 1063 547 961 c 0
 547 908 530 857 489 828 c 1
 672 828 755 957 810 1089 c 1xee
322 1036 m 0
 269 1036 232 995 232 946 c 0
 232 897 270 858 322 858 c 0
 374 858 412 899 412 946 c 0
 412 993 376 1036 322 1036 c 0
810 470 m 1
 951 375 l 1
 885 233 753 45 456 45 c 0
 138 45 99 256 99 322 c 0
 99 462 204 550 322 550 c 0
 448 550 547 444 547 342 c 0
 547 283 526 236 489 208 c 1
 671 208 753 335 810 470 c 1
322 417 m 0
 273 417 232 379 232 327 c 0
 232 274 274 238 322 238 c 0
 369 238 412 274 412 327 c 0
 412 379 369 417 322 417 c 0
EndSplineSet
Validated: 1
EndChar

StartChar: uni0E31
Encoding: 3633 3633 172
Width: 0
VWidth: 2045
Flags: W
HStem: 1378 163<-422 -218.847> 1749 133<-667.398 -514.31>
VStem: -813 133<1584.48 1736.61> -500 135<1583.04 1736.21>
AnchorPoint: "AboveMark" -339 2070 basemark 0
AnchorPoint: "AboveBase" -278 1339 mark 0
LayerCount: 2
Fore
SplineSet
-422 1541 m 1
 -250 1541 -121 1608 -3 1802 c 1
 139 1707 l 1
 -42 1405 -304 1378 -454 1378 c 0
 -759 1378 -813 1582 -813 1654 c 0
 -813 1789 -715 1882 -590 1882 c 0
 -461 1882 -365 1776 -365 1673 c 0
 -365 1616 -386 1567 -422 1541 c 1
-590 1749 m 0
 -646 1749 -680 1704 -680 1659 c 0
 -680 1612 -643 1571 -590 1571 c 0
 -538 1571 -500 1612 -500 1659 c 0
 -500 1704 -534 1749 -590 1749 c 0
EndSplineSet
Validated: 1
EndChar

StartChar: uni0E32
Encoding: 3634 3634 173
Width: 1169
VWidth: 2045
Flags: W
HStem: 0 21G<798 978> 1101 178<379.036 674.08>
VStem: 75 180<832 975.029> 798 180<0 974.255>
LayerCount: 2
Fore
SplineSet
526 1279 m 0
 777 1279 978 1076 978 832 c 2
 978 0 l 1
 798 0 l 1
 798 832 l 2
 798 986 673 1101 526 1101 c 0
 369 1101 255 977 255 832 c 1
 75 832 l 1
 75 1078 277 1279 526 1279 c 0
EndSplineSet
Validated: 1
EndChar

StartChar: uni0E34
Encoding: 3636 3636 175
Width: 0
VWidth: 2045
Flags: W
HStem: 1726 174<-872.833 -537.662>
DStem2: -939 1636 -1229 1507 0.995651 -0.0931658<0 516.33>
AnchorPoint: "AboveMark" -250 2070 basemark 0
AnchorPoint: "AboveBase" -163 1339 mark 0
LayerCount: 2
Fore
SplineSet
-425 1587 m 1
 -447 1616 -536 1726 -709 1726 c 0
 -744 1726 -900 1694 -939 1636 c 9
 -425 1587 l 1
-1229 1507 m 17
 -1143 1807 -880 1900 -712 1900 c 0
 -470 1900 -208 1736 -171 1408 c 1
 -1229 1507 l 17
EndSplineSet
Validated: 1
EndChar

StartChar: uni0E35
Encoding: 3637 3637 176
Width: 0
VWidth: 2045
Flags: W
HStem: 1723 174<-872.833 -535.177>
VStem: -328 157<1741 2040>
DStem2: -939 1633 -1229 1504 0.995651 -0.0931658<0 516.33>
AnchorPoint: "AboveBase" -159 1339 mark 0
AnchorPoint: "AboveMark" -250 2070 basemark 0
LayerCount: 2
Fore
SplineSet
-1229 1504 m 1
 -1143 1804 -880 1897 -712 1897 c 0
 -559 1897 -427 1824 -328 1741 c 9
 -328 2040 l 1
 -171 2040 l 1
 -171 1405 l 1
 -1229 1504 l 1
-425 1584 m 1
 -447 1613 -536 1723 -709 1723 c 0
 -744 1723 -900 1691 -939 1633 c 9
 -425 1584 l 1
EndSplineSet
Validated: 1
EndChar

StartChar: uni0E36
Encoding: 3638 3638 177
Width: 0
VWidth: 2045
Flags: W
HStem: 1721 174<-872.833 -585.866> 1971 133<-438.944 -285.326>
VStem: -588 135<1881 1956.81> -273 136<1805.36 1958.78>
DStem2: -939 1631 -1229 1502 0.995651 -0.0931658<0 516.33>
AnchorPoint: "AboveBase" -174 1339 mark 0
AnchorPoint: "AboveMark" -363 2070 basemark 0
LayerCount: 2
Fore
SplineSet
-137 1882 m 0
 -137 1759 -231 1695 -273 1677 c 1
 -217 1601 -183 1510 -171 1403 c 1
 -1229 1502 l 1
 -1143 1802 -880 1895 -712 1895 c 0
 -663 1895 -612 1886 -588 1881 c 1
 -588 2002 -493 2104 -363 2104 c 0
 -239 2104 -137 2007 -137 1882 c 0
-363 1971 m 0
 -415 1971 -453 1928 -453 1881 c 0
 -453 1828 -407 1793 -363 1793 c 0
 -314 1793 -273 1832 -273 1881 c 0
 -273 1927 -309 1971 -363 1971 c 0
-425 1582 m 1
 -447 1611 -536 1721 -709 1721 c 0
 -744 1721 -900 1689 -939 1631 c 9
 -425 1582 l 1
EndSplineSet
Validated: 1
EndChar

StartChar: uni0E37
Encoding: 3639 3639 178
Width: 0
VWidth: 2045
Flags: W
HStem: 1728 174<-872.833 -565.811>
VStem: -564 157<1879 2045> -328 157<1746 2045>
DStem2: -939 1638 -1229 1509 0.995651 -0.0931658<0 516.33>
AnchorPoint: "AboveMark" -368 2070 basemark 0
AnchorPoint: "AboveBase" -175 1339 mark 0
LayerCount: 2
Fore
SplineSet
-1229 1509 m 1
 -1143 1809 -880 1902 -712 1902 c 0
 -662 1902 -615 1894 -564 1879 c 1
 -564 2045 l 1
 -407 2045 l 1
 -407 1806 l 17
 -377 1785 -351 1765 -328 1746 c 1
 -328 2045 l 1
 -171 2045 l 1
 -171 1410 l 1
 -1229 1509 l 1
-425 1589 m 1
 -447 1618 -536 1728 -709 1728 c 0
 -744 1728 -900 1696 -939 1638 c 9
 -425 1589 l 1
EndSplineSet
Validated: 1
EndChar

StartChar: uni0E38
Encoding: 3640 3640 179
Width: 0
VWidth: 2045
Flags: W
HStem: -532 133<-458.681 -338.863> -221 134<-460.532 -307.081>
VStem: -610 136<-383.774 -233.289> -338 180<-755 -529> -294 136<-386.504 -235.239>
AnchorPoint: "BelowMark" -159 -88 mark 0
AnchorPoint: "BelowMark" -159 -874 basemark 0
AnchorPoint: "BelowBase" -159 -88 mark 0
LayerCount: 2
Fore
SplineSet
-384 -87 m 0xf0
 -252 -87 -158 -194 -158 -308 c 2xe8
 -158 -755 l 1
 -338 -755 l 9
 -338 -529 l 1
 -354 -531 -369 -532 -384 -532 c 0
 -509 -532 -610 -434 -610 -310 c 0
 -610 -188 -514 -87 -384 -87 c 0xf0
-384 -221 m 0
 -436 -221 -474 -261 -474 -309 c 0
 -474 -358 -433 -399 -384 -399 c 0
 -338 -399 -294 -361 -294 -309 c 0
 -294 -261 -332 -221 -384 -221 c 0
EndSplineSet
Validated: 1
Substitution2: "Thai Sara U Mai Ek Reordering" uni0E48.low
Substitution2: "Thai Sara U Mai Tho Reordering" uni0E49.low
Substitution2: "Thai Sara U Mai Tri Reordering" uni0E4A.low
Substitution2: "Thai Sara U Mai Chattawa Reordering" uni0E4B.low
Substitution2: "Thai Sara U Thanthakhat Reordering" uni0E4C.low
Substitution2: "Thai Sara U Nikhahit Reordering" uni0E4D
EndChar

StartChar: uni0E39
Encoding: 3641 3641 180
Width: 0
VWidth: 2045
Flags: W
HStem: -775 156<-501 -338> -532 133<-802.028 -681.618> -221 134<-803.398 -649.67>
VStem: -952 136<-386.112 -233.654> -681 180<-619 -529> -637 136<-386.504 -234.438> -338 180<-619 -85>
AnchorPoint: "BelowMark" -158 -85 mark 0
AnchorPoint: "BelowMark" -112 -874 basemark 0
AnchorPoint: "BelowBase" -158 -85 mark 0
LayerCount: 2
Fore
SplineSet
-727 -87 m 0xfa
 -594 -87 -501 -192 -501 -308 c 2xf6
 -501 -619 l 1
 -338 -619 l 1
 -338 -85 l 1
 -158 -85 l 1
 -158 -775 l 1
 -681 -775 l 25
 -681 -529 l 1
 -696 -531 -711 -532 -727 -532 c 0
 -853 -532 -952 -432 -952 -310 c 0
 -952 -190 -858 -87 -727 -87 c 0xfa
-727 -221 m 0
 -775 -221 -816 -256 -816 -309 c 0
 -816 -364 -771 -399 -727 -399 c 0
 -680 -399 -637 -361 -637 -309 c 0
 -637 -261 -673 -221 -727 -221 c 0
EndSplineSet
Validated: 1
Substitution2: "Thai Sara UU Mai Ek Reordering" uni0E48.low
Substitution2: "Thai Sara UU Mai Tho Reordering" uni0E49.low
Substitution2: "Thai Sara UU Mai Tri Reordering" uni0E4A.low
Substitution2: "Thai Sara UU Mai Chattawa Reordering" uni0E4B.low
Substitution2: "Thai Sara UU Thanthakhat Reordering" uni0E4C.low
Substitution2: "Thai Sara UU Nikhahit Reordering" uni0E4D
EndChar

StartChar: uni0E3A
Encoding: 3642 3642 181
Width: 0
VWidth: 2045
Flags: W
HStem: -438 356<-488.489 -253.23>
VStem: -552 360<-376.849 -143.31>
AnchorPoint: "BelowMark" -185 -86 mark 0
AnchorPoint: "BelowMark" -185 -537 basemark 0
AnchorPoint: "BelowBase" -185 -86 mark 0
LayerCount: 2
Fore
SplineSet
-370 -438 m 0
 -469 -438 -552 -360 -552 -258 c 0
 -552 -158 -471 -82 -370 -82 c 0
 -266 -82 -192 -162 -192 -258 c 0
 -192 -360 -271 -438 -370 -438 c 0
EndSplineSet
Validated: 1
Substitution2: "Thai Phinthu Maitaikhu Reordering" uni0E47
Substitution2: "Thai Phinthu Mai Ek Reordering" uni0E48.low
Substitution2: "Thai Phinthu Mai Tho Reordering" uni0E49.low
Substitution2: "Thai Phinthu Mai Tri Reordering" uni0E4A.low
Substitution2: "Thai Phinthu Mai Chattawa Reordering" uni0E4B.low
Substitution2: "Thai Phinthu Thanthakhat Reordering" uni0E4C.low
Substitution2: "Thai Phinthu Nikhahit Reordering" uni0E4D
EndChar

StartChar: uni0E3F
Encoding: 3647 3647 182
Width: 1364
VWidth: 2045
Flags: W
HStem: 0 172<345 550 707 945.044> 669 174<345 550 707 908.803> 1278 172<345 550 707 895.146>
VStem: 165 180<172 669 843 1278> 550 157<-131 0 172 669 843 1276 1450 1598> 994 191<922.608 1195.24> 1055 201<274.158 566.426>
LayerCount: 2
Fore
SplineSet
980 772 m 1xfc
 1139 728 1256 605 1256 420 c 0xfa
 1256 252 1180 0 707 0 c 9
 707 -131 l 1
 550 -131 l 1
 550 0 l 1
 165 0 l 1
 165 1450 l 1
 550 1450 l 1
 550 1598 l 1
 707 1598 l 1
 707 1450 l 1
 1133 1448 1185 1191 1185 1080 c 0
 1185 1004 1152 856 980 772 c 1xfc
707 843 m 17
 806 846 994 852 994 1056 c 0xfc
 994 1265 816 1271 707 1276 c 1
 707 843 l 17
707 172 m 17
 861 172 1055 194 1055 420 c 0xfa
 1055 619 900 664 707 669 c 1
 707 172 l 17
550 172 m 25
 550 669 l 1
 345 669 l 1
 345 172 l 1
 550 172 l 25
550 841 m 25
 550 1278 l 1
 345 1278 l 1
 345 843 l 1
 550 841 l 25
EndSplineSet
Validated: 1
EndChar

StartChar: uni0E40
Encoding: 3648 3648 183
Width: 706
VWidth: 2045
Flags: W
HStem: -11 134<336.226 487.697> 302 133<368.41 487.25> 1234 20G<188 368>
VStem: 188 180<430 1254> 188 134<136.915 290.19> 502 134<136.363 289.639>
LayerCount: 2
Fore
SplineSet
412 302 m 0xec
 356 302 322 257 322 212 c 0
 322 165 361 123 412 123 c 0
 464 123 502 165 502 212 c 0
 502 257 468 302 412 302 c 0xec
412 -11 m 0
 282 -11 188 94 188 211 c 2xec
 188 1254 l 1
 368 1254 l 1
 368 430 l 1xf4
 380 433 395 435 412 435 c 0
 539 435 636 335 636 213 c 0
 636 93 541 -11 412 -11 c 0
EndSplineSet
Validated: 1
EndChar

StartChar: uni0E41
Encoding: 3649 3649 184
Width: 1277
VWidth: 2045
Flags: W
HStem: -11 134<316.226 467.697 903.699 1054.58> 302 133<348.41 467.25 933.526 1056.33> 1234 20G<168 348 753 933>
VStem: 168 180<430 1254> 168 134<136.915 290.19> 482 134<136.363 289.639> 753 180<430 1254> 753 136<135.313 289.969> 1069 136<137.216 287.122>
LayerCount: 2
Fore
SplineSet
979 302 m 0xe580
 932 302 889 266 889 212 c 0
 889 165 928 123 979 123 c 0
 1024 123 1069 161 1069 212 c 0
 1069 264 1025 302 979 302 c 0xe580
979 -11 m 0
 852 -11 753 90 753 211 c 2xe580
 753 1254 l 1
 933 1254 l 1
 933 430 l 1xe680
 944 433 960 435 979 435 c 0
 1103 435 1205 337 1205 213 c 0
 1205 94 1108 -11 979 -11 c 0
392 302 m 0
 336 302 302 257 302 212 c 0xec80
 302 165 341 123 392 123 c 0
 444 123 482 165 482 212 c 0
 482 257 448 302 392 302 c 0
392 -11 m 0
 262 -11 168 94 168 211 c 2xec80
 168 1254 l 1
 348 1254 l 1
 348 430 l 1xf480
 360 433 375 435 392 435 c 0
 519 435 616 335 616 213 c 0
 616 93 521 -11 392 -11 c 0
EndSplineSet
Validated: 1
EndChar

StartChar: uni0E42
Encoding: 3650 3650 185
Width: 852
VWidth: 2045
Flags: W
HStem: -11 134<462.877 614.93> 302 133<495.387 615.258> 1542 178<-14 302.358> 1899 178<124.63 468.708>
VStem: 315 180<430 1530.65> 315 134<136.915 290.19> 629 134<136.38 288.626>
LayerCount: 2
Fore
SplineSet
217 1720 m 2xfa
 345 1720 495 1635 495 1452 c 2
 495 430 l 1xfa
 506 433 521 435 539 435 c 0
 658 435 763 343 763 213 c 0
 763 92 668 -11 539 -11 c 0
 409 -11 315 94 315 211 c 2xf6
 315 1452 l 2
 315 1509 279 1542 222 1542 c 2
 -242 1542 l 1
 -242 1836 -1 2077 298 2077 c 0
 512 2077 678 1959 765 1811 c 1
 609 1722 l 1
 580 1772 485 1899 298 1899 c 0
 111 1899 15 1769 -14 1720 c 1
 217 1720 l 2xfa
539 302 m 0
 483 302 449 257 449 212 c 0xf6
 449 166 485 123 539 123 c 0
 593 123 629 167 629 212 c 0
 629 257 595 302 539 302 c 0
EndSplineSet
Validated: 1
EndChar

StartChar: uni0E43
Encoding: 3651 3651 186
Width: 909
VWidth: 2045
Flags: W
HStem: -11 134<520.474 673.579> 302 133<552.549 675.326> 1384 133<-4.55222 149.402> 1695 136<26.3934 150.671> 1903 178<54.8067 302.408>
VStem: -186 169<1531.43 1817.97> 163 136<1529.59 1680.68> 372 180<430 1833.2> 372 136<140.033 289.969> 688 136<137.216 287.122>
LayerCount: 2
Fore
SplineSet
74 1695 m 0xfe40
 27 1695 -17 1659 -17 1606 c 0
 -17 1559 21 1517 74 1517 c 0
 131 1517 163 1564 163 1606 c 0
 163 1657 122 1695 74 1695 c 0xfe40
598 302 m 0
 551 302 508 266 508 212 c 0xfec0
 508 165 547 123 598 123 c 0
 643 123 688 161 688 212 c 0
 688 264 644 302 598 302 c 0
598 -11 m 0
 473 -11 372 89 372 211 c 2xfec0
 372 1719 l 2
 372 1831 275 1903 186 1903 c 0
 110 1903 66 1883 26 1823 c 1
 42 1823 70 1831 100 1831 c 0
 187 1831 299 1762 299 1606 c 0
 299 1487 204 1384 73 1384 c 0
 -28 1384 -186 1463 -186 1676 c 0
 -186 1954 10 2081 188 2081 c 0
 397 2081 552 1914 552 1719 c 2
 552 430 l 1xff40
 564 433 579 435 598 435 c 0
 722 435 824 337 824 213 c 0
 824 94 727 -11 598 -11 c 0
EndSplineSet
Validated: 1
EndChar

StartChar: uni0E44
Encoding: 3652 3652 187
Width: 903
VWidth: 2045
Flags: W
HStem: -11 134<520.474 673.579> 302 133<552.549 675.326>
VStem: -90 157<1745 2119.08> 372 180<430 1846> 372 136<140.033 289.969> 688 136<137.216 287.122>
DStem2: 67 1745 76 1521 0.679852 0.733349<0 281.423>
LayerCount: 2
Fore
SplineSet
598 -11 m 0xf4
 473 -11 372 89 372 211 c 2xec
 372 1846 l 1xf4
 76 1521 l 1
 -90 1521 l 1
 -90 1997 l 2
 -90 2050 -110 2097 -149 2136 c 1
 -47 2238 l 1
 29 2177 67 2096 67 1997 c 2
 67 1745 l 1
 372 2074 l 1xec
 552 2074 l 25
 552 430 l 1
 564 433 579 435 598 435 c 0
 722 435 824 337 824 213 c 0
 824 94 727 -11 598 -11 c 0xf4
598 302 m 0
 551 302 508 266 508 212 c 0
 508 165 547 123 598 123 c 0
 643 123 688 161 688 212 c 0
 688 264 644 302 598 302 c 0
EndSplineSet
Validated: 1
EndChar

StartChar: uni0E45
Encoding: 3653 3653 188
Width: 1090
VWidth: 2045
Flags: W
HStem: 1101 178<253.031 546.883>
VStem: -52 180<832 976.19> 671 180<-551 972.32>
LayerCount: 2
Fore
SplineSet
399 1279 m 0
 654 1279 851 1071 851 832 c 2
 851 -551 l 1
 671 -551 l 1
 671 832 l 2
 671 978 554 1101 399 1101 c 0
 243 1101 128 977 128 832 c 1
 -52 832 l 1
 -52 1081 154 1279 399 1279 c 0
EndSplineSet
Validated: 1
EndChar

StartChar: uni0E46
Encoding: 3654 3654 189
Width: 1648
VWidth: 2045
Flags: W
HStem: 592 133<453.075 606.435> 903 132<483.467 607.184> 1259 20G<503 656.889 893.333 978>
VStem: 281 160<737.644 889.842> 620 136<739.332 889.075> 1055 180<-551 1029.03>
LayerCount: 2
Fore
SplineSet
928 1279 m 1
 1028 1257 1235 1146 1235 891 c 2
 1235 -551 l 1
 1055 -551 l 1
 1055 891 l 2
 1055 1029 960 1105 881 1124 c 1
 772 1054 l 1
 659 1124 l 1
 600 1124 542 1090 483 1021 c 1
 496 1026 525 1035 553 1035 c 0
 612 1035 756 977 756 821 c 0
 756 679 647 592 531 592 c 0
 426 592 284 672 281 873 c 1
 281 1035 382 1222 624 1279 c 1
 772 1189 l 1
 928 1279 l 1
531 903 m 0
 479 903 441 864 441 815 c 0
 441 759 486 725 531 725 c 0
 573 725 620 757 620 815 c 0
 620 867 578 903 531 903 c 0
EndSplineSet
Validated: 1
EndChar

StartChar: uni0E47
Encoding: 3655 3655 190
Width: 0
VWidth: 2045
Flags: W
HStem: 1367 112<-496.532 -372.775> 1476 131<-832.501 -702.259> 1612 112<-496.103 -372.383> 1769 119<-928.373 -322.393>
VStem: -1095 131<1521.27 1732.81> -614 113<1512.43 1608.04> -367 113<1483.66 1606.03>
AnchorPoint: "AboveMark" -675 2070 basemark 0
AnchorPoint: "AboveBase" -272 1339 mark 0
LayerCount: 2
Fore
SplineSet
-832 1367 m 1xbe
 -1064 1396 -1095 1531 -1095 1622 c 0
 -1095 1833 -919 1888 -782 1888 c 0
 -720 1888 -658 1876 -552 1876 c 0
 -390 1876 -297 1918 -273 2001 c 1
 -171 1941 l 1
 -206 1820 -325 1759 -529 1758 c 0
 -648 1758 -696 1769 -768 1769 c 0
 -942 1769 -964 1698 -964 1619 c 0
 -964 1557 -942 1521 -899 1512 c 1
 -899 1581 -855 1607 -815 1607 c 0x7e
 -721 1607 -682 1526 -611 1512 c 1
 -613 1523 -614 1534 -614 1545 c 0
 -614 1647 -531 1724 -434 1724 c 0
 -338 1724 -254 1648 -254 1545 c 0
 -254 1468 -306 1367 -453 1367 c 0xbe
 -644 1367 -695 1476 -786 1476 c 0x7e
 -824 1476 -834 1454 -834 1411 c 0
 -834 1398 -833 1383 -832 1367 c 1xbe
-434 1612 m 0
 -469 1612 -501 1585 -501 1545 c 0
 -501 1509 -474 1479 -434 1479 c 0xbe
 -394 1479 -367 1510 -367 1545 c 0
 -367 1583 -399 1612 -434 1612 c 0
EndSplineSet
Validated: 1
Substitution2: "Thai Mark High Variant" uni0E47.high
Substitution2: "Thai Phinthu Maitaikhu Reordering" uni0E3A
EndChar

StartChar: uni0E48
Encoding: 3656 3656 191
Width: 0
VWidth: 2045
Flags: W
HStem: 2128 330<-340 -160>
VStem: -340 180<2128 2458>
AnchorPoint: "AboveMark" -250 2560 basemark 0
AnchorPoint: "AboveMark" -250 2070 mark 0
LayerCount: 2
Fore
SplineSet
-340 2128 m 17
 -340 2458 l 1
 -160 2458 l 1
 -160 2128 l 1
 -340 2128 l 17
EndSplineSet
Validated: 1
MultipleSubs2: "Thai Tone Nikhahit Attachment" uni0E4D uni0E48
Substitution2: "Thai Tone Low Variant" uni0E48.low
Substitution2: "Thai Sara U Mai Ek Reordering" uni0E38
Substitution2: "Thai Sara UU Mai Ek Reordering" uni0E39
Substitution2: "Thai Phinthu Mai Ek Reordering" uni0E3A
EndChar

StartChar: uni0E49
Encoding: 3657 3657 192
Width: 0
VWidth: 2045
Flags: W
HStem: 2437 90<-387.813 -283.487>
VStem: -480 91<2331.92 2434.99> -282 90<2332 2435.94> -33 125<2352.93 2517>
AnchorPoint: "AboveMark" -250 2560 basemark 0
AnchorPoint: "AboveMark" -250 2070 mark 0
LayerCount: 2
Back
SplineSet
-527 2637 m 0
 -421 2637 -347 2555 -347 2459 c 0
 -347 2401 -367 2353 -406 2315 c 2
 -473 2243 l 1
 -391 2258 -316 2296 -249 2359 c 0
 -182 2422 -149 2510 -149 2625 c 1
 8 2625 l 1
 14 2309 -251 2087 -529 2087 c 2
 -678 2087 l 1
 -678 2241 l 1
 -576 2297 l 1
 -701 2321 -707 2433 -707 2460 c 0
 -707 2557 -632 2637 -527 2637 c 0
-527 2525 m 0
 -570 2525 -594 2492 -594 2459 c 0
 -594 2419 -562 2392 -527 2392 c 0
 -489 2392 -460 2424 -460 2459 c 0
 -460 2488 -484 2525 -527 2525 c 0
EndSplineSet
Fore
SplineSet
-336 2527 m 0
 -251 2527 -192 2461 -192 2384 c 0
 -192 2338 -209 2301 -239 2269 c 2
 -293 2212 l 1
 -227 2224 -167 2254 -113 2304 c 0
 -59 2354 -33 2425 -33 2517 c 1
 92 2517 l 1
 92 2264 -115 2087 -337 2087 c 2
 -457 2087 l 1
 -457 2210 l 1
 -375 2255 l 1
 -475 2274 -480 2364 -480 2385 c 0
 -480 2463 -420 2527 -336 2527 c 0
-336 2437 m 0
 -370 2437 -389 2411 -389 2384 c 0
 -389 2352 -364 2331 -336 2331 c 0
 -305 2331 -282 2356 -282 2384 c 0
 -282 2408 -301 2437 -336 2437 c 0
EndSplineSet
Validated: 1
MultipleSubs2: "Thai Tone Nikhahit Attachment" uni0E4D uni0E49
Substitution2: "Thai Tone Low Variant" uni0E49.low
Substitution2: "Thai Sara U Mai Tho Reordering" uni0E38
Substitution2: "Thai Sara UU Mai Tho Reordering" uni0E39
Substitution2: "Thai Phinthu Mai Tho Reordering" uni0E3A
EndChar

StartChar: uni0E4A
Encoding: 3658 3658 193
Width: 0
VWidth: 2045
Flags: W
HStem: 2100 90<-523.641 -419.251> 2296 90<-514.457 -419.181> 2429 102<-510.017 -348.548 -256.07 -101.032>
VStem: -641 116<2192.81 2355.31> -418 91<2190.8 2295.13> -81 103<2264.06 2410.87> 128 102<2339.12 2492>
AnchorPoint: "AboveMark" -250 2560 basemark 0
AnchorPoint: "AboveMark" -250 2070 mark 0
LayerCount: 2
Back
SplineSet
-127 2304 m 1
 -58 2357 14 2455 14 2590 c 1
 142 2590 l 17
 142 2289 -120 2100 -329 2100 c 5
 -329 2227 l 1
 -329 2227 -247 2278 -247 2369 c 0
 -247 2471 -322 2511 -358 2511 c 0
 -412 2511 -451 2489 -471 2446 c 1
 -572 2446 l 1
 -613 2489 -649 2511 -678 2511 c 0
 -723 2510 -764 2484 -790 2449 c 1
 -771 2454 -752 2457 -735 2457 c 0
 -630 2457 -555 2376 -555 2278 c 0
 -555 2181 -630 2100 -735 2100 c 0
 -832 2100 -947 2172 -947 2348 c 0
 -947 2559 -772 2638 -678 2638 c 0
 -609 2638 -556 2617 -520 2574 c 1
 -485 2617 -432 2638 -363 2638 c 0
 -253 2638 -119 2535 -119 2369 c 0
 -119 2344 -122 2323 -127 2304 c 1
-735 2345 m 0
 -773 2345 -802 2313 -802 2278 c 0
 -802 2245 -774 2212 -735 2212 c 0
 -697 2212 -668 2243 -668 2278 c 0
 -668 2317 -701 2345 -735 2345 c 0
EndSplineSet
Fore
SplineSet
15 2263 m 1
 70 2306 128 2384 128 2492 c 1
 230 2492 l 17
 230 2251 21 2100 -146 2100 c 1
 -146 2202 l 1
 -146 2202 -81 2243 -81 2315 c 0
 -81 2397 -141 2429 -170 2429 c 0
 -213 2429 -244 2411 -260 2377 c 1
 -341 2377 l 1
 -374 2411 -402 2429 -426 2429 c 0
 -462 2428 -494 2407 -515 2379 c 1
 -500 2383 -485 2386 -471 2386 c 0
 -387 2386 -327 2321 -327 2243 c 0
 -327 2165 -387 2100 -471 2100 c 0
 -549 2100 -641 2158 -641 2299 c 0
 -641 2467 -501 2531 -426 2531 c 0
 -370 2531 -328 2514 -299 2479 c 1
 -271 2514 -229 2531 -174 2531 c 0
 -86 2531 22 2448 22 2315 c 0
 22 2295 19 2279 15 2263 c 1
-471 2296 m 0
 -502 2296 -525 2271 -525 2243 c 0
 -525 2216 -502 2190 -471 2190 c 0
 -441 2190 -418 2215 -418 2243 c 0
 -418 2274 -444 2296 -471 2296 c 0
EndSplineSet
Validated: 1
MultipleSubs2: "Thai Tone Nikhahit Attachment" uni0E4D uni0E4A
Substitution2: "Thai Tone Low Variant" uni0E4A.low
Substitution2: "Thai Sara U Mai Tri Reordering" uni0E38
Substitution2: "Thai Sara UU Mai Tri Reordering" uni0E39
Substitution2: "Thai Phinthu Mai Tri Reordering" uni0E3A
EndChar

StartChar: uni0E4B
Encoding: 3659 3659 194
Width: 0
VWidth: 2045
Flags: W
HStem: 2247 144<-443 -323 -179 -59>
VStem: -323 144<2127 2247 2391 2510>
AnchorPoint: "AboveMark" -250 2560 basemark 0
AnchorPoint: "AboveMark" -250 2070 mark 0
LayerCount: 2
Back
SplineSet
-117 2277 m 1
 -267 2277 l 1
 -267 2127 l 1
 -448 2127 l 1
 -448 2277 l 1
 -598 2277 l 1
 -598 2457 l 1
 -448 2457 l 1
 -448 2606 l 1
 -267 2606 l 1
 -267 2457 l 1
 -117 2457 l 1
 -117 2277 l 1
EndSplineSet
Fore
SplineSet
-59 2247 m 1
 -179 2247 l 1
 -179 2127 l 1
 -323 2127 l 1
 -323 2247 l 1
 -443 2247 l 1
 -443 2391 l 1
 -323 2391 l 1
 -323 2510 l 1
 -179 2510 l 1
 -179 2391 l 1
 -59 2391 l 1
 -59 2247 l 1
EndSplineSet
Validated: 1
MultipleSubs2: "Thai Tone Nikhahit Attachment" uni0E4D uni0E4B
Substitution2: "Thai Tone Low Variant" uni0E4B.low
Substitution2: "Thai Sara U Mai Chattawa Reordering" uni0E38
Substitution2: "Thai Sara UU Mai Chattawa Reordering" uni0E39
Substitution2: "Thai Phinthu Mai Chattawa Reordering" uni0E3A
EndChar

StartChar: uni0E4C
Encoding: 3660 3660 195
Width: 0
VWidth: 2045
Flags: W
HStem: 2138 106<-492.069 -362.428> 2371 124<-255 60.9109> 2387 108<-491.008 -360.217>
VStem: -606 107<2250.56 2380.74> -355 109<2250.6 2370.56>
AnchorPoint: "AboveMark" -250 2560 basemark 0
AnchorPoint: "AboveMark" -250 2070 mark 0
LayerCount: 2
Back
SplineSet
-611 2450 m 4xb8
 -658 2450 -701 2414 -701 2361 c 4
 -701 2309 -658 2271 -611 2271 c 4
 -564 2271 -521 2309 -521 2361 c 4
 -521 2414 -564 2450 -611 2450 c 4xb8
-835 2360 m 4
 -835 2492 -731 2584 -610 2584 c 6xb8
 -140 2582 l 6
 -76 2582 -29 2601 0 2640 c 5
 110 2531 l 5
 43 2462 -41 2428 -140 2428 c 6
 -396 2430 l 5xd8
 -389 2407 -385 2384 -385 2362 c 4
 -385 2240 -484 2138 -611 2138 c 4
 -730 2138 -835 2230 -835 2360 c 4
EndSplineSet
Fore
SplineSet
-427 2387 m 0xb8
 -465 2387 -499 2359 -499 2316 c 0
 -499 2275 -465 2244 -427 2244 c 0
 -389 2244 -355 2275 -355 2316 c 0
 -355 2359 -389 2387 -427 2387 c 0xb8
-606 2315 m 0
 -606 2421 -523 2495 -426 2495 c 2xb8
 -50 2493 l 2
 1 2493 39 2508 62 2539 c 1
 150 2452 l 1
 96 2397 29 2370 -50 2370 c 2
 -255 2371 l 1xd8
 -249 2353 -246 2335 -246 2317 c 0
 -246 2219 -325 2138 -427 2138 c 0
 -522 2138 -606 2211 -606 2315 c 0
EndSplineSet
Validated: 1
MultipleSubs2: "Thai Tone Nikhahit Attachment" uni0E4D uni0E4C
Substitution2: "Thai Tone Low Variant" uni0E4C.low
Substitution2: "Thai Sara U Thanthakhat Reordering" uni0E38
Substitution2: "Thai Sara UU Thanthakhat Reordering" uni0E39
Substitution2: "Thai Phinthu Thanthakhat Reordering" uni0E3A
EndChar

StartChar: uni0E4D
Encoding: 3661 3661 196
Width: 0
VWidth: 2045
Flags: W
HStem: 1375 134<-475.92 -321.482> 1688 133<-473.774 -322.226>
VStem: -622 134<1521.42 1674.67> -308 134<1522.63 1674.67>
AnchorPoint: "AboveMark" -398 2070 basemark 0
AnchorPoint: "AboveBase" -174 1339 mark 0
LayerCount: 2
Fore
SplineSet
-398 1375 m 0
 -525 1375 -622 1476 -622 1598 c 0
 -622 1718 -528 1821 -398 1821 c 0
 -268 1821 -174 1718 -174 1598 c 0
 -174 1469 -278 1375 -398 1375 c 0
-398 1688 m 0
 -449 1688 -488 1647 -488 1598 c 0
 -488 1550 -450 1509 -398 1509 c 0
 -346 1509 -308 1550 -308 1598 c 0
 -308 1647 -347 1688 -398 1688 c 0
EndSplineSet
Validated: 1
Substitution2: "Thai Mark High Variant" uni0E4D.high
Substitution2: "Thai Sara U Nikhahit Reordering" uni0E38
Substitution2: "Thai Sara UU Nikhahit Reordering" uni0E39
Substitution2: "Thai Phinthu Nikhahit Reordering" uni0E3A
EndChar

StartChar: uni0E4E
Encoding: 3662 3662 197
Width: 0
VWidth: 2045
Flags: W
HStem: 1381 156<-560.82 -473> 1759 157<-558.885 -473> 2028 156<-290.796 -116.634>
VStem: -744 159<1560.34 1736.68> -473 157<1916 2004.62> -91 158<1916 2004.91>
AnchorPoint: "AboveMark" -339 2214 basemark 0
AnchorPoint: "AboveBase" -140 1339 mark 0
LayerCount: 2
Fore
SplineSet
-585 1648 m 0
 -585 1581 -533 1537 -473 1537 c 1
 -473 1381 l 17
 -625 1381 -744 1499 -744 1648 c 0
 -744 1802 -620 1916 -473 1916 c 1
 -473 2072 -348 2184 -204 2184 c 0
 -60 2184 67 2074 67 1916 c 1
 -91 1916 l 1
 -91 1975 -138 2028 -204 2028 c 0
 -269 2028 -316 1974 -316 1916 c 0
 -316 1887 -305 1860 -284 1837 c 1
 -284 1726 l 1
 -393 1726 l 1
 -416 1748 -443 1759 -473 1759 c 0
 -532 1759 -585 1715 -585 1648 c 0
EndSplineSet
Validated: 1
Substitution2: "Thai Mark High Variant" uni0E4E.high
EndChar

StartChar: uni0E4F
Encoding: 3663 3663 198
Width: 1571
VWidth: 2045
Flags: W
HStem: -23 133<607.531 968.566> 245 133<686.417 881.99> 646 133<684.742 882.191> 914 133<607.311 967.886>
VStem: 244 134<330.183 693.599> 514 136<413.763 611.498> 918 136<414.818 608.801> 1189 134<334.408 685.882>
LayerCount: 2
Fore
SplineSet
784 -23 m 0
 485 -23 244 215 244 512 c 0
 244 809 485 1047 784 1047 c 0
 1082 1047 1323 809 1323 512 c 0
 1323 215 1081 -23 784 -23 c 0
784 914 m 0
 571 914 378 744 378 512 c 0
 378 279 572 110 784 110 c 0
 1007 110 1189 290 1189 512 c 0
 1189 737 1003 914 784 914 c 0
784 245 m 0
 629 245 514 366 514 512 c 0
 514 665 636 779 784 779 c 0
 944 779 1054 651 1054 512 c 0
 1054 372 943 245 784 245 c 0
784 646 m 0
 714 646 650 591 650 512 c 0
 650 432 714 378 784 378 c 0
 858 378 918 437 918 512 c 0
 918 586 858 646 784 646 c 0
EndSplineSet
Validated: 1
EndChar

StartChar: uni0E50
Encoding: 3664 3664 199
Width: 1326
VWidth: 2045
Flags: W
HStem: 0 157<471.942 853.435> 737 157<470.171 852.412>
VStem: 123 180<310.138 585.55> 1023 180<309.308 585.881>
LayerCount: 2
Fore
SplineSet
663 737 m 0
 465 737 303 610 303 447 c 0
 303 289 460 157 663 157 c 0
 865 157 1023 287 1023 447 c 0
 1023 608 864 737 663 737 c 0
663 0 m 0
 345 0 123 218 123 447 c 0
 123 679 349 894 663 894 c 0
 975 894 1203 683 1203 447 c 0
 1203 216 979 0 663 0 c 0
EndSplineSet
Validated: 1
EndChar

StartChar: uni0E51
Encoding: 3665 3665 200
Width: 1361
VWidth: 2045
Flags: W
HStem: 0 190<439.648 712.438> 369 134<561.422 715.587> 719 175<477.844 860.365>
VStem: 137 180<241.276 571.204> 412 136<202.4 356.406> 727 136<203.83 356.849> 1024 180<188.27 559.322>
LayerCount: 2
Fore
SplineSet
669 719 m 0
 463 719 317 604 317 409 c 0
 317 278 382 184 462 160 c 1
 429 193 412 233 412 281 c 0
 412 400 510 503 637 503 c 0
 764 503 863 402 863 281 c 0
 863 109 715 0 509 0 c 0
 318 0 137 160 137 414 c 0
 137 627 333 894 668 894 c 0
 927 894 1204 711 1204 364 c 0
 1204 66 979 -82 875 -133 c 1
 776 15 l 1
 991 113 1024 252 1024 387 c 0
 1024 596 880 719 669 719 c 0
637 369 m 0
 595 369 548 337 548 280 c 0
 548 225 593 190 637 190 c 0
 684 190 727 228 727 280 c 0
 727 333 684 369 637 369 c 0
EndSplineSet
Validated: 1
EndChar

StartChar: uni0E52
Encoding: 3666 3666 201
Width: 1454
VWidth: 2045
Flags: W
HStem: 0 177<292 1060.3> 239 133<516.179 668.637> 550 134<574.203 667.277> 719 175<576.168 810.381 970.788 1118.38> 1205 179<2 92.0558>
VStem: 114 178<177 1181.5> 358 145<384.782 655.479> 683 134<384.346 537.184> 849 93<603 679.78> 1154 181<276.98 689.096>
LayerCount: 2
Fore
SplineSet
358 533 m 0
 358 773 535 894 686 894 c 0
 764 894 831 861 887 794 c 1
 946 861 1003 894 1058 894 c 0
 1242 894 1335 747 1335 453 c 0
 1335 63 1101 0 997 0 c 2
 114 0 l 1
 114 1094 l 2
 114 1149 76 1205 2 1205 c 1
 2 1384 l 1
 241 1384 292 1194 292 1094 c 2
 292 177 l 1
 945 177 l 2
 1070 177 1154 295 1154 449 c 0
 1154 629 1124 719 1061 719 c 0
 996 719 956 680 942 603 c 1
 849 603 l 1
 831 680 775 718 681 719 c 0
 634 719 598 707 573 684 c 1
 593 684 l 2
 723 684 817 581 817 461 c 0
 817 339 722 239 593 239 c 0
 522 239 358 275 358 533 c 0
593 550 m 0
 541 550 503 509 503 461 c 0
 503 417 537 372 593 372 c 0
 649 372 683 417 683 461 c 0
 683 509 645 550 593 550 c 0
114 0 m 1
EndSplineSet
Validated: 1
EndChar

StartChar: uni0E53
Encoding: 3667 3667 202
Width: 1398
VWidth: 2045
Flags: W
HStem: 0 133<344.229 495.091> 311 134<341.522 496.513> 719 175<376.402 621.707 848.556 1044.22>
VStem: 113 169<408.015 618.574> 509 134<146.735 298.706> 646 180<438 694.166> 1073 180<0 691.713>
LayerCount: 2
Fore
SplineSet
517 719 m 0
 365 719 286 608 282 452 c 0
 282 437 285 422 291 405 c 1
 334 432 374 445 413 445 c 0
 562 445 643 330 643 224 c 0
 643 90 537 0 418 0 c 0
 186 0 113 229 113 440 c 0
 113 803 372 894 517 894 c 0
 598 894 669 864 732 804 c 1
 792 864 862 894 942 894 c 0
 1117 894 1253 756 1253 586 c 2
 1253 0 l 1
 1073 0 l 1
 1073 594 l 2
 1073 665 1026 717 947 717 c 0
 850 717 828 650 826 619 c 1
 826 438 l 1
 646 438 l 1
 646 616 l 2
 646 659 606 719 517 719 c 0
418 311 m 0
 365 311 329 268 329 223 c 0
 329 176 365 133 418 133 c 0
 473 133 509 175 509 223 c 0
 509 270 472 311 418 311 c 0
EndSplineSet
Validated: 1
EndChar

StartChar: uni0E54
Encoding: 3668 3668 203
Width: 1498
VWidth: 2045
Flags: W
HStem: 0 178<435.086 645 805.855 1294> 221 132<805 880.651> 532 134<727.906 882.685> 717 178<392.888 1248.65> 1054 20G<1311 1491>
VStem: 110 180<315.564 617.406> 554 161<365.852 518.406> 895 136<367.322 517.622> 1311 180<960.338 1074>
LayerCount: 2
Fore
SplineSet
1491 1074 m 1
 1491 879 1336 717 1131 717 c 2
 563 717 l 2
 439 717 290 669 290 452 c 0
 290 316 427 178 561 178 c 2
 645 178 l 17
 611 202 554 284 554 411 c 0
 554 569 662 666 805 666 c 0
 928 666 1031 568 1031 443 c 0
 1031 326 938 221 805 221 c 1
 823 192 856 178 903 178 c 2
 1294 178 l 1
 1294 0 l 1
 561 0 l 2
 305 0 110 201 110 447 c 0
 110 690 302 895 564 895 c 2
 1131 895 l 2
 1238 895 1311 980 1311 1074 c 1
 1491 1074 l 1
805 532 m 0
 756 532 715 493 715 443 c 0
 715 394 756 353 805 353 c 0
 851 353 895 392 895 443 c 0
 895 496 851 532 805 532 c 0
EndSplineSet
Validated: 1
EndChar

StartChar: uni0E55
Encoding: 3669 3669 204
Width: 1489
VWidth: 2045
Flags: W
HStem: 0 178<435.086 645 805.855 1294> 221 132<805 880.651> 532 134<727.906 882.685> 717 178<599.729 754.271 884 1248.85> 1054 20G<1311 1491> 1074 134<599.257 752.084>
VStem: 110 180<315.564 614.314> 451 136<907.883 1058.96> 554 161<365.852 518.406> 767 136<908.198 1060.95> 895 136<367.322 517.622> 1311 180<960.338 1074>
LayerCount: 2
Fore
SplineSet
677 1208 m 0xf750
 804 1208 903 1107 903 985 c 0xf750
 903 954 897 924 884 895 c 9
 1131 895 l 2
 1239 895 1311 980 1311 1074 c 1
 1491 1074 l 1
 1491 879 1336 717 1131 717 c 2
 563 717 l 2
 439 717 290 669 290 452 c 0
 290 316 427 178 561 178 c 2
 645 178 l 1
 611 202 554 284 554 411 c 0
 554 569 662 666 805 666 c 0
 928 666 1031 568 1031 443 c 0xfab0
 1031 326 938 221 805 221 c 1
 823 192 856 178 903 178 c 2
 1294 178 l 1
 1294 0 l 1
 561 0 l 2
 305 0 110 201 110 447 c 0
 110 711 318 858 474 887 c 1
 459 916 451 949 451 985 c 0
 451 1109 552 1208 677 1208 c 0xf750
677 1074 m 0
 629 1074 587 1034 587 985 c 0
 587 939 626 895 677 895 c 0
 728 895 767 939 767 985 c 0
 767 1037 721 1074 677 1074 c 0
805 532 m 0
 756 532 715 493 715 443 c 0
 715 394 756 353 805 353 c 0
 851 353 895 392 895 443 c 0xf2b0
 895 496 851 532 805 532 c 0
EndSplineSet
Validated: 1
EndChar

StartChar: uni0E56
Encoding: 3670 3670 205
Width: 1448
VWidth: 2045
Flags: W
HStem: 0 187<373.136 876.466> 366 134<359.091 513.717> 719 175<435.689 957.164> 1279 179<76 164.659>
VStem: 189 180<822 1258.03> 213 134<201.142 352.91> 527 136<199.056 353.48> 1089 180<364.276 611.501>
LayerCount: 2
Fore
SplineSet
76 1458 m 1xfb
 310 1458 369 1274 369 1168 c 2
 369 822 l 1xfb
 460 870 585 894 744 894 c 0
 993 894 1269 740 1269 474 c 0
 1269 202 962 0 616 0 c 0
 396 0 213 81 213 278 c 0xf7
 213 397 311 500 438 500 c 0
 566 500 663 396 663 278 c 0
 663 241 655 208 640 180 c 1
 836 180 1086 294 1089 504 c 0
 1089 563 1041 719 710 719 c 0
 367 719 192 577 189 571 c 1
 189 1168 l 2
 189 1228 145 1279 76 1279 c 1
 76 1458 l 1xfb
438 366 m 0
 391 366 347 330 347 277 c 0xf7
 347 225 391 187 438 187 c 0
 484 187 527 223 527 277 c 0
 527 332 485 366 438 366 c 0
EndSplineSet
Validated: 1
EndChar

StartChar: uni0E57
Encoding: 3671 3671 206
Width: 1716
VWidth: 2045
Flags: W
HStem: 0 178<1276 1366.43> 0 133<367.2 518.072> 311 134<362.541 518.355> 719 175<401.439 644.624 869.525 1068.89> 1237 20G<1441.5 1488.94>
VStem: 134 171<408.207 615.44> 531 136<144.947 297.477> 669 180<438 693.363> 1096 180<178 689.856> 1389 180<205.298 1129.01>
LayerCount: 2
Fore
SplineSet
1569 293 m 2xbfc0
 1569 110 1430 0 1276 0 c 2xbfc0
 1096 0 l 1
 1096 594 l 2
 1096 665 1049 717 970 717 c 0
 868 717 850 644 849 619 c 1
 849 438 l 1
 669 438 l 1
 669 616 l 2
 669 661 626 719 540 719 c 0
 390 719 309 609 305 452 c 0
 305 437 308 422 314 405 c 1
 358 432 400 445 440 445 c 0
 576 445 667 336 667 224 c 0
 667 95 562 0 442 0 c 0x7fc0
 210 0 134 232 134 440 c 0
 134 738 320 894 540 894 c 0
 620 894 691 864 753 804 c 1
 814 864 885 894 967 894 c 0
 1146 894 1276 751 1276 586 c 2
 1276 178 l 1
 1338 178 1389 226 1389 288 c 2
 1389 1051 l 2
 1389 1132 1415 1200 1468 1257 c 1
 1601 1130 l 1
 1580 1109 1569 1082 1569 1051 c 2
 1569 293 l 2xbfc0
441 311 m 0
 389 311 351 270 351 223 c 0
 351 176 387 133 441 133 c 0x7fc0
 488 133 531 169 531 223 c 0
 531 270 494 311 441 311 c 0
EndSplineSet
Validated: 1
EndChar

StartChar: uni0E58
Encoding: 3672 3672 207
Width: 1548
VWidth: 2045
Flags: W
HStem: 0 150<983.76 1135.07> 258 194<465.187 600.393> 328 134<979.682 1133.32> 716 178<353.953 1248.85> 1054 20G<1311 1491>
VStem: 88 180<313.037 626.299> 837 130<222.9 316.243> 1146 134<161.22 314.706> 1311 180<960.231 1074>
LayerCount: 2
Fore
SplineSet
451 0 m 1xdf80
 239 0 88 231 88 486 c 0
 88 701 242 894 494 894 c 2
 1131 894 l 2
 1239 894 1311 980 1311 1074 c 1
 1491 1074 l 1
 1491 879 1336 716 1131 716 c 2
 494 716 l 2
 348 716 268 606 268 492 c 0
 268 408 282 348 311 311 c 1
 327 405 394 452 512 452 c 0xdf80
 637 452 801 222 839 222 c 1
 837 233 837 243 837 253 c 0
 837 372 935 462 1057 462 c 0xbf80
 1176 462 1280 369 1280 239 c 0
 1280 132 1217 0 1015 0 c 0
 739 0 601 258 532 258 c 0
 465 258 446 186 446 93 c 0
 446 64 448 32 451 0 c 1xdf80
1057 328 m 0xbf80
 1009 328 967 292 967 239 c 0
 967 190 1003 150 1057 150 c 0
 1110 150 1146 190 1146 239 c 0
 1146 293 1103 328 1057 328 c 0xbf80
EndSplineSet
Validated: 1
EndChar

StartChar: uni0E59
Encoding: 3673 3673 208
Width: 1611
VWidth: 2045
Flags: W
HStem: -0 151<449.536 603.003> 329 133<449.488 602.133> 716 178<425.848 778.297 1042.68 1236.17>
VStem: 116 180<317.409 591.732> 616 134<164.824 317.104> 930 180<0 567.768> 1290 180<853 1245.01>
LayerCount: 2
Fore
SplineSet
605 894 m 0
 704 894 800 888 915 794 c 1
 986 861 1055 894 1122 894 c 0
 1201 894 1257 880 1290 853 c 1
 1290 1168 l 2
 1290 1250 1316 1318 1369 1373 c 1
 1503 1246 l 1
 1481 1225 1470 1199 1470 1168 c 2
 1470 705 l 1
 1290 606 l 1
 1287 615 1227 716 1125 716 c 0
 1098 716 1068 699 1037 666 c 1
 1061 642 1110 562 1110 402 c 2
 1110 0 l 1
 930 0 l 1
 930 408 l 2
 930 564 816 716 598 716 c 0
 434 716 296 612 296 449 c 0
 296 393 302 348 313 314 c 1
 333 369 398 462 526 462 c 0
 655 462 750 362 750 240 c 0
 750 102 632 0 457 -0 c 0
 321 0 116 114 116 447 c 0
 116 641 248 894 605 894 c 0
526 329 m 0
 468 329 436 284 436 240 c 0
 436 192 474 151 526 151 c 0
 578 151 616 192 616 240 c 0
 616 283 586 329 526 329 c 0
EndSplineSet
Validated: 1
EndChar

StartChar: uni0E5A
Encoding: 3674 3674 209
Width: 1519
VWidth: 2045
Flags: W
HStem: 0 21G<848 1028 1145 1325> 702 178<437.945 640.358> 1145 134<213.298 366.441> 1234 20G<848 1028 1145 1325>
VStem: 61 139<979.138 1132.53> 380 136<979.895 1131.65> 848 180<0 862 1083.06 1254> 1145 180<0 1254>
LayerCount: 2
Fore
SplineSet
290 1145 m 0xef
 243 1145 200 1109 200 1056 c 0
 200 1010 238 966 290 966 c 0
 341 966 380 1010 380 1056 c 0
 380 1109 336 1145 290 1145 c 0xef
290 1279 m 0
 420 1279 516 1172 516 1057 c 0
 516 966 484 907 428 880 c 1
 708 880 848 1064 848 1254 c 1
 1028 1254 l 1xdf
 1028 0 l 1
 848 0 l 1
 848 862 l 17
 694 718 565 702 464 702 c 0
 181 702 61 888 61 1048 c 0
 61 1174 160 1279 290 1279 c 0
1145 1254 m 1
 1325 1254 l 1
 1325 0 l 1
 1145 0 l 1
 1145 1254 l 1
EndSplineSet
Validated: 1
EndChar

StartChar: uni0E5B
Encoding: 3675 3675 210
Width: 2515
VWidth: 2045
Flags: W
HStem: 0 178<421.01 784.09> 338 134<596.912 748.177> 417 172<2219.89 2395> 651 134<595.395 749.312> 879 178<392.468 710.847>
VStem: 79 180<342.616 731.246> 447 136<484.865 638.292> 762 192<486.168 758.273>
DStem2: 992 424 1134 326 0.464113 0.885776<-194.252 139.687>
LayerCount: 2
Fore
SplineSet
762 562 m 0xdf
 762 608 725 651 672 651 c 0
 630 651 583 620 583 562 c 0
 583 507 628 472 672 472 c 0
 717 472 762 509 762 562 c 0xdf
259 530 m 0
 259 361 350 178 599 178 c 0
 798 178 934 313 992 424 c 2
 1156 737 l 1
 1262 737 l 1
 1387 508 l 1
 1512 737 l 1
 1619 737 l 1
 1744 508 l 1
 1868 737 l 1
 1974 737 l 1
 2099 508 l 1
 2125 563 2184 589 2275 589 c 2
 2395 589 l 1
 2395 417 l 1
 2282 417 l 2xbf
 2240 417 2197 358 2153 239 c 1
 2046 239 l 1
 1921 468 l 1
 1796 239 l 1
 1689 239 l 1
 1564 468 l 1
 1441 239 l 1
 1334 239 l 1
 1209 468 l 1
 1134 326 l 2
 1057 179 861 0 617 0 c 0
 269 0 79 276 79 532 c 0
 79 867 362 1057 537 1057 c 0
 770 1057 954 901 954 689 c 0
 954 482 844 338 671 338 c 0
 547 338 447 438 447 562 c 0
 447 682 541 785 671 785 c 0
 719 785 760 769 793 736 c 1
 770 816 673 879 541 879 c 0
 382 879 259 754 259 530 c 0
EndSplineSet
Validated: 1
EndChar

StartChar: zerojoin
Encoding: 8205 8205 212
Width: 0
Flags: W
LayerCount: 2
Back
SplineSet
36 -275 m 1
 -36 -275 l 1
 -36 1114 l 1
 -170 978 l 1
 -219 1027 l 1
 -48 1196 l 1
 -219 1364 l 1
 -170 1413 l 1
 0 1242 l 1
 170 1413 l 1
 219 1364 l 1
 48 1196 l 1
 219 1027 l 1
 170 978 l 1
 36 1114 l 1
 36 -275 l 1
EndSplineSet
EndChar

StartChar: afii299
Encoding: 8206 8206 213
Width: 0
Flags: W
LayerCount: 2
Back
SplineSet
430 1198 m 1
 213 984 l 1
 164 1033 l 1
 301 1163 l 1
 35 1163 l 1
 35 -275 l 1
 -36 -275 l 1
 -36 1234 l 1
 301 1234 l 1
 164 1364 l 1
 213 1413 l 1
 430 1198 l 1
EndSplineSet
EndChar

StartChar: afii300
Encoding: 8207 8207 214
Width: 0
Flags: W
LayerCount: 2
Back
SplineSet
35 -275 m 1
 -36 -275 l 1
 -36 1163 l 1
 -302 1163 l 1
 -165 1033 l 1
 -214 984 l 1
 -431 1198 l 1
 -214 1413 l 1
 -165 1364 l 1
 -302 1234 l 1
 35 1234 l 1
 35 -275 l 1
EndSplineSet
EndChar

StartChar: uni2010
Encoding: 8208 8208 215
Width: 973
Flags: W
HStem: 575 170<190 815>
VStem: 190 625<575 745>
LayerCount: 2
Fore
SplineSet
190 745 m 1
 815 745 l 1
 815 575 l 1
 190 575 l 1
 190 745 l 1
EndSplineSet
Validated: 1
EndChar

StartChar: endash
Encoding: 8211 8211 216
Width: 1125
Flags: W
HStem: 567 170<-4 1122>
LayerCount: 2
Fore
SplineSet
1122 567 m 1
 -4 567 l 1
 -4 737 l 1
 1122 737 l 1
 1122 567 l 1
EndSplineSet
Validated: 1
EndChar

StartChar: emdash
Encoding: 8212 8212 217
Width: 1886
Flags: W
HStem: 567 170<-4 1866>
LayerCount: 2
Fore
SplineSet
1866 567 m 1
 -4 567 l 1
 -4 737 l 1
 1866 737 l 1
 1866 567 l 1
EndSplineSet
Validated: 1
EndChar

StartChar: horizontalbar
Encoding: 8213 8213 218
Width: 1862
Flags: W
HStem: 567 170<110 1752>
LayerCount: 2
Fore
SplineSet
1752 567 m 1
 110 567 l 1
 110 737 l 1
 1752 737 l 1
 1752 567 l 1
EndSplineSet
Validated: 1
EndChar

StartChar: underscoredbl
Encoding: 8215 8215 219
Width: 1118
Flags: W
HStem: -423 130<-16 1134> -212 130<-16 1134>
LayerCount: 2
Fore
SplineSet
1134 -212 m 1
 -16 -212 l 1
 -16 -82 l 1
 1134 -82 l 1
 1134 -212 l 1
1134 -423 m 1
 -16 -423 l 1
 -16 -293 l 1
 1134 -293 l 1
 1134 -423 l 1
EndSplineSet
Validated: 1
EndChar

StartChar: quoteleft
Encoding: 8216 8216 220
Width: 450
Flags: W
HStem: 997 559
VStem: -64 399
LayerCount: 2
Fore
SplineSet
335 997 m 1
 197 997 l 1
 -64 1556 l 1
 178 1556 l 1
 335 997 l 1
EndSplineSet
Validated: 1
EndChar

StartChar: quoteright
Encoding: 8217 8217 221
Width: 580
Flags: W
HStem: 997 559
VStem: 97 399
LayerCount: 2
Fore
SplineSet
496 1556 m 1
 235 997 l 1
 97 997 l 1
 254 1556 l 1
 496 1556 l 1
EndSplineSet
Validated: 1
EndChar

StartChar: quotesinglbase
Encoding: 8218 8218 222
Width: 432
Flags: W
HStem: -276 559
VStem: -13 399
LayerCount: 2
Fore
SplineSet
386 283 m 1
 125 -276 l 1
 -13 -276 l 1
 144 283 l 1
 386 283 l 1
EndSplineSet
Validated: 1
EndChar

StartChar: quotereversed
Encoding: 8219 8219 223
Width: 432
Flags: W
HStem: 997 559
VStem: -64 399
LayerCount: 2
Fore
SplineSet
335 1556 m 1
 178 997 l 1
 -64 997 l 1
 197 1556 l 1
 335 1556 l 1
EndSplineSet
Validated: 1
EndChar

StartChar: quotedblleft
Encoding: 8220 8220 224
Width: 850
Flags: W
HStem: 997 559
LayerCount: 2
Fore
SplineSet
725 997 m 1
 591 997 l 1
 330 1556 l 1
 568 1556 l 1
 725 997 l 1
331 997 m 1
 197 997 l 1
 -64 1556 l 1
 174 1556 l 1
 331 997 l 1
EndSplineSet
Validated: 1
EndChar

StartChar: quotedblright
Encoding: 8221 8221 225
Width: 1000
Flags: W
HStem: 997 559
LayerCount: 2
Fore
SplineSet
896 1556 m 1
 635 997 l 1
 501 997 l 1
 658 1556 l 1
 896 1556 l 1
502 1556 m 1
 241 997 l 1
 107 997 l 1
 264 1556 l 1
 502 1556 l 1
EndSplineSet
Validated: 1
EndChar

StartChar: quotedblbase
Encoding: 8222 8222 226
Width: 814
Flags: W
HStem: -276 559
LayerCount: 2
Fore
SplineSet
781 283 m 1
 520 -276 l 1
 386 -276 l 1
 543 283 l 1
 781 283 l 1
387 283 m 1
 126 -276 l 1
 -8 -276 l 1
 149 283 l 1
 387 283 l 1
EndSplineSet
Validated: 1
EndChar

StartChar: dagger
Encoding: 8224 8224 227
Width: 1118
Flags: W
HStem: 1013 170<135 474 644 983>
VStem: 469 180<135 1018 1178 1556>
LayerCount: 2
Fore
SplineSet
983 1013 m 1
 644 1018 l 1
 649 135 l 1
 469 135 l 1
 474 1018 l 1
 135 1013 l 1
 135 1183 l 1
 474 1178 l 1
 469 1556 l 1
 649 1556 l 1
 644 1178 l 1
 983 1183 l 1
 983 1013 l 1
EndSplineSet
Validated: 1
EndChar

StartChar: daggerdbl
Encoding: 8225 8225 228
Width: 1118
Flags: W
HStem: 486 170<135 469 649 983> 1028 160<135 469 649 983>
VStem: 469 180<124 491 651 1028 1188 1556>
LayerCount: 2
Fore
SplineSet
983 486 m 1
 649 491 l 1
 654 124 l 1
 464 124 l 1
 469 491 l 1
 135 486 l 1
 135 656 l 1
 469 651 l 1
 469 1028 l 1
 135 1023 l 1
 135 1193 l 1
 469 1188 l 1
 464 1556 l 1
 654 1556 l 1
 649 1188 l 1
 983 1193 l 1
 983 1023 l 1
 649 1028 l 1
 649 651 l 1
 983 656 l 1
 983 486 l 1
EndSplineSet
Validated: 1
EndChar

StartChar: bullet
Encoding: 8226 8226 229
Width: 950
Flags: W
HStem: 311 702<299.399 634.377>
VStem: 114 703<496.399 829.373>
LayerCount: 2
Fore
SplineSet
465 1013 m 0
 663 1013 817 856 817 662 c 0
 817 473 667 311 465 311 c 0
 265 311 114 472 114 662 c 0
 114 862 275 1013 465 1013 c 0
EndSplineSet
Validated: 1
EndChar

StartChar: ellipsis
Encoding: 8230 8230 230
Width: 1650
Flags: W
HStem: 0 223<177 381 735 939 1293 1497>
VStem: 177 204<0 223> 735 204<0 223> 1293 204<0 223>
CounterMasks: 1 70
LayerCount: 2
Fore
SplineSet
1497 0 m 1
 1293 0 l 1
 1293 223 l 1
 1497 223 l 1
 1497 0 l 1
939 0 m 1
 735 0 l 1
 735 223 l 1
 939 223 l 1
 939 0 l 1
381 0 m 1
 177 0 l 1
 177 223 l 1
 381 223 l 1
 381 0 l 1
EndSplineSet
Validated: 1
EndChar

StartChar: perthousand
Encoding: 8240 8240 231
Width: 2575
Flags: W
HStem: -50 170<1299.02 1461.85 2053.02 2215.85> -10 21G<458 648.113> 554 170<1297.06 1468.14 2051.06 2222.14> 717 170<351.016 513.855> 1321 170<349.057 520.144>
VStem: 119 180<941.855 1273.81> 565 180<940.136 1273.81> 1067 180<174.239 506.222> 1513 180<172.531 506.222> 1821 180<174.239 506.222> 2267 180<172.531 506.222>
DStem2: 458 -10 638 -10 0.451252 0.892397<81.2253 1681.99>
LayerCount: 2
Back
SplineSet
455 1517 m 0x2fe0
 666 1517 807 1396 807 1076 c 0
 807 756 666 634 455 634 c 0
 243 634 102 758 102 1075 c 0
 102 1393 243 1517 455 1517 c 0x2fe0
1473 1489 m 1
 693 0 l 1
 528 0 l 1x4fe0
 1308 1489 l 1
 1473 1489 l 1
1545 854 m 0x9fe0
 1756 854 1897 733 1897 413 c 0
 1897 94 1756 -29 1545 -29 c 0
 1333 -29 1192 93 1192 412 c 0
 1192 730 1333 854 1545 854 c 0x9fe0
455 767 m 0x2fe0
 559 767 629 821 629 1076 c 0
 629 1333 559 1384 455 1384 c 0
 350 1384 280 1328 280 1075 c 0
 280 814 350 767 455 767 c 0x2fe0
1545 104 m 0x9fe0
 1649 104 1719 158 1719 413 c 0
 1719 670 1649 721 1545 721 c 0
 1440 721 1370 665 1370 412 c 0
 1370 151 1440 104 1545 104 c 0x9fe0
2389 854 m 0
 2600 854 2741 733 2741 413 c 0
 2741 94 2600 -29 2389 -29 c 0
 2177 -29 2036 93 2036 412 c 0
 2036 730 2177 854 2389 854 c 0
2389 104 m 0
 2493 104 2563 158 2563 413 c 0
 2563 670 2493 721 2389 721 c 0
 2284 721 2214 665 2214 412 c 0
 2214 151 2284 104 2389 104 c 0
EndSplineSet
Fore
SplineSet
1821 336 m 3xafe0
 1821 553 1930 724 2134 724 c 3
 2338 724 2447 553 2447 336 c 3
 2447 119 2338 -50 2134 -50 c 3
 1930 -50 1821 119 1821 336 c 3xafe0
2134 554 m 3
 2041 554 2001 444 2001 336 c 3
 2001 228 2050 120 2134 120 c 3
 2222 120 2267 228 2267 336 c 3
 2267 444 2232 554 2134 554 c 3
1067 336 m 3
 1067 553 1176 724 1380 724 c 3
 1584 724 1693 553 1693 336 c 3
 1693 119 1584 -50 1380 -50 c 3
 1176 -50 1067 119 1067 336 c 3
1380 554 m 3
 1287 554 1247 444 1247 336 c 3
 1247 228 1296 120 1380 120 c 3
 1468 120 1513 228 1513 336 c 3
 1513 444 1478 554 1380 554 c 3
119 1104 m 3
 119 1321 228 1491 432 1491 c 3
 636 1491 745 1321 745 1104 c 3
 745 887 636 717 432 717 c 3x1fe0
 228 717 119 887 119 1104 c 3
432 1321 m 3
 339 1321 299 1212 299 1104 c 3
 299 996 348 887 432 887 c 3
 520 887 565 996 565 1104 c 3
 565 1212 530 1321 432 1321 c 3
1217 1491 m 1
 1397 1491 l 1
 638 -10 l 1
 458 -10 l 1x4fe0
 1217 1491 l 1
EndSplineSet
Validated: 1
EndChar

StartChar: minute
Encoding: 8242 8242 232
Width: 602
Flags: W
HStem: 870 619
VStem: 137 434
LayerCount: 2
Fore
SplineSet
571 1489 m 1
 273 870 l 1
 137 870 l 1
 331 1489 l 1
 571 1489 l 1
EndSplineSet
Validated: 1
EndChar

StartChar: second
Encoding: 8243 8243 233
Width: 972
Flags: W
HStem: 870 619
LayerCount: 2
Fore
SplineSet
567 1489 m 1
 269 870 l 1
 137 870 l 1
 331 1489 l 1
 567 1489 l 1
961 1489 m 1
 663 870 l 1
 531 870 l 1
 725 1489 l 1
 961 1489 l 1
EndSplineSet
Validated: 1
EndChar

StartChar: guilsinglleft
Encoding: 8249 8249 234
Width: 784
Flags: W
VStem: 123 510
DStem2: 123 697 302 652 0.760834 0.648947<106.987 541.177> 302 652 123 608 0.760098 -0.649809<0 434.189>
LayerCount: 2
Fore
SplineSet
633 172 m 1
 123 608 l 1
 123 697 l 1
 633 1132 l 1
 633 933 l 1
 302 652 l 1
 633 371 l 1
 633 172 l 1
EndSplineSet
Validated: 1
EndChar

StartChar: guilsinglright
Encoding: 8250 8250 235
Width: 784
Flags: W
VStem: 151 510
DStem2: 151 1132 151 933 0.760834 -0.648947<129.14 563.33> 151 371 151 172 0.760098 0.649809<0 434.189>
LayerCount: 2
Fore
SplineSet
661 608 m 1
 151 172 l 1
 151 371 l 1
 482 652 l 1
 151 933 l 1
 151 1132 l 1
 661 697 l 1
 661 608 l 1
EndSplineSet
Validated: 1
EndChar

StartChar: uni203E
Encoding: 8254 8254 237
Width: 1118
Flags: W
HStem: 1658 131<-48 1118>
LayerCount: 2
Fore
SplineSet
1118 1658 m 1
 -48 1658 l 1
 -48 1789 l 1
 1118 1789 l 1
 1118 1658 l 1
EndSplineSet
Validated: 1
EndChar

StartChar: fraction
Encoding: 8260 8260 238
Width: 886
Flags: W
HStem: 0 21G<-29 146.477>
DStem2: -29 0 136 0 0.464029 0.88582<76.5648 1680.93>
LayerCount: 2
Fore
SplineSet
916 1489 m 1
 136 0 l 1
 -29 0 l 1
 751 1489 l 1
 916 1489 l 1
EndSplineSet
Validated: 1
EndChar

StartChar: uni207F
Encoding: 8319 8319 239
Width: 1010
Flags: W
HStem: 1349 170<419.124 671.824>
VStem: 125 180<566 1273.49 1394 1488> 710 180<566 1310.45>
LayerCount: 2
Fore
SplineSet
586 1519 m 3
 695 1519 890 1478 890 1163 c 2
 890 566 l 1
 710 566 l 1
 710 1088 l 2
 710 1255 707 1349 541 1349 c 3
 492 1349 423 1338 305 1241 c 1
 305 566 l 1
 125 566 l 1
 125 1488 l 1
 305 1488 l 1
 305 1394 l 1
 443 1514 528 1519 586 1519 c 3
EndSplineSet
Validated: 1
EndChar

StartChar: dottedcircle
Encoding: 9676 9676 240
Width: 1255
Flags: W
HStem: 7 121<553.139 669.635> 68 121<847.139 963.782> 98 121<288.139 404.913> 234 121<1013.14 1129.78> 249 121<145.139 261.635> 445 121<24.2128 141.099 1090.45 1202.81> 679 121<39.1394 155.635 1074.21 1191.1> 868 121<145.139 261.782> 891 121<967.139 1083.64> 1011 121<334.213 451.099> 1034 121<779.139 895.782> 1079 121<560.213 677.099>
VStem: 22 121<447.213 563.782> 37 121<681.213 797.635> 143 121<251.213 367.635 870.213 987.099> 286 121<100.213 216.709> 332 121<1013.21 1129.78> 551 121<9.21281 125.635 1083.05 1195.67> 777 121<1036.21 1153.1> 845 121<70.2128 187.099> 965 121<893.213 1009.64> 1011 121<236.213 353.099> 1086 121<440.213 556.709 686.328 792.637>
LayerCount: 2
Fore
SplineSet
203 868 m 0x070240
 168 868 143 894 143 928 c 0
 143 962 167 989 203 989 c 0
 240 989 264 962 264 928 c 0
 264 894 238 868 203 868 c 0x070240
392 1011 m 0x0640c0
 357 1011 332 1037 332 1071 c 0
 332 1106 358 1132 392 1132 c 0
 426 1132 453 1108 453 1071 c 0
 453 1035 426 1011 392 1011 c 0x0640c0
618 1079 m 0x061040
 583 1079 558 1105 558 1139 c 0
 558 1174 584 1200 618 1200 c 0
 652 1200 679 1176 679 1139 c 0
 679 1103 652 1079 618 1079 c 0x061040
82 445 m 0
 47 445 22 471 22 505 c 0
 22 540 48 566 82 566 c 0
 116 566 143 542 143 505 c 0x060840
 143 469 116 445 82 445 c 0
203 249 m 0x0e0240
 168 249 143 275 143 309 c 0
 143 342 167 370 203 370 c 0
 238 370 264 343 264 309 c 0
 264 273 236 249 203 249 c 0x0e0240
346 98 m 0x260140
 311 98 286 124 286 158 c 0
 286 192 310 219 346 219 c 0
 377 219 407 197 407 158 c 0
 407 122 380 98 346 98 c 0x260140
611 7 m 0x860040
 576 7 551 33 551 67 c 0
 551 100 575 128 611 128 c 0
 646 128 672 101 672 67 c 0
 672 31 644 7 611 7 c 0x860040
905 68 m 0x460050
 870 68 845 94 845 128 c 0x860050
 845 162 869 189 905 189 c 0x460050
 942 189 966 162 966 128 c 0x860050
 966 94 940 68 905 68 c 0x460050
1071 234 m 0x160044
 1036 234 1011 260 1011 294 c 0
 1011 328 1035 355 1071 355 c 0
 1108 355 1132 328 1132 294 c 0
 1132 260 1106 234 1071 234 c 0x160044
1146 438 m 0
 1111 438 1086 464 1086 498 c 0
 1086 532 1110 559 1146 559 c 0
 1177 559 1207 537 1207 498 c 0x060042
 1207 462 1180 438 1146 438 c 0
1132 679 m 0x060044
 1097 679 1072 705 1072 739 c 0
 1072 774 1098 800 1132 800 c 0
 1166 800 1193 776 1193 739 c 0
 1193 703 1166 679 1132 679 c 0x060044
1025 891 m 0x068048
 990 891 965 917 965 951 c 0
 965 984 989 1012 1025 1012 c 0
 1060 1012 1086 985 1086 951 c 0
 1086 915 1058 891 1025 891 c 0x068048
837 1034 m 0x062060
 802 1034 777 1060 777 1094 c 0
 777 1128 801 1155 837 1155 c 0
 874 1155 898 1128 898 1094 c 0
 898 1060 872 1034 837 1034 c 0x062060
97 679 m 0
 62 679 37 705 37 739 c 0
 37 772 61 800 97 800 c 0
 132 800 158 773 158 739 c 0x060440
 158 703 130 679 97 679 c 0
EndSplineSet
Validated: 1
EndChar

StartChar: uni0E10.descless
Encoding: 63232 63232 241
Width: 1245
VWidth: 2045
Flags: W
HStem: 0 21G<678.985 907.012> 244 134<456.953 612.939> 557 133<459.827 611.747> 744 178<363 847.513> 1101 178<502.326 846.672>
VStem: 311 134<390.966 544.305> 858 180<583.656 733.901>
DStem2: 794 285 903 0 0.196694 0.980465<0 386.942>
LayerCount: 2
Fore
SplineSet
762 922 m 2
 891 922 1038 819 1038 694 c 0
 1038 681 1037 667 1034 653 c 2
 903 0 l 1
 683 0 l 25
 630 264 l 1
 600 251 568 244 535 244 c 0
 409 244 311 344 311 468 c 0
 311 589 408 690 535 690 c 0
 685 690 747 565 755 519 c 2
 794 285 l 1
 857 655 l 2
 858 659 858 663 858 667 c 0
 858 710 820 744 767 744 c 2
 136 744 l 1
 136 1043 380 1279 675 1279 c 0
 892 1279 1054 1162 1142 1013 c 1
 986 924 l 1
 960 969 862 1101 675 1101 c 0
 488 1101 391 968 363 922 c 1
 762 922 l 2
536 557 m 0
 484 557 445 516 445 467 c 0
 445 414 490 378 536 378 c 0
 584 378 625 416 625 467 c 0
 625 518 585 557 536 557 c 0
EndSplineSet
Validated: 1
EndChar

StartChar: uni0E34.left
Encoding: 63233 63233 242
Width: 0
VWidth: 2045
Flags: W
HStem: 1726 174<-1202.83 -867.662>
DStem2: -1269 1636 -1559 1507 0.995651 -0.0931658<0 516.33>
LayerCount: 2
Back
SplineSet
-1396 1593 m 13
 -883 1544 l 1
 -910.333 1582.67 -949.333 1615 -1000 1641 c 0
 -1050 1667 -1105.33 1681 -1166 1683 c 0
 -1194 1683 -1235 1674 -1289 1656 c 0
 -1343.67 1638.67 -1379.33 1617.67 -1396 1593 c 13
-1686 1464 m 21
 -1650 1594 -1581.33 1692 -1480 1758 c 0
 -1380 1825.33 -1275.33 1858.33 -1166 1857 c 0
 -1032 1855 -913 1810 -809 1722 c 0
 -705 1633.33 -644.667 1514.33 -628 1365 c 1
 -1686 1464 l 21
EndSplineSet
Fore
Refer: 175 3636 N 1 0 0 1 -330 0 2
Validated: 1
EndChar

StartChar: uni0E35.left
Encoding: 63234 63234 243
Width: 0
VWidth: 2045
Flags: W
HStem: 1723 174<-1202.83 -865.177>
VStem: -658 157<1741 2040>
DStem2: -1269 1633 -1559 1504 0.995651 -0.0931658<0 516.33>
LayerCount: 2
Back
SplineSet
-785 1701 m 13
 -785 2000 l 1
 -628 2000 l 1
 -628 1365 l 1
 -1686 1464 l 1
 -1650 1594 -1581.33 1692 -1480 1758 c 0
 -1380 1825.33 -1275.33 1858.33 -1166 1857 c 0
 -1033.33 1855 -906.333 1803 -785 1701 c 13
-1396 1593 m 13
 -883 1544 l 1
 -910.333 1582.67 -949.333 1615 -1000 1641 c 0
 -1050 1667 -1105.33 1681 -1166 1683 c 0
 -1194 1683 -1235 1674 -1289 1656 c 0
 -1343.67 1638.67 -1379.33 1617.67 -1396 1593 c 13
EndSplineSet
Fore
Refer: 176 3637 N 1 0 0 1 -330 0 2
Validated: 1
EndChar

StartChar: uni0E36.left
Encoding: 63235 63235 244
Width: 0
VWidth: 2045
Flags: W
HStem: 1721 174<-1202.83 -915.866> 1971 133<-768.944 -615.326>
VStem: -918 135<1881 1956.81> -603 136<1805.36 1958.78>
DStem2: -1269 1631 -1559 1502 0.995651 -0.0931658<0 516.33>
LayerCount: 2
Back
SplineSet
-761 1639 m 5
 -705 1563 -671 1471.67 -659 1365 c 1
 -1717 1464 l 1
 -1679.67 1594 -1611 1692 -1511 1758 c 0
 -1410.33 1824.67 -1305.67 1857.67 -1197 1857 c 0
 -1157 1856.33 -1116.67 1851.67 -1076 1843 c 1
 -1076 1905 -1054 1957.67 -1010 2001 c 0
 -966.667 2044.33 -913.667 2066 -851 2066 c 0
 -788.333 2066 -735 2044.33 -691 2001 c 0
 -647 1957.67 -625 1905.33 -625 1844 c 0
 -625 1782.67 -647.333 1730 -692 1686 c 0
 -710.667 1666 -733.667 1650.33 -761 1639 c 5
-941 1843 m 4
 -941 1818.33 -932 1797.67 -914 1781 c 0
 -895.333 1763.67 -874.333 1755 -851 1755 c 0
 -827 1755 -805.667 1763.67 -787 1781 c 0
 -769.667 1798.33 -761 1819 -761 1843 c 0
 -761 1867 -769.667 1888.33 -787 1907 c 0
 -804.333 1924.33 -825.667 1933 -851 1933 c 0
 -875.667 1933 -896.667 1924.33 -914 1907 c 0
 -932 1889 -941 1867.67 -941 1843 c 4
-1427 1593 m 13
 -913 1544 l 1
 -941.667 1582.67 -981 1615 -1031 1641 c 0
 -1079.67 1667 -1135 1681 -1197 1683 c 0
 -1224 1683 -1265 1674 -1320 1656 c 0
 -1374.67 1638.67 -1410.33 1617.67 -1427 1593 c 13
EndSplineSet
Fore
Refer: 177 3638 N 1 0 0 1 -330 0 2
Validated: 1
EndChar

StartChar: uni0E37.left
Encoding: 63236 63236 245
Width: 0
VWidth: 2045
Flags: W
HStem: 1728 174<-1202.83 -895.811>
VStem: -894 157<1879 2045> -658 157<1746 2045>
DStem2: -1269 1638 -1559 1509 0.995651 -0.0931658<0 516.33>
LayerCount: 2
Back
SplineSet
-864 1761 m 21
 -840 1744.33 -813.667 1724.33 -785 1701 c 1
 -785 2000 l 1
 -628 2000 l 1
 -628 1365 l 1
 -1686 1464 l 1
 -1650 1594 -1581.33 1692 -1480 1758 c 0
 -1380 1825.33 -1275.33 1858.33 -1166 1857 c 0
 -1118.67 1856.33 -1070.33 1848.67 -1021 1834 c 1
 -1021 2000 l 1
 -864 2000 l 1
 -864 1761 l 21
-1396 1593 m 13
 -883 1544 l 1
 -910.333 1582.67 -949.333 1615 -1000 1641 c 0
 -1050 1667 -1105.33 1681 -1166 1683 c 0
 -1194 1683 -1235 1674 -1289 1656 c 0
 -1343.67 1638.67 -1379.33 1617.67 -1396 1593 c 13
EndSplineSet
Fore
Refer: 178 3639 N 1 0 0 1 -330 0 2
Validated: 1
EndChar

StartChar: uni0E48.low_left
Encoding: 63237 63237 246
Width: 0
VWidth: 2045
Flags: W
HStem: 1415 464<-673 -493>
VStem: -673 180<1415 1879>
LayerCount: 2
Back
SplineSet
-820 1298 m 21
 -820 1628 l 5
 -640 1628 l 5
 -640 1298 l 5
 -820 1298 l 21
EndSplineSet
Fore
Refer: 251 63242 N 1 0 0 1 -293 0 2
Validated: 1
EndChar

StartChar: uni0E49.low_left
Encoding: 63238 63238 247
Width: 0
VWidth: 2045
Flags: W
HStem: 1810 112<-995.502 -872.984>
VStem: -1114 113<1680.63 1805.62> -867 113<1680.77 1804.8> -556 157<1716.58 1909>
LayerCount: 2
Back
SplineSet
-808 1897 m 0
 -702 1897 -628 1815 -628 1719 c 0
 -628 1661 -648 1613 -687 1575 c 2
 -754 1503 l 1
 -672 1518 -597 1556 -530 1619 c 0
 -463 1682 -430 1770 -430 1885 c 1
 -273 1885 l 1
 -267 1569 -532 1347 -810 1347 c 2
 -959 1347 l 1
 -959 1501 l 1
 -857 1557 l 1
 -982 1581 -988 1693 -988 1720 c 0
 -988 1817 -913 1897 -808 1897 c 0
-808 1785 m 0
 -851 1785 -875 1752 -875 1719 c 0
 -875 1679 -843 1652 -808 1652 c 0
 -770 1652 -741 1684 -741 1719 c 0
 -741 1748 -765 1785 -808 1785 c 0
EndSplineSet
Fore
Refer: 252 63243 N 1 0 0 1 -407 0 2
Validated: 1
EndChar

StartChar: uni0E4A.low_left
Encoding: 63239 63239 248
Width: 0
VWidth: 2045
Flags: W
HStem: 1377 112<-1149.46 -1023.68> 1621 112<-1140.39 -1023.68> 1787 127<-1124.61 -943.116 -810.124 -630.555>
VStem: -1298 145<1495.26 1730> -1019 113<1494.29 1615.71> -598 128<1581.81 1755.89> -337 128<1700.29 1866>
LayerCount: 2
Back
SplineSet
-313 1551 m 1
 -244 1604 -172 1702 -172 1837 c 1
 -44 1837 l 17
 -44 1536 -306 1347 -515 1347 c 1
 -515 1474 l 1
 -514.963 1474 -433 1525.1 -433 1616 c 0
 -433 1718 -508 1758 -544 1758 c 0
 -598 1758 -637 1736 -657 1693 c 1
 -758 1693 l 1
 -799 1736 -835 1758 -864 1758 c 0
 -909 1757 -950 1731 -976 1696 c 1
 -957 1701 -938 1704 -921 1704 c 0
 -816 1704 -741 1623 -741 1525 c 0
 -741 1428 -816 1347 -921 1347 c 0
 -1018 1347 -1133 1419 -1133 1595 c 0
 -1133 1806 -958 1885 -864 1885 c 0
 -795 1885 -742 1864 -706 1821 c 1
 -671 1864 -618 1885 -549 1885 c 0
 -439 1885 -305 1782 -305 1616 c 0
 -305 1591 -308 1570 -313 1551 c 1
-921 1592 m 0
 -959 1592 -988 1560 -988 1525 c 0
 -988 1492 -960 1459 -921 1459 c 0
 -883 1459 -854 1490 -854 1525 c 0
 -854 1564 -887 1592 -921 1592 c 0
EndSplineSet
Fore
Refer: 253 63244 N 1 0 0 1 -351 0 2
Validated: 1
EndChar

StartChar: uni0E4B.low_left
Encoding: 63240 63240 249
Width: 0
VWidth: 2045
Flags: W
HStem: 1538 178<-974 -824 -643 -493>
VStem: -824 181<1387 1538 1716 1867>
LayerCount: 2
Back
SplineSet
-340 1521 m 5
 -490 1521 l 5
 -490 1371 l 5
 -671 1371 l 5
 -671 1521 l 5
 -821 1521 l 5
 -821 1701 l 5
 -671 1701 l 5
 -671 1850 l 5
 -490 1850 l 5
 -490 1701 l 5
 -340 1701 l 5
 -340 1521 l 5
EndSplineSet
Fore
Refer: 254 63245 N 1 0 0 1 -376 0 2
Validated: 1
EndChar

StartChar: uni0E4C.low_left
Encoding: 63241 63241 250
Width: 0
VWidth: 2045
Flags: W
HStem: 1376 134<-814.463 -660.652> 1668 154<-522 -136.875> 1689 133<-812.456 -659.511>
VStem: -961 134<1524.05 1674.9> -647 136<1523.15 1667.35>
LayerCount: 2
Back
SplineSet
-779 1680 m 0xb8
 -826 1680 -869 1644 -869 1591 c 0
 -869 1539 -826 1501 -779 1501 c 0
 -732 1501 -689 1539 -689 1591 c 0
 -689 1644 -732 1680 -779 1680 c 0xb8
-1003 1590 m 0
 -1003 1722 -899 1814 -778 1814 c 2xb8
 -308 1812 l 2
 -244 1812 -197 1831 -168 1870 c 1
 -58 1761 l 1
 -125 1692 -209 1658 -308 1658 c 2
 -564 1660 l 1xd8
 -557 1637 -553 1614 -553 1592 c 0
 -553 1470 -652 1368 -779 1368 c 0
 -898 1368 -1003 1460 -1003 1590 c 0
EndSplineSet
Fore
Refer: 255 63246 N 1 0 0 1 -126 0 2
Validated: 1
EndChar

StartChar: uni0E48.low
Encoding: 63242 63242 251
Width: 0
VWidth: 2045
Flags: W
HStem: 1415 464<-380 -200>
VStem: -380 180<1415 1879>
AnchorPoint: "AboveMark" -290 2070 basemark 0
AnchorPoint: "AboveBase" -200 1339 mark 0
LayerCount: 2
Fore
SplineSet
-380 1415 m 17
 -380 1879 l 1
 -200 1879 l 1
 -200 1415 l 1
 -380 1415 l 17
EndSplineSet
Validated: 1
EndChar

StartChar: uni0E49.low
Encoding: 63243 63243 252
Width: 0
VWidth: 2045
Flags: W
HStem: 1810 112<-588.502 -465.984>
VStem: -707 113<1680.63 1805.62> -460 113<1680.77 1804.8> -149 157<1716.58 1909>
AnchorPoint: "AboveMark" -404 2070 basemark 0
AnchorPoint: "AboveBase" -86 1339 mark 0
LayerCount: 2
Fore
SplineSet
-527 1922 m 0
 -434 1922 -347 1850 -347 1743 c 0
 -347 1686 -369 1640 -406 1600 c 2
 -473 1527 l 1
 -391 1542 -316 1581 -249 1644 c 0
 -182 1707 -149 1795 -149 1909 c 1
 8 1909 l 1
 8 1593 -249 1372 -529 1372 c 2
 -678 1372 l 1
 -678 1526 l 1
 -576 1582 l 1
 -701 1606 -707 1716 -707 1745 c 0
 -707 1851 -621 1922 -527 1922 c 0
-527 1810 m 0
 -562 1810 -594 1783 -594 1743 c 0
 -594 1707 -568 1677 -527 1677 c 0
 -484 1677 -460 1714 -460 1743 c 0
 -460 1781 -492 1810 -527 1810 c 0
EndSplineSet
Validated: 1
EndChar

StartChar: uni0E4A.low
Encoding: 63244 63244 253
Width: 0
VWidth: 2045
Flags: W
HStem: 1377 112<-798.458 -672.684> 1621 112<-789.386 -672.684> 1787 127<-773.607 -592.116 -459.124 -279.555>
VStem: -947 145<1495.26 1730> -668 113<1494.29 1615.71> -247 128<1581.81 1755.89> 14 128<1700.29 1866>
AnchorPoint: "AboveMark" -520 2070 basemark 0
AnchorPoint: "AboveBase" -142 1339 mark 0
LayerCount: 2
Fore
SplineSet
-127 1581 m 1
 -51 1639 14 1738 14 1866 c 1
 142 1866 l 17
 142 1573 -112 1377 -329 1377 c 1
 -329 1504 l 1
 -329 1504 -247 1554 -247 1646 c 0
 -247 1748 -322 1787 -355 1787 c 0
 -383 1787 -443 1782 -471 1723 c 1
 -572 1723 l 1
 -613 1766 -648 1787 -678 1787 c 0
 -742 1785 -784 1735 -790 1726 c 1
 -773 1731 -755 1733 -735 1733 c 0
 -627 1733 -555 1649 -555 1555 c 0
 -555 1461 -627 1377 -735 1377 c 0
 -829 1377 -947 1444 -947 1624 c 0
 -947 1836 -774 1914 -678 1914 c 0
 -609 1914 -556 1893 -520 1851 c 1
 -485 1893 -432 1914 -363 1914 c 0
 -246 1914 -119 1805 -119 1646 c 0
 -119 1621 -122 1600 -127 1581 c 1
-735 1621 m 0
 -775 1621 -802 1590 -802 1555 c 0
 -802 1520 -775 1489 -735 1489 c 0
 -697 1489 -668 1519 -668 1555 c 0
 -668 1591 -697 1621 -735 1621 c 0
EndSplineSet
Validated: 1
EndChar

StartChar: uni0E4B.low
Encoding: 63245 63245 254
Width: 0
VWidth: 2045
Flags: W
HStem: 1538 178<-598 -448 -267 -117>
VStem: -448 181<1387 1538 1716 1867>
AnchorPoint: "AboveMark" -358 2070 basemark 0
AnchorPoint: "AboveBase" -117 1339 mark 0
LayerCount: 2
Fore
SplineSet
-117 1538 m 1
 -267 1538 l 1
 -267 1387 l 1
 -448 1387 l 1
 -448 1538 l 1
 -598 1538 l 1
 -598 1716 l 1
 -448 1716 l 1
 -448 1867 l 1
 -267 1867 l 1
 -267 1716 l 1
 -117 1716 l 1
 -117 1538 l 1
EndSplineSet
Validated: 1
EndChar

StartChar: uni0E4C.low
Encoding: 63246 63246 255
Width: 0
VWidth: 2045
Flags: W
HStem: 1376 134<-688.463 -534.652> 1668 154<-396 -10.8749> 1689 133<-686.456 -533.511>
VStem: -835 134<1524.05 1674.9> -521 136<1523.15 1667.35>
AnchorPoint: "AboveMark" -367 2070 basemark 0
AnchorPoint: "AboveBase" -367 1339 mark 0
LayerCount: 2
Fore
SplineSet
-611 1689 m 0xb8
 -658 1689 -701 1651 -701 1599 c 0
 -701 1546 -658 1510 -611 1510 c 0
 -564 1510 -521 1546 -521 1599 c 0
 -521 1651 -564 1689 -611 1689 c 0xb8
-835 1600 m 0
 -835 1728 -732 1822 -610 1822 c 2xb8
 -140 1822 l 2
 -76 1822 -29 1840 0 1879 c 1
 110 1770 l 1
 43 1702 -41 1668 -140 1668 c 2
 -396 1668 l 1xd8
 -389 1644 -385 1621 -385 1598 c 0
 -385 1482 -482 1376 -611 1376 c 0
 -733 1376 -835 1471 -835 1600 c 0
EndSplineSet
Validated: 1
EndChar

StartChar: uni0E0D.descless
Encoding: 63247 63247 256
Width: 1924
VWidth: 2045
Flags: W
HStem: -11 134<375.699 526.409> 0 178<1164 1547> 302 133<405.573 528.326> 744 178<405 497> 1101 178<450.812 797.913> 1234 20G<1547 1727>
VStem: 225 180<430 744> 225 136<135.713 289.706> 541 136<136.145 287.122> 984 180<178 913.651> 1547 180<178 1254>
LayerCount: 2
Fore
SplineSet
625 1279 m 0xbae0
 922 1279 1164 1037 1164 744 c 2
 1164 178 l 1
 1547 178 l 1
 1547 1254 l 1
 1727 1254 l 1x76e0
 1727 0 l 1
 984 0 l 25
 984 744 l 2
 984 940 828 1101 625 1101 c 0
 438 1101 340 969 314 922 c 1
 497 922 l 1
 497 744 l 1
 405 744 l 1
 405 430 l 1x7ae0
 416 433 432 435 451 435 c 0
 575 435 677 337 677 213 c 0
 677 92 578 -11 451 -11 c 0
 324 -11 225 91 225 211 c 2xb9e0
 225 744 l 1
 85 744 l 1
 85 1036 323 1279 625 1279 c 0xbae0
451 302 m 0
 400 302 361 260 361 212 c 0
 361 164 400 123 451 123 c 0xb1e0
 498 123 541 160 541 212 c 0
 541 264 497 302 451 302 c 0
EndSplineSet
Validated: 1
EndChar

StartChar: uni0E31.left
Encoding: 63248 63248 257
Width: 0
VWidth: 2045
Flags: W
HStem: 1378 163<-637 -433.847> 1749 133<-882.398 -729.31>
VStem: -1028 133<1584.48 1736.61> -715 135<1583.04 1736.21>
LayerCount: 2
Back
SplineSet
-782 1577 m 1
 -618 1572 -480 1645 -363 1838 c 1
 -221 1743 l 1
 -402 1441 -664 1414 -814 1414 c 0
 -1119 1414 -1173 1618 -1173 1690 c 0
 -1173 1825 -1075 1918 -950 1918 c 0
 -821 1918 -725 1812 -725 1709 c 0
 -725 1652 -746 1603 -782 1577 c 1
-950 1785 m 0
 -1006 1785 -1040 1740 -1040 1695 c 0
 -1040 1648 -1003 1607 -950 1607 c 0
 -898 1607 -860 1648 -860 1695 c 0
 -860 1740 -894 1785 -950 1785 c 0
EndSplineSet
Fore
Refer: 172 3633 N 1 0 0 1 -215 0 2
Validated: 1
EndChar

StartChar: uni0E4D.left
Encoding: 63249 63249 258
Width: 0
VWidth: 2045
Flags: W
HStem: 1375 134<-794.92 -640.482> 1688 133<-792.774 -641.226>
VStem: -941 134<1521.42 1674.67> -627 134<1522.63 1674.67>
LayerCount: 2
Back
SplineSet
-855 1364 m 0
 -982 1364 -1079 1465 -1079 1587 c 0
 -1079 1707 -985 1810 -855 1810 c 0
 -725 1810 -631 1707 -631 1587 c 0
 -631 1458 -735 1364 -855 1364 c 0
-855 1677 m 0
 -906 1677 -945 1636 -945 1587 c 0
 -945 1539 -907 1498 -855 1498 c 0
 -803 1498 -765 1539 -765 1587 c 0
 -765 1636 -804 1677 -855 1677 c 0
EndSplineSet
Fore
Refer: 196 3661 N 1 0 0 1 -319 0 2
Validated: 1
EndChar

StartChar: uni0E47.left
Encoding: 63250 63250 259
Width: 0
VWidth: 2045
Flags: W
HStem: 1384 112<-717.532 -593.775> 1493 131<-1053.5 -923.259> 1629 112<-717.103 -593.383> 1786 119<-1149.37 -543.393>
VStem: -1316 131<1538.27 1749.81> -835 113<1529.43 1625.04> -588 113<1500.66 1623.03>
LayerCount: 2
Back
SplineSet
-1090 1313 m 1
 -1322 1342 -1353 1477 -1353 1568 c 0
 -1353 1779 -1177 1834 -1040 1834 c 0
 -978 1834 -916 1822 -810 1822 c 0
 -648 1822 -555 1864 -531 1947 c 1
 -429 1887 l 1
 -464 1766 -583 1705 -787 1704 c 0
 -906 1704 -954 1715 -1026 1715 c 0
 -1200 1715 -1222 1644 -1222 1565 c 0
 -1222 1503 -1200 1467 -1157 1458 c 1
 -1157 1527 -1113 1553 -1073 1553 c 0
 -979 1553 -940 1472 -869 1458 c 1
 -871 1469 -872 1480 -872 1491 c 0
 -874 1593 -789 1670 -692 1670 c 0
 -596 1670 -512 1594 -512 1491 c 0
 -512 1414 -564 1313 -711 1313 c 0
 -902 1313 -953 1422 -1044 1422 c 0
 -1082 1422 -1092 1400 -1092 1357 c 0
 -1092 1344 -1091 1329 -1090 1313 c 1
-692 1558 m 0
 -727 1558 -759 1531 -759 1491 c 0
 -759 1455 -732 1425 -692 1425 c 0
 -652 1425 -625 1456 -625 1491 c 0
 -625 1529 -657 1558 -692 1558 c 0
EndSplineSet
Fore
Refer: 190 3655 N 1 0 0 1 -221 17 2
Validated: 1
EndChar

StartChar: uni0E48.left
Encoding: 63251 63251 260
Width: 0
VWidth: 2045
Flags: W
HStem: 2128 330<-668 -488>
VStem: -668 180<2128 2458>
LayerCount: 2
Back
SplineSet
-805 1797 m 17
 -805 2127 l 1
 -625 2127 l 1
 -625 1797 l 1
 -805 1797 l 17
EndSplineSet
Fore
Refer: 191 3656 N 1 0 0 1 -328 0 2
Validated: 1
EndChar

StartChar: uni0E4A.left
Encoding: 63253 63253 262
Width: 0
VWidth: 2045
Flags: W
HStem: 2100 90<-848.641 -744.251> 2296 90<-839.457 -744.181> 2429 102<-835.017 -673.548 -581.07 -426.032>
VStem: -966 116<2192.81 2355.31> -743 91<2190.8 2295.13> -406 103<2264.06 2410.87> -197 102<2339.12 2492>
LayerCount: 2
Back
SplineSet
-403 2295 m 1
 -334 2348 -262 2446 -262 2581 c 1
 -134 2581 l 17
 -134 2280 -396 2091 -605 2091 c 1
 -605 2218 l 1
 -604.963 2218 -523 2269.1 -523 2360 c 0
 -523 2462 -598 2502 -634 2502 c 0
 -688 2502 -727 2480 -747 2437 c 1
 -848 2437 l 1
 -889 2480 -925 2502 -954 2502 c 0
 -999 2501 -1040 2475 -1066 2440 c 1
 -1047 2445 -1028 2448 -1011 2448 c 0
 -906 2448 -831 2367 -831 2269 c 0
 -831 2172 -906 2091 -1011 2091 c 0
 -1108 2091 -1223 2163 -1223 2339 c 0
 -1223 2550 -1048 2629 -954 2629 c 0
 -885 2629 -832 2608 -796 2565 c 1
 -761 2608 -708 2629 -639 2629 c 0
 -529 2629 -395 2526 -395 2360 c 0
 -395 2335 -398 2314 -403 2295 c 1
-1011 2336 m 0
 -1049 2336 -1078 2304 -1078 2269 c 0
 -1078 2236 -1050 2203 -1011 2203 c 0
 -973 2203 -944 2234 -944 2269 c 0
 -944 2308 -977 2336 -1011 2336 c 0
EndSplineSet
Fore
Refer: 193 3658 N 1 0 0 1 -325 0 2
Validated: 1
EndChar

StartChar: uni0E4B.left
Encoding: 63254 63254 263
Width: 0
VWidth: 2045
Flags: W
HStem: 2247 144<-768 -648 -504 -384>
VStem: -648 144<2127 2247 2391 2510>
LayerCount: 2
Back
SplineSet
-248 2274 m 5
 -398 2274 l 5
 -398 2124 l 5
 -579 2124 l 5
 -579 2274 l 5
 -729 2274 l 5
 -729 2454 l 5
 -579 2454 l 5
 -579 2603 l 5
 -398 2603 l 5
 -398 2454 l 5
 -248 2454 l 5
 -248 2274 l 5
EndSplineSet
Fore
Refer: 194 3659 N 1 0 0 1 -325 0 2
Validated: 1
EndChar

StartChar: uni0E4C.left
Encoding: 63255 63255 264
Width: 0
VWidth: 2045
Flags: W
HStem: 2138 106<-817.069 -687.428> 2371 124<-580 -264.089> 2387 108<-816.008 -685.217>
VStem: -931 107<2250.56 2380.74> -680 109<2250.6 2370.56>
LayerCount: 2
Back
SplineSet
-809 2118 m 0xb8
 -856 2118 -899 2082 -899 2029 c 0
 -899 1977 -856 1939 -809 1939 c 0
 -762 1939 -719 1977 -719 2029 c 0
 -719 2082 -762 2118 -809 2118 c 0xb8
-1033 2028 m 0
 -1033 2160 -929 2252 -808 2252 c 2xb8
 -338 2250 l 2
 -274 2250 -227 2269 -198 2308 c 1
 -88 2199 l 1
 -155 2130 -239 2096 -338 2096 c 2
 -594 2098 l 1xd8
 -587 2075 -583 2052 -583 2030 c 0
 -583 1908 -682 1806 -809 1806 c 0
 -928 1806 -1033 1898 -1033 2028 c 0
EndSplineSet
Fore
Refer: 195 3660 N 1 0 0 1 -325 0 2
Validated: 1
EndChar

StartChar: uni0E38.low
Encoding: 63256 63256 265
Width: 0
VWidth: 2045
Flags: W
HStem: -1069 133<-458.681 -338.863> -758 134<-460.532 -307.081>
VStem: -610 136<-920.774 -770.289> -338 180<-1292 -1066> -294 136<-923.504 -772.239>
LayerCount: 2
Back
SplineSet
-530 -621 m 4
 -466 -621 -369 -649 -369 -836 c 6
 -369 -1072 l 5
 -500 -1072 l 5
 -500 -896 l 5
 -510 -907 -521 -912 -532 -912 c 4
 -628 -912 -683 -875 -683 -782 c 4
 -683 -702 -652 -621 -530 -621 c 4
-491 -774 m 4
 -491 -712 -521 -700 -541 -700 c 4
 -585 -700 -607 -724 -607 -773 c 4
 -607 -822 -585 -846 -541 -846 c 4
 -508 -846 -491 -822 -491 -774 c 4
-290 -535 m 1
 -290 -359 l 1
 -300 -369.667 -310.667 -375 -322 -375 c 0
 -373.333 -375 -411.333 -364.333 -436 -343 c 0
 -460.667 -321.667 -473 -289 -473 -245 c 0
 -473 -193 -460 -153 -434 -125 c 0
 -408.667 -97.6667 -370.667 -84 -320 -84 c 0
 -267.333 -84 -227.333 -102.333 -200 -139 c 0
 -172.667 -174.333 -159 -227.667 -159 -299 c 2
 -159 -535 l 1
 -290 -535 l 1
-331 -163 m 0
 -375 -163 -397 -187.333 -397 -236 c 0
 -397 -284.667 -375 -309 -331 -309 c 0
 -297.667 -309 -281 -285 -281 -237 c 0
 -281 -213.667 -285.333 -195.667 -294 -183 c 0
 -303.333 -169.667 -315.667 -163 -331 -163 c 0
EndSplineSet
Fore
Refer: 179 3640 N 1 0 0 1 0 -537 2
Validated: 1
EndChar

StartChar: uni0E39.low
Encoding: 63257 63257 266
Width: 0
VWidth: 2045
Flags: W
HStem: -1312 156<-501 -338> -1069 133<-802.028 -681.618> -758 134<-803.398 -649.67>
VStem: -952 136<-923.112 -770.654> -681 180<-1156 -1066> -637 136<-923.504 -771.438> -338 180<-1156 -622>
LayerCount: 2
Back
SplineSet
-808 -621 m 4
 -711 -621 -646 -672 -646 -836 c 6
 -646 -972 l 5
 -503 -972 l 5
 -503 -634 l 5
 -369 -634 l 5
 -369 -1072 l 5
 -777 -1072 l 5
 -777 -896 l 5
 -790 -913 -812 -913 -844 -913 c 4
 -909 -913 -960 -857 -960 -782 c 4
 -960 -683 -892 -621 -808 -621 c 4
-770 -770 m 4
 -770 -734 -780 -700 -820 -700 c 4
 -856 -700 -884 -729 -884 -773 c 4
 -884 -821 -866 -845 -829 -845 c 4
 -782 -845 -770 -806 -770 -770 c 4
-293 -97 m 1
 -159 -97 l 1
 -159 -535 l 1
 -567 -535 l 1
 -567 -359 l 1
 -571.667 -365.667 -578 -370 -586 -372 c 0
 -594 -374 -601 -375 -607 -375 c 2
 -611 -375.667 -620 -376 -634 -376 c 0
 -666 -376 -693.667 -363.333 -717 -338 c 0
 -739 -312 -750 -281 -750 -245 c 0
 -750 -197.667 -735.667 -159.333 -707 -130 c 0
 -678.333 -99.3333 -642 -84 -598 -84 c 0
 -537.333 -84 -494.667 -104.333 -470 -145 c 0
 -447.333 -178.333 -436 -229.667 -436 -299 c 2
 -436 -435 l 1
 -293 -435 l 1
 -293 -97 l 1
-610 -163 m 0
 -627.333 -163 -642.667 -170 -656 -184 c 0
 -668 -198 -674 -215.333 -674 -236 c 0
 -674 -284 -655.667 -308 -619 -308 c 0
 -599 -308 -584 -301 -574 -287 c 0
 -564.667 -273.667 -560 -255.667 -560 -233 c 0
 -560 -210.333 -564 -193 -572 -181 c 0
 -581.333 -169 -594 -163 -610 -163 c 0
EndSplineSet
Fore
Refer: 180 3641 N 1 0 0 1 0 -537 2
Validated: 1
EndChar

StartChar: uni0E3A.low
Encoding: 63258 63258 267
Width: 0
VWidth: 2045
Flags: W
HStem: -975 356<-488.489 -253.23>
VStem: -552 360<-913.849 -680.31>
LayerCount: 2
Back
SplineSet
-594 -732 m 4
 -594 -648 -524 -597 -460 -597 c 4
 -376 -597 -326 -673 -326 -732 c 4
 -326 -819 -404 -866 -460 -866 c 4
 -529 -866 -594 -812 -594 -732 c 4
-250 -60 m 0
 -213.333 -60 -182.333 -73.3333 -157 -100 c 0
 -129.667 -129.333 -116 -161 -116 -195 c 0
 -116 -232.333 -129.667 -264 -157 -290 c 0
 -187 -316 -218 -329 -250 -329 c 0
 -285.333 -329 -317 -316 -345 -290 c 0
 -371 -263.333 -384 -231.667 -384 -195 c 0
 -384 -157.667 -371 -126 -345 -100 c 0
 -317 -73.3333 -285.333 -60 -250 -60 c 0
EndSplineSet
Fore
Refer: 181 3642 N 1 0 0 1 0 -537 2
Validated: 1
EndChar

StartChar: uniF71B
Encoding: 63259 63259 268
Width: 998
VWidth: 2045
Flags: W
HStem: 1064 20G<215 829>
VStem: 215 614<60 1084>
LayerCount: 2
Fore
SplineSet
829 1084 m 1
 829 60 l 1
 215 60 l 1
 215 1084 l 1
 829 1084 l 1
EndSplineSet
Validated: 1
EndChar

StartChar: uniF71C
Encoding: 63260 63260 269
Width: 698
VWidth: 2045
Flags: W
HStem: -423 269
VStem: 107 378
LayerCount: 2
Fore
SplineSet
107 -423 m 1
 244 -154 l 1
 485 -154 l 1
 244 -423 l 1
 107 -423 l 1
EndSplineSet
Validated: 1
EndChar

StartChar: uniF71D
Encoding: 63261 63261 270
Width: 798
VWidth: 2045
Flags: W
HStem: -236 211<183 265 531 616> -127 102<265 531>
VStem: 183 82<-236 -127> 531 85<-236 -127>
LayerCount: 2
Fore
SplineSet
616 -236 m 1xb0
 531 -236 l 1xb0
 531 -127 l 1
 265 -127 l 1x70
 265 -236 l 1
 183 -236 l 1
 183 -25 l 1
 616 -25 l 1
 616 -236 l 1xb0
EndSplineSet
Validated: 1
EndChar

StartChar: zerowidthnonjoiner
Encoding: 8204 8204 271
Width: 0
Flags: W
LayerCount: 2
Back
SplineSet
36 1289 m 1
 36 -275 l 1
 -36 -275 l 1
 -36 1289 l 1
 36 1289 l 1
EndSplineSet
EndChar

StartChar: uni0E47.high
Encoding: 63263 63263 275
Width: 0
VWidth: 2045
Flags: W
HStem: 2084 116<-527.409 -456.983> 2168 130<-800 -677.073> 2272 116<-526.719 -456.119> 2397 121<-866 -401.1>
VStem: -1014 131<2233.61 2376.15> -645 117<2232.3 2268.43> -455 117<2200.37 2271.79>
AnchorPoint: "AboveMark" -659 2560 basemark 0
AnchorPoint: "AboveMark" -659 2070 mark 0
LayerCount: 2
Back
SplineSet
-796.976 2098.86 m 1xbe
 -975.152 2121.13 -998.96 2224.81 -998.96 2294.7 c 0
 -998.96 2456.74 -863.792 2498.98 -758.576 2498.98 c 0
 -710.96 2498.98 -663.344 2489.77 -581.936 2489.77 c 0
 -457.52 2489.77 -386.096 2522.02 -367.664 2585.77 c 1
 -289.328 2539.69 l 1
 -316.208 2446.76 -407.6 2399.91 -564.271 2399.14 c 0
 -655.664 2399.14 -692.528 2407.59 -747.824 2407.59 c 0
 -881.456 2407.59 -898.352 2353.06 -898.352 2292.39 c 0
 -898.352 2244.78 -881.456 2217.13 -848.432 2210.22 c 1
 -848.432 2263.21 -814.64 2283.18 -783.92 2283.18 c 0x7e
 -711.729 2283.18 -681.776 2220.97 -627.248 2210.22 c 1
 -628.784 2218.66 -629.552 2227.11 -629.552 2235.56 c 0
 -629.552 2313.9 -565.808 2373.03 -491.312 2373.03 c 0
 -417.584 2373.03 -353.072 2314.66 -353.072 2235.56 c 0
 -353.072 2176.42 -393.008 2098.86 -505.904 2098.86 c 0xbe
 -652.592 2098.86 -691.76 2182.57 -761.648 2182.57 c 0x7e
 -790.832 2182.57 -798.512 2165.67 -798.512 2132.65 c 0
 -798.512 2122.66 -797.744 2111.14 -796.976 2098.86 c 1xbe
-491.312 2287.02 m 0
 -518.192 2287.02 -542.768 2266.28 -542.768 2235.56 c 0
 -542.768 2207.91 -522.032 2184.87 -491.312 2184.87 c 0xbe
 -460.592 2184.87 -439.856 2208.68 -439.856 2235.56 c 0
 -439.856 2264.74 -464.432 2287.02 -491.312 2287.02 c 0
EndSplineSet
Fore
SplineSet
-272 2551 m 1x5e
 -304 2440 -396 2389 -564 2388 c 0x3e
 -657 2388 -695 2397 -748 2397 c 0
 -858 2397 -883 2347 -883 2292 c 0
 -883 2258 -874 2241 -862 2232 c 1
 -853 2280 -816 2298 -784 2298 c 0x5e
 -716 2298 -679 2249 -645 2232 c 1
 -645 2322 -575 2388 -491 2388 c 0
 -409 2388 -338 2324 -338 2236 c 0
 -338 2170 -384 2084 -506 2084 c 0xbe
 -659 2084 -706 2168 -762 2168 c 0
 -780 2168 -784 2164 -784 2133 c 0
 -784 2119 -782 2098 -781 2082 c 1
 -974 2103 -1014 2204 -1014 2295 c 0
 -1014 2469 -867 2518 -759 2518 c 0
 -709 2518 -662 2509 -582 2509 c 0
 -443 2509 -396 2543 -377 2612 c 1
 -272 2551 l 1x5e
-491 2272 m 0
 -510 2272 -528 2258 -528 2236 c 0
 -528 2216 -513 2200 -491 2200 c 0xbe
 -469 2200 -455 2217 -455 2236 c 0
 -455 2256 -472 2272 -491 2272 c 0
EndSplineSet
Validated: 1
EndChar

StartChar: ff
Encoding: 64256 64256 276
Width: 1138
Flags: W
HStem: 0 21G<177 357 746 926> 914 148<19 177 357 746 926 1105> 1367 148<414.884 775.2 967.375 1206.41>
VStem: 177 180<0 914 1062 1307.38> 746 180<0 914 1062 1325.02>
LayerCount: 2
Back
SplineSet
615 1367 m 3
 415 1367 357 1308 357 1160 c 2
 357 1062 l 1
 706 1062 l 1
 706 914 l 1
 357 914 l 1
 357 0 l 1
 177 0 l 1
 177 914 l 1
 19 914 l 1
 19 1062 l 1
 177 1062 l 1
 177 1175 l 2
 177 1447 355 1515 609 1515 c 3
 660 1515 822 1506 885 1436 c 1
 885 1288 l 1
 813 1360 661 1367 615 1367 c 3
1062 1367 m 3
 984 1367 926 1308 926 1160 c 2
 926 1062 l 1
 1105 1062 l 1
 1105 914 l 1
 926 914 l 1
 926 0 l 1
 746 0 l 1
 746 914 l 1
 588 914 l 1
 588 1062 l 1
 746 1062 l 1
 746 1175 l 2
 746 1447 924 1515 1056 1515 c 3
 1107 1515 1158 1506 1209 1488 c 1
 1209 1340 l 1
 1149 1360 1108 1367 1062 1367 c 3
EndSplineSet
Fore
SplineSet
1062 1367 m 3
 984 1367 926 1308 926 1160 c 2
 926 1062 l 1
 1105 1062 l 1
 1105 914 l 1
 926 914 l 1
 926 0 l 1
 746 0 l 1
 746 914 l 1
 357 914 l 1
 357 0 l 1
 177 0 l 1
 177 914 l 1
 19 914 l 1
 19 1062 l 1
 177 1062 l 1
 177 1175 l 2
 177 1447 355 1515 609 1515 c 3
 655 1515 790 1508 863 1456 c 1
 922 1500 994 1515 1056 1515 c 3
 1107 1515 1158 1506 1209 1488 c 1
 1209 1340 l 1
 1149 1360 1108 1367 1062 1367 c 3
615 1367 m 3
 415 1367 357 1308 357 1160 c 2
 357 1062 l 1
 746 1062 l 1
 746 1175 l 2
 746 1244 758 1301 777 1346 c 1
 712 1365 643 1367 615 1367 c 3
EndSplineSet
Validated: 1
LCarets2: 1 0 
Ligature2: "'liga' Standard Ligatures lookup 0" f f
EndChar

StartChar: fi
Encoding: 64257 64257 277
Width: 1024
Flags: W
HStem: 0 21G<177 357 705 885> 914 148<19 177 357 705> 1367 148<414.884 836.702>
VStem: 177 180<0 914 1062 1307.38> 705 180<0 914>
LayerCount: 2
Back
SplineSet
705 0 m 1xf8
 705 1062 l 1xf4
 885 1062 l 1
 885 0 l 1
 705 0 l 1xf8
615 1367 m 3
 415 1367 357 1308 357 1160 c 2
 357 1062 l 1
 706 1062 l 1
 706 914 l 1xf4
 357 914 l 1
 357 0 l 1
 177 0 l 1
 177 914 l 1
 19 914 l 1
 19 1062 l 1
 177 1062 l 1
 177 1175 l 2
 177 1447 355 1515 609 1515 c 3
 660 1515 822 1506 885 1436 c 1
 885 1288 l 1xf8
 813 1360 661 1367 615 1367 c 3
EndSplineSet
Fore
SplineSet
615 1367 m 3
 415 1367 357 1308 357 1160 c 2
 357 1062 l 1
 885 1062 l 1
 885 0 l 1
 705 0 l 1
 705 914 l 1
 357 914 l 1
 357 0 l 1
 177 0 l 1
 177 914 l 1
 19 914 l 1
 19 1062 l 1
 177 1062 l 1
 177 1175 l 2
 177 1447 355 1515 609 1515 c 3
 660 1515 822 1506 885 1436 c 1
 885 1288 l 1
 813 1360 661 1367 615 1367 c 3
EndSplineSet
Validated: 1
LCarets2: 1 0 
Ligature2: "'liga' Standard Ligatures lookup 0" f i
EndChar

StartChar: fl
Encoding: 64258 64258 278
Width: 1024
Flags: W
HStem: 0 21G<177 357 700 880> 914 148<19 177 357 536> 1367 148<414.884 697.664>
VStem: 177 180<0 914 1062 1307.38> 700 180<0 1365.87>
LayerCount: 2
Back
SplineSet
615 1367 m 3xec
 415 1367 357 1308 357 1160 c 2
 357 1062 l 1
 536 1062 l 1
 536 914 l 1
 357 914 l 1
 357 0 l 1
 177 0 l 1
 177 914 l 1
 19 914 l 1
 19 1062 l 1
 177 1062 l 1
 177 1175 l 2
 177 1447 355 1515 609 1515 c 3xec
 660 1515 822 1506 880 1466 c 1xdc
 880 1318 l 1
 813 1360 661 1367 615 1367 c 3xec
700 0 m 1
 700 1466 l 1
 880 1466 l 1xdc
 880 0 l 1
 700 0 l 1
EndSplineSet
Fore
SplineSet
615 1367 m 3
 415 1367 357 1308 357 1160 c 2
 357 1062 l 1
 536 1062 l 1
 536 914 l 1
 357 914 l 1
 357 0 l 1
 177 0 l 1
 177 914 l 1
 19 914 l 1
 19 1062 l 1
 177 1062 l 1
 177 1175 l 2
 177 1447 355 1515 609 1515 c 3
 660 1515 822 1506 880 1466 c 1
 880 0 l 1
 700 0 l 1
 700 1363 l 1
 664 1366 632 1367 615 1367 c 3
EndSplineSet
Validated: 1
LCarets2: 1 0 
Ligature2: "'liga' Standard Ligatures lookup 0" f l
EndChar

StartChar: ffi
Encoding: 64259 64259 279
Width: 1593
Flags: W
HStem: 0 21G<177 357 746 926 1274 1454> 914 148<19 177 357 746 926 1274> 1367 148<414.884 775.203 985.416 1405.7>
VStem: 177 180<0 914 1062 1307.38> 746 180<0 914 1062 1309.16> 1274 180<0 914>
LayerCount: 2
Back
SplineSet
615 1367 m 3
 415 1367 357 1308 357 1160 c 2
 357 1062 l 1
 706 1062 l 1
 706 914 l 1xf4
 357 914 l 1
 357 0 l 1
 177 0 l 1
 177 914 l 1
 19 914 l 1
 19 1062 l 1
 177 1062 l 1
 177 1175 l 2
 177 1447 355 1515 609 1515 c 3
 660 1515 822 1506 885 1436 c 1
 885 1288 l 1xf8
 813 1360 661 1367 615 1367 c 3
1274 0 m 1xf8
 1274 1062 l 1xf4
 1454 1062 l 1
 1454 0 l 1
 1274 0 l 1xf8
1184 1367 m 3
 984 1367 926 1308 926 1160 c 2
 926 1062 l 1
 1275 1062 l 1
 1275 914 l 1xf4
 926 914 l 1
 926 0 l 1
 746 0 l 1
 746 914 l 1
 588 914 l 1
 588 1062 l 1
 746 1062 l 1
 746 1175 l 2
 746 1447 924 1515 1178 1515 c 3
 1229 1515 1391 1506 1454 1436 c 1
 1454 1288 l 1xf8
 1382 1360 1230 1367 1184 1367 c 3
EndSplineSet
Fore
SplineSet
1184 1367 m 3
 984 1367 926 1308 926 1160 c 2
 926 1062 l 1
 1454 1062 l 1
 1454 0 l 1
 1274 0 l 1
 1274 914 l 1
 926 914 l 1
 926 0 l 1
 746 0 l 1
 746 914 l 1
 357 914 l 1
 357 0 l 1
 177 0 l 1
 177 914 l 1
 19 914 l 1
 19 1062 l 1
 177 1062 l 1
 177 1175 l 2
 177 1447 355 1515 609 1515 c 3
 656 1515 801 1508 871 1450 c 1
 947 1499 1053 1515 1178 1515 c 3
 1229 1515 1391 1506 1454 1436 c 1
 1454 1288 l 1
 1382 1360 1230 1367 1184 1367 c 3
615 1367 m 3
 415 1367 357 1308 357 1160 c 2
 357 1062 l 1
 746 1062 l 1
 746 1175 l 2
 746 1244 758 1300 779 1345 c 1
 713 1364 644 1367 615 1367 c 3
EndSplineSet
Validated: 1
LCarets2: 2 0 0 
Ligature2: "'liga' Standard Ligatures lookup 0" ff i
Ligature2: "'liga' Standard Ligatures lookup 0" f f i
EndChar

StartChar: ffl
Encoding: 64260 64260 280
Width: 1593
Flags: W
HStem: 0 21G<177 357 746 926 1269 1449> 914 148<19 177 357 746 926 1105> 1367 148<414.884 775.203 985.416 1266.66>
VStem: 177 180<0 914 1062 1307.38> 746 180<0 914 1062 1309.16> 1269 180<0 1365.87>
LayerCount: 2
Back
SplineSet
615 1367 m 3
 415 1367 357 1308 357 1160 c 2
 357 1062 l 1
 706 1062 l 1
 706 914 l 1xf4
 357 914 l 1
 357 0 l 1
 177 0 l 1
 177 914 l 1
 19 914 l 1
 19 1062 l 1
 177 1062 l 1
 177 1175 l 2
 177 1447 355 1515 609 1515 c 3
 660 1515 822 1506 885 1436 c 1
 885 1288 l 1xf8
 813 1360 661 1367 615 1367 c 3
1184 1367 m 3xec
 984 1367 926 1308 926 1160 c 2
 926 1062 l 1
 1105 1062 l 1
 1105 914 l 1
 926 914 l 1
 926 0 l 1
 746 0 l 1
 746 914 l 1
 588 914 l 1
 588 1062 l 1
 746 1062 l 1
 746 1175 l 2
 746 1447 924 1515 1178 1515 c 3xec
 1229 1515 1391 1506 1449 1466 c 1xdc
 1449 1318 l 1
 1382 1360 1230 1367 1184 1367 c 3xec
1269 0 m 1
 1269 1466 l 1
 1449 1466 l 1xdc
 1449 0 l 1
 1269 0 l 1
EndSplineSet
Fore
SplineSet
1184 1367 m 3
 984 1367 926 1308 926 1160 c 2
 926 1062 l 1
 1105 1062 l 1
 1105 914 l 1
 926 914 l 1
 926 0 l 1
 746 0 l 1
 746 914 l 1
 357 914 l 1
 357 0 l 1
 177 0 l 1
 177 914 l 1
 19 914 l 1
 19 1062 l 1
 177 1062 l 1
 177 1175 l 2
 177 1447 355 1515 609 1515 c 3
 656 1515 801 1508 871 1450 c 1
 947 1499 1053 1515 1178 1515 c 3
 1229 1515 1391 1506 1449 1466 c 1
 1449 0 l 1
 1269 0 l 1
 1269 1363 l 1
 1233 1366 1201 1367 1184 1367 c 3
615 1367 m 3
 415 1367 357 1308 357 1160 c 2
 357 1062 l 1
 746 1062 l 1
 746 1175 l 2
 746 1244 758 1300 779 1345 c 1
 713 1364 644 1367 615 1367 c 3
EndSplineSet
Validated: 1
LCarets2: 2 0 0 
Ligature2: "'liga' Standard Ligatures lookup 0" ff l
Ligature2: "'liga' Standard Ligatures lookup 0" f f l
EndChar

StartChar: dotlessi
Encoding: 305 305 281
Width: 455
Flags: W
HStem: 0 21G<136 316> 1042 20G<136 316>
VStem: 136 180<0 1062>
LayerCount: 2
Fore
SplineSet
136 0 m 1
 136 1062 l 1
 316 1062 l 1
 316 0 l 1
 136 0 l 1
EndSplineSet
Validated: 1
EndChar

StartChar: dotlessj
Encoding: 567 567 282
Width: 455
Flags: W
HStem: -428 161<-92.0353 99.0322> 1042 20G<134 314>
VStem: 134 180<-233.094 1062>
LayerCount: 2
Fore
SplineSet
314 -58 m 2
 314 -336 204 -428 39 -428 c 0
 -1 -428 -45 -423 -94 -412 c 1
 -94 -259 l 1
 -59 -264 -30 -267 -7 -267 c 0
 90 -267 134 -223 134 -54 c 2
 134 1062 l 1
 314 1062 l 1
 314 -58 l 2
EndSplineSet
Validated: 1
EndChar

StartChar: AE
Encoding: 198 198 283
Width: 1951
Flags: W
HStem: 0 170<1057 1807> 483 170<504 877> 653 170<1057 1631> 1280 170<791 877 1057 1807>
VStem: 877 180<170 483 823 1280>
DStem2: -2 0 203 0 0.415315 0.909678<85.1396 616.714 804.169 1494.64>
LayerCount: 2
Fore
SplineSet
660 1450 m 1xd8
 1807 1450 l 1
 1807 1280 l 1
 1057 1280 l 1
 1057 823 l 1
 1631 823 l 1
 1631 653 l 1
 1057 653 l 1xb8
 1057 170 l 1
 1807 170 l 1
 1807 0 l 1
 877 0 l 1
 877 483 l 1
 425 483 l 1
 203 0 l 1
 -2 0 l 1
 660 1450 l 1xd8
877 1280 m 1
 791 1281 l 1
 504 653 l 1
 877 653 l 1xd8
 877 1280 l 1
EndSplineSet
Validated: 1
EndChar

StartChar: ae
Encoding: 230 230 284
Width: 1879
Flags: W
HStem: -11 148<316.733 669.917 1154.48 1488.44> 490 148<1011 1602> 539 148<666.883 815> 947 148<374.182 734.115 1161.05 1472.18>
VStem: 74 180<199.274 391.245> 105 176<766.045 848.373> 815 192<295.373 490> 1602 186<249.388 333>
LayerCount: 2
Back
SplineSet
1007 490 m 1
 1013 218 1175 137 1322 137 c 3
 1472 137 1565 214 1602 333 c 1
 1788 333 l 1
 1748 124 1576 -11 1321 -11 c 3
 999 -11 815 188 815 527 c 0
 815 864 993 1095 1311 1095 c 3
 1620 1095 1793 887 1793 490 c 1
 1007 490 l 1
1602 638 m 1
 1592 760 1544 947 1313 947 c 3
 1143 947 1021 806 1011 638 c 1
 1602 638 l 1
995 458 m 2xec
 995 181 756 -11 437 -11 c 3
 149 -11 74 168 74 293 c 3xf4
 74 415 146 548 332 598 c 0
 451 629 661 634 815 687 c 1
 815 828 785 947 558 947 c 3
 389 947 318 892 281 744 c 1
 105 768 l 1
 146 999 321 1095 584 1095 c 3
 969 1095 995 915 995 694 c 2
 995 458 l 2xec
254 293 m 3
 254 243 301 137 474 137 c 3
 738 137 815 281 815 539 c 1
 584 443 254 491 254 293 c 3
EndSplineSet
Fore
SplineSet
254 293 m 3xbb
 254 243 301 137 474 137 c 3
 738 137 815 281 815 539 c 1
 584 443 254 491 254 293 c 3xbb
1602 638 m 1xd3
 1592 760 1544 947 1313 947 c 3
 1143 947 1021 806 1011 638 c 1
 1602 638 l 1xd3
1007 490 m 1
 1013 218 1175 137 1322 137 c 3
 1472 137 1565 214 1602 333 c 1
 1788 333 l 1
 1748 124 1576 -11 1321 -11 c 3
 1129 -11 987 60 903 188 c 1
 805 64 636 -11 437 -11 c 3
 149 -11 74 168 74 293 c 3xdb
 74 415 146 548 332 598 c 0
 451 629 661 634 815 687 c 1
 815 828 785 947 558 947 c 3
 389 947 318 892 281 744 c 1
 105 768 l 1xb7
 146 999 321 1095 584 1095 c 3
 801 1095 905 1038 953 948 c 1
 1037 1041 1158 1095 1311 1095 c 3
 1620 1095 1793 887 1793 490 c 1
 1007 490 l 1
EndSplineSet
Validated: 1
EndChar

StartChar: OE
Encoding: 338 338 285
Width: 2208
Flags: W
HStem: -10 170<527.854 891.461 1314 2064> 651 170<1314 1888> 1280 170<1314 2064> 1308 170<521.222 886.659>
VStem: 104 180<445.246 1017.83> 1134 180<169 193 453.062 651 821 1008.26 1277 1280>
LayerCount: 2
Back
SplineSet
1134 0 m 5xec
 1134 1450 l 5
 2064 1450 l 5
 2064 1280 l 5
 1314 1280 l 5
 1314 821 l 5
 1888 821 l 5
 1888 651 l 5
 1314 651 l 5
 1314 169 l 5
 2064 169 l 5
 2064 0 l 5
 1134 0 l 5xec
709 -10 m 7
 370 -10 104 306 104 714 c 7
 104 1188 364 1478 710 1478 c 7xdc
 1048 1478 1314 1176 1314 731 c 7
 1314 277 1030 -10 709 -10 c 7
711 1308 m 7
 384 1308 284 1012 284 711 c 7
 284 373 462 160 708 160 c 7
 960 160 1134 374 1134 732 c 7
 1134 1082 965 1308 711 1308 c 7
EndSplineSet
Fore
SplineSet
711 1308 m 3xdc
 384 1308 284 1012 284 711 c 3
 284 373 462 160 708 160 c 3
 960 160 1134 374 1134 732 c 3
 1134 1082 965 1308 711 1308 c 3xdc
709 -10 m 3
 370 -10 104 306 104 714 c 3
 104 1188 364 1478 710 1478 c 3xdc
 877 1478 1026 1405 1134 1277 c 1
 1134 1450 l 1
 2064 1450 l 1
 2064 1280 l 1
 1314 1280 l 1xec
 1314 821 l 1
 1888 821 l 1
 1888 651 l 1
 1314 651 l 1
 1314 169 l 1
 2064 169 l 1
 2064 0 l 1
 1134 0 l 1
 1134 193 l 1
 1023 63 871 -10 709 -10 c 3
EndSplineSet
Validated: 1
EndChar

